<svg xmlns="http://www.w3.org/2000/svg" xmlns:xlink="http://www.w3.org/1999/xlink" contentStyleType="text/css" data-diagram-type="SEQUENCE" height="1778px" preserveAspectRatio="none" style="width:2016px;height:1778px;background:#FFFFFF;" version="1.1" viewBox="0 0 2016 1778" width="2016px" zoomAndPan="magnify"><defs/><g><g><title>Message</title><rect fill="#FFFFFF" height="95.118" style="stroke:#181818;stroke-width:1;" width="10" x="137.9631" y="72.7739"/></g><g><title>Message</title><rect fill="#FFFFFF" height="95.118" style="stroke:#181818;stroke-width:1;" width="10" x="137.9631" y="1360.0123"/></g><g><title>User</title><rect fill="#FFFFFF" height="31.706" style="stroke:#181818;stroke-width:1;" width="10" x="298.7702" y="104.4799"/></g><g><title>User</title><rect fill="#FFFFFF" height="31.706" style="stroke:#181818;stroke-width:1;" width="10" x="298.7702" y="1391.7183"/></g><g><title>Client</title><rect fill="#FFFFFF" height="31.706" style="stroke:#181818;stroke-width:1;" width="10" x="356.9161" y="199.598"/></g><g><title>Client</title><rect fill="#FFFFFF" height="30" style="stroke:#181818;stroke-width:1;" width="10" x="356.9161" y="418.1281"/></g><g><title>OOMTextBrowser</title><rect fill="#FFFFFF" height="30" style="stroke:#181818;stroke-width:1;" width="10" x="458.4758" y="263.01"/></g><g><title>ApplicationHandler</title><rect fill="#FFFFFF" height="811.4722" style="stroke:#181818;stroke-width:1;" width="10" x="653.3134" y="324.716"/></g><g><title>ApplicationHandler</title><rect fill="#FFFFFF" height="28" style="stroke:#181818;stroke-width:1;" width="10" x="658.3134" y="734.6582"/></g><g><title>ApplicationHandler</title><rect fill="#FFFFFF" height="28" style="stroke:#181818;stroke-width:1;" width="10" x="658.3134" y="809.3642"/></g><g><title>ApplicationHandler</title><rect fill="#FFFFFF" height="28" style="stroke:#181818;stroke-width:1;" width="10" x="658.3134" y="884.0702"/></g><g><title>ApplicationHandler</title><rect fill="#FFFFFF" height="28" style="stroke:#181818;stroke-width:1;" width="10" x="658.3134" y="958.7762"/></g><g><title>ApplicationHandler</title><rect fill="#FFFFFF" height="28" style="stroke:#181818;stroke-width:1;" width="10" x="658.3134" y="1033.4822"/></g><g><title>ApplicationHandler</title><rect fill="#FFFFFF" height="28" style="stroke:#181818;stroke-width:1;" width="10" x="658.3134" y="1108.1882"/></g><g><title>ApplicationHandler</title><rect fill="#FFFFFF" height="30" style="stroke:#181818;stroke-width:1;" width="10" x="653.3134" y="1298.3063"/></g><g><title>OOMWidget</title><rect fill="#FFFFFF" height="30" style="stroke:#181818;stroke-width:1;" width="10" x="829.8246" y="356.4221"/></g><g><title>OOMWidget</title><rect fill="#FFFFFF" height="30" style="stroke:#181818;stroke-width:1;" width="10" x="829.8246" y="1236.6003"/></g><g><title>Login</title><rect fill="#FFFFFF" height="30" style="stroke:#181818;stroke-width:1;" width="10" x="912.8483" y="479.8341"/></g><g><title>Register</title><rect fill="#FFFFFF" height="30" style="stroke:#181818;stroke-width:1;" width="10" x="982.3202" y="541.5401"/></g><g><title>Register</title><rect fill="#FFFFFF" height="30" style="stroke:#181818;stroke-width:1;" width="10" x="982.3202" y="1486.8364"/></g><g><title>PrivateMessages</title><rect fill="#FFFFFF" height="30" style="stroke:#181818;stroke-width:1;" width="10" x="1088.8779" y="603.2461"/></g><g><title>authenticationCode</title><rect fill="#FFFFFF" height="30" style="stroke:#181818;stroke-width:1;" width="10" x="1233.1094" y="664.9521"/></g><g><title>C_0016429213831703395188</title><rect fill="#FFFFFF" height="30" style="stroke:#181818;stroke-width:1;" width="10" x="1417.5347" y="1174.8943"/></g><g><title>EnterKeyFilter</title><rect fill="#FFFFFF" height="173.8241" style="stroke:#181818;stroke-width:1;" width="10" x="1583.2001" y="1548.5424"/></g><g><title>EnterKeyFilter</title><rect fill="#FFFFFF" height="28" style="stroke:#181818;stroke-width:1;" width="10" x="1588.2001" y="1641.6604"/></g><rect fill="transparent" height="128.118" style="stroke:#000000;stroke-width:1.5;" width="495.343" x="1515.1543" y="1563.5424"/><rect fill="transparent" height="94.412" style="stroke:#000000;stroke-width:1.5;" width="475.343" x="1525.1543" y="1590.2484"/><g><title>Message</title><rect fill="transparent" height="1701.2985" width="8" x="138.9631" y="39.0679"/><line style="stroke:#181818;stroke-width:0.5;stroke-dasharray:5.0,5.0;" x1="142.7802" x2="142.7802" y1="39.0679" y2="1740.3665"/></g><g><title>User</title><rect fill="transparent" height="1701.2985" width="8" x="299.7702" y="39.0679"/><line style="stroke:#181818;stroke-width:0.5;stroke-dasharray:5.0,5.0;" x1="303.4613" x2="303.4613" y1="39.0679" y2="1740.3665"/></g><g><title>Client</title><rect fill="transparent" height="1701.2985" width="8" x="357.9161" y="39.0679"/><line style="stroke:#181818;stroke-width:0.5;stroke-dasharray:5.0,5.0;" x1="361.0792" x2="361.0792" y1="39.0679" y2="1740.3665"/></g><g><title>OOMTextBrowser</title><rect fill="transparent" height="1701.2985" width="8" x="459.4758" y="39.0679"/><line style="stroke:#181818;stroke-width:0.5;stroke-dasharray:5.0,5.0;" x1="462.753" x2="462.753" y1="39.0679" y2="1740.3665"/></g><g><title>ApplicationHandler</title><rect fill="transparent" height="1701.2985" width="8" x="654.3134" y="39.0679"/><line style="stroke:#181818;stroke-width:0.5;stroke-dasharray:5.0,5.0;" x1="658.0476" x2="658.0476" y1="39.0679" y2="1740.3665"/></g><g><title>OOMWidget</title><rect fill="transparent" height="1701.2985" width="8" x="830.8246" y="39.0679"/><line style="stroke:#181818;stroke-width:0.5;stroke-dasharray:5.0,5.0;" x1="834.1407" x2="834.1407" y1="39.0679" y2="1740.3665"/></g><g><title>Login</title><rect fill="transparent" height="1701.2985" width="8" x="913.8483" y="39.0679"/><line style="stroke:#181818;stroke-width:0.5;stroke-dasharray:5.0,5.0;" x1="917.5084" x2="917.5084" y1="39.0679" y2="1740.3665"/></g><g><title>Register</title><rect fill="transparent" height="1701.2985" width="8" x="983.3202" y="39.0679"/><line style="stroke:#181818;stroke-width:0.5;stroke-dasharray:5.0,5.0;" x1="987.1883" x2="987.1883" y1="39.0679" y2="1740.3665"/></g><g><title>PrivateMessages</title><rect fill="transparent" height="1701.2985" width="8" x="1089.8779" y="39.0679"/><line style="stroke:#181818;stroke-width:0.5;stroke-dasharray:5.0,5.0;" x1="1093.4521" x2="1093.4521" y1="39.0679" y2="1740.3665"/></g><g><title>authenticationCode</title><rect fill="transparent" height="1701.2985" width="8" x="1234.1094" y="39.0679"/><line style="stroke:#181818;stroke-width:0.5;stroke-dasharray:5.0,5.0;" x1="1237.3036" x2="1237.3036" y1="39.0679" y2="1740.3665"/></g><g><title>C_0016429213831703395188</title><rect fill="transparent" height="1701.2985" width="8" x="1418.5347" y="39.0679"/><line style="stroke:#181818;stroke-width:0.5;stroke-dasharray:5.0,5.0;" x1="1421.9151" x2="1421.9151" y1="39.0679" y2="1740.3665"/></g><g><title>EnterKeyFilter</title><rect fill="transparent" height="1701.2985" width="8" x="1584.2001" y="39.0679"/><line style="stroke:#181818;stroke-width:0.5;stroke-dasharray:5.0,5.0;" x1="1588.1543" x2="1588.1543" y1="39.0679" y2="1740.3665"/></g><rect fill="#E2E2F0" height="33.0679" rx="2.5" ry="2.5" style="stroke:#181818;stroke-width:0.5;" width="72.3658" x="106.7802" y="5"/><text fill="#000000" font-family="sans-serif" font-size="14" lengthAdjust="spacing" textLength="58.3658" x="113.7802" y="26.9659">Message</text><rect fill="#E2E2F0" height="33.0679" rx="2.5" ry="2.5" style="stroke:#181818;stroke-width:0.5;" width="72.3658" x="106.7802" y="1739.3665"/><text fill="#000000" font-family="sans-serif" font-size="14" lengthAdjust="spacing" textLength="58.3658" x="113.7802" y="1761.3324">Message</text><rect fill="#E2E2F0" height="33.0679" rx="2.5" ry="2.5" style="stroke:#181818;stroke-width:0.5;" width="44.6179" x="281.4613" y="5"/><text fill="#000000" font-family="sans-serif" font-size="14" lengthAdjust="spacing" textLength="30.6179" x="288.4613" y="26.9659">User</text><rect fill="#E2E2F0" height="33.0679" rx="2.5" ry="2.5" style="stroke:#181818;stroke-width:0.5;" width="44.6179" x="281.4613" y="1739.3665"/><text fill="#000000" font-family="sans-serif" font-size="14" lengthAdjust="spacing" textLength="30.6179" x="288.4613" y="1761.3324">User</text><rect fill="#E2E2F0" height="33.0679" rx="2.5" ry="2.5" style="stroke:#181818;stroke-width:0.5;" width="51.6738" x="336.0792" y="5"/><text fill="#000000" font-family="sans-serif" font-size="14" lengthAdjust="spacing" textLength="37.6738" x="343.0792" y="26.9659">Client</text><rect fill="#E2E2F0" height="33.0679" rx="2.5" ry="2.5" style="stroke:#181818;stroke-width:0.5;" width="51.6738" x="336.0792" y="1739.3665"/><text fill="#000000" font-family="sans-serif" font-size="14" lengthAdjust="spacing" textLength="37.6738" x="343.0792" y="1761.3324">Client</text><rect fill="#E2E2F0" height="33.0679" rx="2.5" ry="2.5" style="stroke:#181818;stroke-width:0.5;" width="131.4456" x="397.753" y="5"/><text fill="#000000" font-family="sans-serif" font-size="14" lengthAdjust="spacing" textLength="117.4456" x="404.753" y="26.9659">OOMTextBrowser</text><rect fill="#E2E2F0" height="33.0679" rx="2.5" ry="2.5" style="stroke:#181818;stroke-width:0.5;" width="131.4456" x="397.753" y="1739.3665"/><text fill="#000000" font-family="sans-serif" font-size="14" lengthAdjust="spacing" textLength="117.4456" x="404.753" y="1761.3324">OOMTextBrowser</text><rect fill="#E2E2F0" height="33.0679" rx="2.5" ry="2.5" style="stroke:#181818;stroke-width:0.5;" width="140.5315" x="588.0476" y="5"/><text fill="#000000" font-family="sans-serif" font-size="14" lengthAdjust="spacing" textLength="126.5315" x="595.0476" y="26.9659">ApplicationHandler</text><rect fill="#E2E2F0" height="33.0679" rx="2.5" ry="2.5" style="stroke:#181818;stroke-width:0.5;" width="140.5315" x="588.0476" y="1739.3665"/><text fill="#000000" font-family="sans-serif" font-size="14" lengthAdjust="spacing" textLength="126.5315" x="595.0476" y="1761.3324">ApplicationHandler</text><rect fill="#E2E2F0" height="33.0679" rx="2.5" ry="2.5" style="stroke:#181818;stroke-width:0.5;" width="95.3677" x="787.1407" y="5"/><text fill="#000000" font-family="sans-serif" font-size="14" lengthAdjust="spacing" textLength="81.3677" x="794.1407" y="26.9659">OOMWidget</text><rect fill="#E2E2F0" height="33.0679" rx="2.5" ry="2.5" style="stroke:#181818;stroke-width:0.5;" width="95.3677" x="787.1407" y="1739.3665"/><text fill="#000000" font-family="sans-serif" font-size="14" lengthAdjust="spacing" textLength="81.3677" x="794.1407" y="1761.3324">OOMWidget</text><rect fill="#E2E2F0" height="33.0679" rx="2.5" ry="2.5" style="stroke:#181818;stroke-width:0.5;" width="50.6799" x="892.5084" y="5"/><text fill="#000000" font-family="sans-serif" font-size="14" lengthAdjust="spacing" textLength="36.6799" x="899.5084" y="26.9659">Login</text><rect fill="#E2E2F0" height="33.0679" rx="2.5" ry="2.5" style="stroke:#181818;stroke-width:0.5;" width="50.6799" x="892.5084" y="1739.3665"/><text fill="#000000" font-family="sans-serif" font-size="14" lengthAdjust="spacing" textLength="36.6799" x="899.5084" y="1761.3324">Login</text><rect fill="#E2E2F0" height="33.0679" rx="2.5" ry="2.5" style="stroke:#181818;stroke-width:0.5;" width="68.2638" x="953.1883" y="5"/><text fill="#000000" font-family="sans-serif" font-size="14" lengthAdjust="spacing" textLength="54.2638" x="960.1883" y="26.9659">Register</text><rect fill="#E2E2F0" height="33.0679" rx="2.5" ry="2.5" style="stroke:#181818;stroke-width:0.5;" width="68.2638" x="953.1883" y="1739.3665"/><text fill="#000000" font-family="sans-serif" font-size="14" lengthAdjust="spacing" textLength="54.2638" x="960.1883" y="1761.3324">Register</text><rect fill="#E2E2F0" height="33.0679" rx="2.5" ry="2.5" style="stroke:#181818;stroke-width:0.5;" width="124.8516" x="1031.4521" y="5"/><text fill="#000000" font-family="sans-serif" font-size="14" lengthAdjust="spacing" textLength="110.8516" x="1038.4521" y="26.9659">PrivateMessages</text><rect fill="#E2E2F0" height="33.0679" rx="2.5" ry="2.5" style="stroke:#181818;stroke-width:0.5;" width="124.8516" x="1031.4521" y="1739.3665"/><text fill="#000000" font-family="sans-serif" font-size="14" lengthAdjust="spacing" textLength="110.8516" x="1038.4521" y="1761.3324">PrivateMessages</text><rect fill="#E2E2F0" height="33.0679" rx="2.5" ry="2.5" style="stroke:#181818;stroke-width:0.5;" width="143.6115" x="1166.3036" y="5"/><text fill="#000000" font-family="sans-serif" font-size="14" lengthAdjust="spacing" textLength="129.6115" x="1173.3036" y="26.9659">authenticationCode</text><rect fill="#E2E2F0" height="33.0679" rx="2.5" ry="2.5" style="stroke:#181818;stroke-width:0.5;" width="143.6115" x="1166.3036" y="1739.3665"/><text fill="#000000" font-family="sans-serif" font-size="14" lengthAdjust="spacing" textLength="129.6115" x="1173.3036" y="1761.3324">authenticationCode</text><rect fill="#E2E2F0" height="33.0679" rx="2.5" ry="2.5" style="stroke:#181818;stroke-width:0.5;" width="205.2392" x="1319.9151" y="5"/><text fill="#000000" font-family="sans-serif" font-size="14" lengthAdjust="spacing" textLength="191.2392" x="1326.9151" y="26.9659">C_0016429213831703395188</text><rect fill="#E2E2F0" height="33.0679" rx="2.5" ry="2.5" style="stroke:#181818;stroke-width:0.5;" width="205.2392" x="1319.9151" y="1739.3665"/><text fill="#000000" font-family="sans-serif" font-size="14" lengthAdjust="spacing" textLength="191.2392" x="1326.9151" y="1761.3324">C_0016429213831703395188</text><rect fill="#E2E2F0" height="33.0679" rx="2.5" ry="2.5" style="stroke:#181818;stroke-width:0.5;" width="106.0916" x="1535.1543" y="5"/><text fill="#000000" font-family="sans-serif" font-size="14" lengthAdjust="spacing" textLength="92.0916" x="1542.1543" y="26.9659">EnterKeyFilter</text><rect fill="#E2E2F0" height="33.0679" rx="2.5" ry="2.5" style="stroke:#181818;stroke-width:0.5;" width="106.0916" x="1535.1543" y="1739.3665"/><text fill="#000000" font-family="sans-serif" font-size="14" lengthAdjust="spacing" textLength="92.0916" x="1542.1543" y="1761.3324">EnterKeyFilter</text><g><title>Message</title><rect fill="#FFFFFF" height="95.118" style="stroke:#181818;stroke-width:1;" width="10" x="137.9631" y="72.7739"/></g><g><title>Message</title><rect fill="#FFFFFF" height="95.118" style="stroke:#181818;stroke-width:1;" width="10" x="137.9631" y="1360.0123"/></g><g><title>User</title><rect fill="#FFFFFF" height="31.706" style="stroke:#181818;stroke-width:1;" width="10" x="298.7702" y="104.4799"/></g><g><title>User</title><rect fill="#FFFFFF" height="31.706" style="stroke:#181818;stroke-width:1;" width="10" x="298.7702" y="1391.7183"/></g><g><title>Client</title><rect fill="#FFFFFF" height="31.706" style="stroke:#181818;stroke-width:1;" width="10" x="356.9161" y="199.598"/></g><g><title>Client</title><rect fill="#FFFFFF" height="30" style="stroke:#181818;stroke-width:1;" width="10" x="356.9161" y="418.1281"/></g><g><title>OOMTextBrowser</title><rect fill="#FFFFFF" height="30" style="stroke:#181818;stroke-width:1;" width="10" x="458.4758" y="263.01"/></g><g><title>ApplicationHandler</title><rect fill="#FFFFFF" height="811.4722" style="stroke:#181818;stroke-width:1;" width="10" x="653.3134" y="324.716"/></g><g><title>ApplicationHandler</title><rect fill="#FFFFFF" height="28" style="stroke:#181818;stroke-width:1;" width="10" x="658.3134" y="734.6582"/></g><g><title>ApplicationHandler</title><rect fill="#FFFFFF" height="28" style="stroke:#181818;stroke-width:1;" width="10" x="658.3134" y="809.3642"/></g><g><title>ApplicationHandler</title><rect fill="#FFFFFF" height="28" style="stroke:#181818;stroke-width:1;" width="10" x="658.3134" y="884.0702"/></g><g><title>ApplicationHandler</title><rect fill="#FFFFFF" height="28" style="stroke:#181818;stroke-width:1;" width="10" x="658.3134" y="958.7762"/></g><g><title>ApplicationHandler</title><rect fill="#FFFFFF" height="28" style="stroke:#181818;stroke-width:1;" width="10" x="658.3134" y="1033.4822"/></g><g><title>ApplicationHandler</title><rect fill="#FFFFFF" height="28" style="stroke:#181818;stroke-width:1;" width="10" x="658.3134" y="1108.1882"/></g><g><title>ApplicationHandler</title><rect fill="#FFFFFF" height="30" style="stroke:#181818;stroke-width:1;" width="10" x="653.3134" y="1298.3063"/></g><g><title>OOMWidget</title><rect fill="#FFFFFF" height="30" style="stroke:#181818;stroke-width:1;" width="10" x="829.8246" y="356.4221"/></g><g><title>OOMWidget</title><rect fill="#FFFFFF" height="30" style="stroke:#181818;stroke-width:1;" width="10" x="829.8246" y="1236.6003"/></g><g><title>Login</title><rect fill="#FFFFFF" height="30" style="stroke:#181818;stroke-width:1;" width="10" x="912.8483" y="479.8341"/></g><g><title>Register</title><rect fill="#FFFFFF" height="30" style="stroke:#181818;stroke-width:1;" width="10" x="982.3202" y="541.5401"/></g><g><title>Register</title><rect fill="#FFFFFF" height="30" style="stroke:#181818;stroke-width:1;" width="10" x="982.3202" y="1486.8364"/></g><g><title>PrivateMessages</title><rect fill="#FFFFFF" height="30" style="stroke:#181818;stroke-width:1;" width="10" x="1088.8779" y="603.2461"/></g><g><title>authenticationCode</title><rect fill="#FFFFFF" height="30" style="stroke:#181818;stroke-width:1;" width="10" x="1233.1094" y="664.9521"/></g><g><title>C_0016429213831703395188</title><rect fill="#FFFFFF" height="30" style="stroke:#181818;stroke-width:1;" width="10" x="1417.5347" y="1174.8943"/></g><g><title>EnterKeyFilter</title><rect fill="#FFFFFF" height="173.8241" style="stroke:#181818;stroke-width:1;" width="10" x="1583.2001" y="1548.5424"/></g><g><title>EnterKeyFilter</title><rect fill="#FFFFFF" height="28" style="stroke:#181818;stroke-width:1;" width="10" x="1588.2001" y="1641.6604"/></g><polygon fill="#181818" points="125.9631,68.7739,135.9631,72.7739,125.9631,76.7739,129.9631,72.7739" style="stroke:#181818;stroke-width:1;"/><line style="stroke:#181818;stroke-width:1;" x1="0" x2="131.9631" y1="72.7739" y2="72.7739"/><text fill="#000000" font-family="sans-serif" font-size="13" lengthAdjust="spacing" textLength="112.3201" x="7" y="66.9649">get_sender() const</text><polygon fill="#181818" points="286.7702,100.4799,296.7702,104.4799,286.7702,108.4799,290.7702,104.4799" style="stroke:#181818;stroke-width:1;"/><line style="stroke:#181818;stroke-width:1;" x1="147.9631" x2="292.7702" y1="104.4799" y2="104.4799"/><text fill="#000000" font-family="sans-serif" font-size="13" lengthAdjust="spacing" textLength="131.8071" x="154.9631" y="98.6709">get_username() const</text><polygon fill="#181818" points="158.9631,132.186,148.9631,136.186,158.9631,140.186,154.9631,136.186" style="stroke:#181818;stroke-width:1;"/><line style="stroke:#181818;stroke-width:1;stroke-dasharray:2.0,2.0;" x1="152.9631" x2="302.7702" y1="136.186" y2="136.186"/><text fill="#000000" font-family="sans-serif" font-size="13" font-style="italic" lengthAdjust="spacing" textLength="43.836" x="164.9631" y="130.377">QString</text><polygon fill="#181818" points="11,163.892,1,167.892,11,171.892,7,167.892" style="stroke:#181818;stroke-width:1;"/><line style="stroke:#181818;stroke-width:1;stroke-dasharray:2.0,2.0;" x1="5" x2="141.9631" y1="167.892" y2="167.892"/><text fill="#000000" font-family="sans-serif" font-size="13" font-style="italic" lengthAdjust="spacing" textLength="43.836" x="17" y="162.083">QString</text><polygon fill="#181818" points="344.9161,195.598,354.9161,199.598,344.9161,203.598,348.9161,199.598" style="stroke:#181818;stroke-width:1;"/><line style="stroke:#181818;stroke-width:1;" x1="0" x2="350.9161" y1="199.598" y2="199.598"/><text fill="#000000" font-family="sans-serif" font-size="13" lengthAdjust="spacing" textLength="92.6901" x="7" y="193.789">getUser() const</text><polygon fill="#181818" points="11,227.304,1,231.304,11,235.304,7,231.304" style="stroke:#181818;stroke-width:1;"/><line style="stroke:#181818;stroke-width:1;stroke-dasharray:2.0,2.0;" x1="5" x2="360.9161" y1="231.304" y2="231.304"/><text fill="#000000" font-family="sans-serif" font-size="13" font-style="italic" lengthAdjust="spacing" textLength="26.078" x="17" y="225.495">User</text><polygon fill="#181818" points="446.4758,259.01,456.4758,263.01,446.4758,267.01,450.4758,263.01" style="stroke:#181818;stroke-width:1;"/><line style="stroke:#181818;stroke-width:1;" x1="0" x2="452.4758" y1="263.01" y2="263.01"/><text fill="#000000" font-family="sans-serif" font-size="13" lengthAdjust="spacing" textLength="181.0122" x="7" y="257.201">OOMTextBrowser(QWidget *)</text><polygon fill="#181818" points="641.3134,320.716,651.3134,324.716,641.3134,328.716,645.3134,324.716" style="stroke:#181818;stroke-width:1;"/><line style="stroke:#181818;stroke-width:1;" x1="0" x2="647.3134" y1="324.716" y2="324.716"/><text fill="#000000" font-family="sans-serif" font-size="13" lengthAdjust="spacing" textLength="189.4492" x="7" y="318.907">ApplicationHandler(QWidget *)</text><polygon fill="#181818" points="817.8246,352.4221,827.8246,356.4221,817.8246,360.4221,821.8246,356.4221" style="stroke:#181818;stroke-width:1;"/><line style="stroke:#181818;stroke-width:1;" x1="663.3134" x2="823.8246" y1="356.4221" y2="356.4221"/><text fill="#000000" font-family="sans-serif" font-size="13" lengthAdjust="spacing" textLength="147.5112" x="670.3134" y="350.6131">OOMWidget(QWidget *)</text><polygon fill="#181818" points="377.9161,414.1281,367.9161,418.1281,377.9161,422.1281,373.9161,418.1281" style="stroke:#181818;stroke-width:1;"/><line style="stroke:#181818;stroke-width:1;" x1="371.9161" x2="652.3134" y1="418.1281" y2="418.1281"/><text fill="#000000" font-family="sans-serif" font-size="13" lengthAdjust="spacing" textLength="267.3973" x="383.9161" y="412.3191">connectToServer(const QHostAddress &amp;,int)</text><polygon fill="#181818" points="900.8483,475.8341,910.8483,479.8341,900.8483,483.8341,904.8483,479.8341" style="stroke:#181818;stroke-width:1;"/><line style="stroke:#181818;stroke-width:1;" x1="663.3134" x2="906.8483" y1="479.8341" y2="479.8341"/><text fill="#000000" font-family="sans-serif" font-size="13" lengthAdjust="spacing" textLength="106.0151" x="670.3134" y="474.0251">Login(QWidget *)</text><polygon fill="#181818" points="970.3202,537.5401,980.3202,541.5401,970.3202,545.5401,974.3202,541.5401" style="stroke:#181818;stroke-width:1;"/><line style="stroke:#181818;stroke-width:1;" x1="663.3134" x2="976.3202" y1="541.5401" y2="541.5401"/><text fill="#000000" font-family="sans-serif" font-size="13" lengthAdjust="spacing" textLength="122.3431" x="670.3134" y="535.7311">Register(QWidget *)</text><polygon fill="#181818" points="1076.8779,599.2461,1086.8779,603.2461,1076.8779,607.2461,1080.8779,603.2461" style="stroke:#181818;stroke-width:1;"/><line style="stroke:#181818;stroke-width:1;" x1="663.3134" x2="1082.8779" y1="603.2461" y2="603.2461"/><text fill="#000000" font-family="sans-serif" font-size="13" lengthAdjust="spacing" textLength="174.8892" x="670.3134" y="597.4371">PrivateMessages(QWidget *)</text><polygon fill="#181818" points="1221.1094,660.9521,1231.1094,664.9521,1221.1094,668.9521,1225.1094,664.9521" style="stroke:#181818;stroke-width:1;"/><line style="stroke:#181818;stroke-width:1;" x1="663.3134" x2="1227.1094" y1="664.9521" y2="664.9521"/><text fill="#000000" font-family="sans-serif" font-size="13" lengthAdjust="spacing" textLength="192.3092" x="670.3134" y="659.1431">authenticationCode(QWidget *)</text><line style="stroke:#181818;stroke-width:1;" x1="668.3134" x2="710.3134" y1="726.6582" y2="726.6582"/><line style="stroke:#181818;stroke-width:1;" x1="710.3134" x2="710.3134" y1="726.6582" y2="739.6582"/><line style="stroke:#181818;stroke-width:1;" x1="669.3134" x2="710.3134" y1="739.6582" y2="739.6582"/><polygon fill="#181818" points="679.3134,735.6582,669.3134,739.6582,679.3134,743.6582,675.3134,739.6582" style="stroke:#181818;stroke-width:1;"/><text fill="#000000" font-family="sans-serif" font-size="13" lengthAdjust="spacing" textLength="121.1991" x="675.3134" y="720.8492">switchToWidget(int)</text><line style="stroke:#181818;stroke-width:1;" x1="668.3134" x2="710.3134" y1="801.3642" y2="801.3642"/><line style="stroke:#181818;stroke-width:1;" x1="710.3134" x2="710.3134" y1="801.3642" y2="814.3642"/><line style="stroke:#181818;stroke-width:1;" x1="669.3134" x2="710.3134" y1="814.3642" y2="814.3642"/><polygon fill="#181818" points="679.3134,810.3642,669.3134,814.3642,679.3134,818.3642,675.3134,814.3642" style="stroke:#181818;stroke-width:1;"/><text fill="#000000" font-family="sans-serif" font-size="13" lengthAdjust="spacing" textLength="121.1991" x="675.3134" y="795.5552">switchToWidget(int)</text><line style="stroke:#181818;stroke-width:1;" x1="668.3134" x2="710.3134" y1="876.0702" y2="876.0702"/><line style="stroke:#181818;stroke-width:1;" x1="710.3134" x2="710.3134" y1="876.0702" y2="889.0702"/><line style="stroke:#181818;stroke-width:1;" x1="669.3134" x2="710.3134" y1="889.0702" y2="889.0702"/><polygon fill="#181818" points="679.3134,885.0702,669.3134,889.0702,679.3134,893.0702,675.3134,889.0702" style="stroke:#181818;stroke-width:1;"/><text fill="#000000" font-family="sans-serif" font-size="13" lengthAdjust="spacing" textLength="121.1991" x="675.3134" y="870.2612">switchToWidget(int)</text><line style="stroke:#181818;stroke-width:1;" x1="668.3134" x2="710.3134" y1="950.7762" y2="950.7762"/><line style="stroke:#181818;stroke-width:1;" x1="710.3134" x2="710.3134" y1="950.7762" y2="963.7762"/><line style="stroke:#181818;stroke-width:1;" x1="669.3134" x2="710.3134" y1="963.7762" y2="963.7762"/><polygon fill="#181818" points="679.3134,959.7762,669.3134,963.7762,679.3134,967.7762,675.3134,963.7762" style="stroke:#181818;stroke-width:1;"/><text fill="#000000" font-family="sans-serif" font-size="13" lengthAdjust="spacing" textLength="121.1991" x="675.3134" y="944.9672">switchToWidget(int)</text><line style="stroke:#181818;stroke-width:1;" x1="668.3134" x2="710.3134" y1="1025.4822" y2="1025.4822"/><line style="stroke:#181818;stroke-width:1;" x1="710.3134" x2="710.3134" y1="1025.4822" y2="1038.4822"/><line style="stroke:#181818;stroke-width:1;" x1="669.3134" x2="710.3134" y1="1038.4822" y2="1038.4822"/><polygon fill="#181818" points="679.3134,1034.4822,669.3134,1038.4822,679.3134,1042.4822,675.3134,1038.4822" style="stroke:#181818;stroke-width:1;"/><text fill="#000000" font-family="sans-serif" font-size="13" lengthAdjust="spacing" textLength="121.1991" x="675.3134" y="1019.6732">switchToWidget(int)</text><line style="stroke:#181818;stroke-width:1;" x1="668.3134" x2="710.3134" y1="1100.1882" y2="1100.1882"/><line style="stroke:#181818;stroke-width:1;" x1="710.3134" x2="710.3134" y1="1100.1882" y2="1113.1882"/><line style="stroke:#181818;stroke-width:1;" x1="669.3134" x2="710.3134" y1="1113.1882" y2="1113.1882"/><polygon fill="#181818" points="679.3134,1109.1882,669.3134,1113.1882,679.3134,1117.1882,675.3134,1113.1882" style="stroke:#181818;stroke-width:1;"/><text fill="#000000" font-family="sans-serif" font-size="13" lengthAdjust="spacing" textLength="121.1991" x="675.3134" y="1094.3792">switchToWidget(int)</text><polygon fill="#181818" points="1405.5347,1170.8943,1415.5347,1174.8943,1405.5347,1178.8943,1409.5347,1174.8943" style="stroke:#181818;stroke-width:1;"/><line style="stroke:#181818;stroke-width:1;" x1="0" x2="1411.5347" y1="1174.8943" y2="1174.8943"/><text fill="#000000" font-family="sans-serif" font-size="13" lengthAdjust="spacing" textLength="269.5812" x="7" y="1169.0853">ProtocolManager(const ProtocolManager &amp;)</text><polygon fill="#181818" points="817.8246,1232.6003,827.8246,1236.6003,817.8246,1240.6003,821.8246,1236.6003" style="stroke:#181818;stroke-width:1;"/><line style="stroke:#181818;stroke-width:1;" x1="0" x2="823.8246" y1="1236.6003" y2="1236.6003"/><text fill="#000000" font-family="sans-serif" font-size="13" lengthAdjust="spacing" textLength="147.5112" x="7" y="1230.7913">OOMWidget(QWidget *)</text><polygon fill="#181818" points="641.3134,1294.3063,651.3134,1298.3063,641.3134,1302.3063,645.3134,1298.3063" style="stroke:#181818;stroke-width:1;"/><line style="stroke:#181818;stroke-width:1;" x1="0" x2="647.3134" y1="1298.3063" y2="1298.3063"/><text fill="#000000" font-family="sans-serif" font-size="13" lengthAdjust="spacing" textLength="121.1991" x="7" y="1292.4973">switchToWidget(int)</text><polygon fill="#181818" points="125.9631,1356.0123,135.9631,1360.0123,125.9631,1364.0123,129.9631,1360.0123" style="stroke:#181818;stroke-width:1;"/><line style="stroke:#181818;stroke-width:1;" x1="0" x2="131.9631" y1="1360.0123" y2="1360.0123"/><text fill="#000000" font-family="sans-serif" font-size="13" lengthAdjust="spacing" textLength="118.9631" x="7" y="1354.2033">get_receiver() const</text><polygon fill="#181818" points="286.7702,1387.7183,296.7702,1391.7183,286.7702,1395.7183,290.7702,1391.7183" style="stroke:#181818;stroke-width:1;"/><line style="stroke:#181818;stroke-width:1;" x1="147.9631" x2="292.7702" y1="1391.7183" y2="1391.7183"/><text fill="#000000" font-family="sans-serif" font-size="13" lengthAdjust="spacing" textLength="131.8071" x="154.9631" y="1385.9093">get_username() const</text><polygon fill="#181818" points="158.9631,1419.4243,148.9631,1423.4243,158.9631,1427.4243,154.9631,1423.4243" style="stroke:#181818;stroke-width:1;"/><line style="stroke:#181818;stroke-width:1;stroke-dasharray:2.0,2.0;" x1="152.9631" x2="302.7702" y1="1423.4243" y2="1423.4243"/><text fill="#000000" font-family="sans-serif" font-size="13" font-style="italic" lengthAdjust="spacing" textLength="43.836" x="164.9631" y="1417.6153">QString</text><polygon fill="#181818" points="11,1451.1304,1,1455.1304,11,1459.1304,7,1455.1304" style="stroke:#181818;stroke-width:1;"/><line style="stroke:#181818;stroke-width:1;stroke-dasharray:2.0,2.0;" x1="5" x2="141.9631" y1="1455.1304" y2="1455.1304"/><text fill="#000000" font-family="sans-serif" font-size="13" font-style="italic" lengthAdjust="spacing" textLength="43.836" x="17" y="1449.3214">QString</text><polygon fill="#181818" points="970.3202,1482.8364,980.3202,1486.8364,970.3202,1490.8364,974.3202,1486.8364" style="stroke:#181818;stroke-width:1;"/><line style="stroke:#181818;stroke-width:1;" x1="0" x2="976.3202" y1="1486.8364" y2="1486.8364"/><text fill="#000000" font-family="sans-serif" font-size="13" lengthAdjust="spacing" textLength="65.6241" x="7" y="1481.0274">~Register()</text><polygon fill="#181818" points="1571.2001,1544.5424,1581.2001,1548.5424,1571.2001,1552.5424,1575.2001,1548.5424" style="stroke:#181818;stroke-width:1;"/><line style="stroke:#181818;stroke-width:1;" x1="0" x2="1577.2001" y1="1548.5424" y2="1548.5424"/><text fill="#000000" font-family="sans-serif" font-size="13" lengthAdjust="spacing" textLength="191.1782" x="7" y="1542.7334">eventFilter(QObject *,QEvent *)</text><path d="M1515.1543,1563.5424 L1577.6133,1563.5424 L1577.6133,1573.2484 L1567.6133,1583.2484 L1515.1543,1583.2484 L1515.1543,1563.5424 " fill="#EEEEEE" style="stroke:#000000;stroke-width:1.5;"/><rect fill="transparent" height="128.118" style="stroke:#000000;stroke-width:1.5;" width="495.343" x="1515.1543" y="1563.5424"/><text fill="#000000" font-family="sans-serif" font-size="13" font-weight="bold" lengthAdjust="spacing" textLength="17.459" x="1530.1543" y="1578.4394">alt</text><text fill="#000000" font-family="sans-serif" font-size="11" font-weight="bold" lengthAdjust="spacing" textLength="193.9836" x="1592.6133" y="1577.3013">[event-&gt;type() == QEvent::KeyPress]</text><path d="M1525.1543,1590.2484 L1587.6133,1590.2484 L1587.6133,1599.9544 L1577.6133,1609.9544 L1525.1543,1609.9544 L1525.1543,1590.2484 " fill="#EEEEEE" style="stroke:#000000;stroke-width:1.5;"/><rect fill="transparent" height="94.412" style="stroke:#000000;stroke-width:1.5;" width="475.343" x="1525.1543" y="1590.2484"/><text fill="#000000" font-family="sans-serif" font-size="13" font-weight="bold" lengthAdjust="spacing" textLength="17.459" x="1540.1543" y="1605.1454">alt</text><text fill="#000000" font-family="sans-serif" font-size="11" font-weight="bold" lengthAdjust="spacing" textLength="392.884" x="1602.6133" y="1604.0073">[keyEvent-&gt;key() == Qt::Key_Return || keyEvent-&gt;key() == Qt::Key_Enter]</text><line style="stroke:#181818;stroke-width:1;" x1="1598.2001" x2="1640.2001" y1="1633.6604" y2="1633.6604"/><line style="stroke:#181818;stroke-width:1;" x1="1640.2001" x2="1640.2001" y1="1633.6604" y2="1646.6604"/><line style="stroke:#181818;stroke-width:1;" x1="1599.2001" x2="1640.2001" y1="1646.6604" y2="1646.6604"/><polygon fill="#181818" points="1609.2001,1642.6604,1599.2001,1646.6604,1609.2001,1650.6604,1605.2001,1646.6604" style="stroke:#181818;stroke-width:1;"/><text fill="#000000" font-family="sans-serif" font-size="13" lengthAdjust="spacing" textLength="88.9071" x="1605.2001" y="1627.8514">enterPressed()</text><polygon fill="#181818" points="11,1718.3665,1,1722.3665,11,1726.3665,7,1722.3665" style="stroke:#181818;stroke-width:1;"/><line style="stroke:#181818;stroke-width:1;stroke-dasharray:2.0,2.0;" x1="5" x2="1587.2001" y1="1722.3665" y2="1722.3665"/><text fill="#000000" font-family="sans-serif" font-size="13" font-style="italic" lengthAdjust="spacing" textLength="25.519" x="17" y="1716.5575">bool</text><!--SRC=[xLTTJzim57tlhx3sm0gYhUtOZeqs98ROa4R5kh7jeGyeIxoIBNEgn2r3GlljkqrAFnA75gG9QK9LfJQvzznpxEDhUnnaDWxZSM0iUj7NUHwCz0iKvEZu4cF296M-8WnpWR7F156YDUmSDhv41sYaxMMkJQIpzYuAKvFRLX3QU1fOtOmvNcNnETVPaeAdi682C-O9BBalC6Mjnl9tr1n9SseJ03V1Bzr0hh6Q2x5p_qZqUeDFDelDgDThHNfpdU6hJkUnU1i7zJY9jR6BOSKAUy9NL4XE8DvdX935pBfUbiCtcnhtoBa1xnGr8FPwCy2w72VOcfppy_w5_ctVPEdrcbkeL499IZZrkSU5p-XIbkiba5Y7QW- -nX4eHNkx5MkueAlJu8fPutqq7YTn6DWuDQU1YP8LxXXpHXdrVEfxofTCAhKo9OwNmBqEryZV2LyTqp9tTVt3Xn7ECQSUfnooMerqbgkXbbGESudUFCAkQdMZFvnHW_l0nKQ7zYBzfBCfZ5pXQZGuJNDx54KPz4AqinyRkxk5qnziuBDq59lbt7kIKX_iegJYGZ11wHQo74aWgq1kje6hKfMzAsQD_KSzYdExQjwPMEfHngLYYd9O1MAp04SI2BW3RzRWAbRLu8fPq_0XAwBdUrw-D3qXt6TCOaoL9uXa862pwHr98ALIezdwhffLwxjYrXG54ti5JNxU48xJIAyOZ4a2MPnAK80b5HxVmc3r911LBtEFsnnbQsvx33LtFyolOnjUNQJpJkDOlAukM2NaYdacz4peloEqJSpYz2HWFw34anxniUSfJgGiEbngqp1D-e613dUtYLQUefrgltE0rVgTAsRuP8UCuLDDqXRthKo7Efu-wCRrV8NQvWerlF-aycTnLFad9vGJ0z3lzStREB7hbnpiOTWjYHGKSombLwkNdDfBOAgdi6ENEEt1-RSVSEv5U_k3azbZrrMdNY18R8dIERGtuzdaltwDIe230o3vONPWBg9-wfkJCX1-pUFAcCkFsauoWsvlxmigPBSQnMmGEaikkEYelOsk-XMk7gDDL7oNzd8Nx_M-fMdYy9OBjFNodJOwWvW8GVEuGc4Ic55dyYlPHx2MSpXR8TmLNTnwUNRsfRzuLeGj_X7P9Ls9sczrb6R1_6-7TB-73E_-1G00]--></g></svg>