<svg xmlns="http://www.w3.org/2000/svg" xmlns:xlink="http://www.w3.org/1999/xlink" contentStyleType="text/css" data-diagram-type="SEQUENCE" height="1830px" preserveAspectRatio="none" style="width:884px;height:1830px;background:#FFFFFF;" version="1.1" viewBox="0 0 884 1830" width="884px" zoomAndPan="magnify"><defs/><g><g><title>dbHandler</title><rect fill="#FFFFFF" height="31.706" style="stroke:#181818;stroke-width:1;" width="10" x="437.1193" y="72.7739"/></g><g><title>dbHandler</title><rect fill="#FFFFFF" height="140.118" style="stroke:#181818;stroke-width:1;" width="10" x="437.1193" y="136.186"/></g><g><title>dbHandler</title><rect fill="#FFFFFF" height="28" style="stroke:#181818;stroke-width:1;" width="10" x="442.1193" y="202.598"/></g><g><title>dbHandler</title><rect fill="#FFFFFF" height="31.706" style="stroke:#181818;stroke-width:1;" width="10" x="437.1193" y="308.01"/></g><g><title>dbHandler</title><rect fill="#FFFFFF" height="31.706" style="stroke:#181818;stroke-width:1;" width="10" x="437.1193" y="371.4221"/></g><g><title>dbHandler</title><rect fill="#FFFFFF" height="31.706" style="stroke:#181818;stroke-width:1;" width="10" x="437.1193" y="434.8341"/></g><g><title>dbHandler</title><rect fill="#FFFFFF" height="31.706" style="stroke:#181818;stroke-width:1;" width="10" x="437.1193" y="498.2461"/></g><g><title>dbHandler</title><rect fill="#FFFFFF" height="31.706" style="stroke:#181818;stroke-width:1;" width="10" x="437.1193" y="561.6582"/></g><g><title>dbHandler</title><rect fill="#FFFFFF" height="31.706" style="stroke:#181818;stroke-width:1;" width="10" x="437.1193" y="625.0702"/></g><g><title>dbHandler</title><rect fill="#FFFFFF" height="31.706" style="stroke:#181818;stroke-width:1;" width="10" x="437.1193" y="688.4822"/></g><g><title>dbHandler</title><rect fill="#FFFFFF" height="277.9421" style="stroke:#181818;stroke-width:1;" width="10" x="437.1193" y="751.8943"/></g><g><title>dbHandler</title><rect fill="#FFFFFF" height="42.706" style="stroke:#181818;stroke-width:1;" width="10" x="442.1193" y="818.3063"/></g><g><title>dbHandler</title><rect fill="#FFFFFF" height="42.706" style="stroke:#181818;stroke-width:1;" width="10" x="442.1193" y="941.4243"/></g><g><title>dbHandler</title><rect fill="#FFFFFF" height="210.5301" style="stroke:#181818;stroke-width:1;" width="10" x="437.1193" y="1061.5424"/></g><g><title>dbHandler</title><rect fill="#FFFFFF" height="42.706" style="stroke:#181818;stroke-width:1;" width="10" x="442.1193" y="1101.2484"/></g><g><title>dbHandler</title><rect fill="#FFFFFF" height="42.706" style="stroke:#181818;stroke-width:1;" width="10" x="442.1193" y="1190.6604"/></g><g><title>dbHandler</title><rect fill="#FFFFFF" height="30" style="stroke:#181818;stroke-width:1;" width="10" x="437.1193" y="1303.7785"/></g><g><title>dbHandler</title><rect fill="#FFFFFF" height="31.706" style="stroke:#181818;stroke-width:1;" width="10" x="437.1193" y="1365.4845"/></g><g><title>dbHandler</title><rect fill="#FFFFFF" height="31.706" style="stroke:#181818;stroke-width:1;" width="10" x="437.1193" y="1428.8965"/></g><g><title>dbHandler</title><rect fill="#FFFFFF" height="31.706" style="stroke:#181818;stroke-width:1;" width="10" x="437.1193" y="1492.3086"/></g><g><title>dbHandler</title><rect fill="#FFFFFF" height="30" style="stroke:#181818;stroke-width:1;" width="10" x="437.1193" y="1555.7206"/></g><g><title>dbHandler</title><rect fill="#FFFFFF" height="30" style="stroke:#181818;stroke-width:1;" width="10" x="437.1193" y="1617.4266"/></g><g><title>dbHandler</title><rect fill="#FFFFFF" height="31.706" style="stroke:#181818;stroke-width:1;" width="10" x="437.1193" y="1679.1326"/></g><g><title>dbHandler</title><rect fill="#FFFFFF" height="31.706" style="stroke:#181818;stroke-width:1;" width="10" x="437.1193" y="1742.5447"/></g><rect fill="transparent" height="94.412" style="stroke:#000000;stroke-width:1.5;" width="200.2791" x="390.1195" y="151.186"/><rect fill="transparent" height="109.118" style="stroke:#000000;stroke-width:1.5;" width="438.2172" x="390.1195" y="766.8943"/><rect fill="transparent" height="109.118" style="stroke:#000000;stroke-width:1.5;" width="438.2172" x="390.1195" y="890.0123"/><g><title>dbHandler</title><rect fill="transparent" height="1753.1828" width="8" x="438.1193" y="39.0679"/><line style="stroke:#181818;stroke-width:0.5;stroke-dasharray:5.0,5.0;" x1="441.1195" x2="441.1195" y1="39.0679" y2="1792.2507"/></g><rect fill="#E2E2F0" height="33.0679" rx="2.5" ry="2.5" style="stroke:#181818;stroke-width:0.5;" width="83.9997" x="400.1195" y="5"/><text fill="#000000" font-family="sans-serif" font-size="14" lengthAdjust="spacing" textLength="69.9997" x="407.1195" y="26.9659">dbHandler</text><rect fill="#E2E2F0" height="33.0679" rx="2.5" ry="2.5" style="stroke:#181818;stroke-width:0.5;" width="83.9997" x="400.1195" y="1791.2507"/><text fill="#000000" font-family="sans-serif" font-size="14" lengthAdjust="spacing" textLength="69.9997" x="407.1195" y="1813.2166">dbHandler</text><g><title>dbHandler</title><rect fill="#FFFFFF" height="31.706" style="stroke:#181818;stroke-width:1;" width="10" x="437.1193" y="72.7739"/></g><g><title>dbHandler</title><rect fill="#FFFFFF" height="140.118" style="stroke:#181818;stroke-width:1;" width="10" x="437.1193" y="136.186"/></g><g><title>dbHandler</title><rect fill="#FFFFFF" height="28" style="stroke:#181818;stroke-width:1;" width="10" x="442.1193" y="202.598"/></g><g><title>dbHandler</title><rect fill="#FFFFFF" height="31.706" style="stroke:#181818;stroke-width:1;" width="10" x="437.1193" y="308.01"/></g><g><title>dbHandler</title><rect fill="#FFFFFF" height="31.706" style="stroke:#181818;stroke-width:1;" width="10" x="437.1193" y="371.4221"/></g><g><title>dbHandler</title><rect fill="#FFFFFF" height="31.706" style="stroke:#181818;stroke-width:1;" width="10" x="437.1193" y="434.8341"/></g><g><title>dbHandler</title><rect fill="#FFFFFF" height="31.706" style="stroke:#181818;stroke-width:1;" width="10" x="437.1193" y="498.2461"/></g><g><title>dbHandler</title><rect fill="#FFFFFF" height="31.706" style="stroke:#181818;stroke-width:1;" width="10" x="437.1193" y="561.6582"/></g><g><title>dbHandler</title><rect fill="#FFFFFF" height="31.706" style="stroke:#181818;stroke-width:1;" width="10" x="437.1193" y="625.0702"/></g><g><title>dbHandler</title><rect fill="#FFFFFF" height="31.706" style="stroke:#181818;stroke-width:1;" width="10" x="437.1193" y="688.4822"/></g><g><title>dbHandler</title><rect fill="#FFFFFF" height="277.9421" style="stroke:#181818;stroke-width:1;" width="10" x="437.1193" y="751.8943"/></g><g><title>dbHandler</title><rect fill="#FFFFFF" height="42.706" style="stroke:#181818;stroke-width:1;" width="10" x="442.1193" y="818.3063"/></g><g><title>dbHandler</title><rect fill="#FFFFFF" height="42.706" style="stroke:#181818;stroke-width:1;" width="10" x="442.1193" y="941.4243"/></g><g><title>dbHandler</title><rect fill="#FFFFFF" height="210.5301" style="stroke:#181818;stroke-width:1;" width="10" x="437.1193" y="1061.5424"/></g><g><title>dbHandler</title><rect fill="#FFFFFF" height="42.706" style="stroke:#181818;stroke-width:1;" width="10" x="442.1193" y="1101.2484"/></g><g><title>dbHandler</title><rect fill="#FFFFFF" height="42.706" style="stroke:#181818;stroke-width:1;" width="10" x="442.1193" y="1190.6604"/></g><g><title>dbHandler</title><rect fill="#FFFFFF" height="30" style="stroke:#181818;stroke-width:1;" width="10" x="437.1193" y="1303.7785"/></g><g><title>dbHandler</title><rect fill="#FFFFFF" height="31.706" style="stroke:#181818;stroke-width:1;" width="10" x="437.1193" y="1365.4845"/></g><g><title>dbHandler</title><rect fill="#FFFFFF" height="31.706" style="stroke:#181818;stroke-width:1;" width="10" x="437.1193" y="1428.8965"/></g><g><title>dbHandler</title><rect fill="#FFFFFF" height="31.706" style="stroke:#181818;stroke-width:1;" width="10" x="437.1193" y="1492.3086"/></g><g><title>dbHandler</title><rect fill="#FFFFFF" height="30" style="stroke:#181818;stroke-width:1;" width="10" x="437.1193" y="1555.7206"/></g><g><title>dbHandler</title><rect fill="#FFFFFF" height="30" style="stroke:#181818;stroke-width:1;" width="10" x="437.1193" y="1617.4266"/></g><g><title>dbHandler</title><rect fill="#FFFFFF" height="31.706" style="stroke:#181818;stroke-width:1;" width="10" x="437.1193" y="1679.1326"/></g><g><title>dbHandler</title><rect fill="#FFFFFF" height="31.706" style="stroke:#181818;stroke-width:1;" width="10" x="437.1193" y="1742.5447"/></g><polygon fill="#181818" points="425.1193,68.7739,435.1193,72.7739,425.1193,76.7739,429.1193,72.7739" style="stroke:#181818;stroke-width:1;"/><line style="stroke:#181818;stroke-width:1;" x1="0" x2="431.1193" y1="72.7739" y2="72.7739"/><text fill="#000000" font-family="sans-serif" font-size="13" lengthAdjust="spacing" textLength="173.9402" x="7" y="66.9649">removeReg(const QString &amp;)</text><polygon fill="#181818" points="11,100.4799,1,104.4799,11,108.4799,7,104.4799" style="stroke:#181818;stroke-width:1;"/><line style="stroke:#181818;stroke-width:1;stroke-dasharray:2.0,2.0;" x1="5" x2="441.1193" y1="104.4799" y2="104.4799"/><text fill="#000000" font-family="sans-serif" font-size="13" font-style="italic" lengthAdjust="spacing" textLength="25.519" x="17" y="98.6709">bool</text><polygon fill="#181818" points="425.1193,132.186,435.1193,136.186,425.1193,140.186,429.1193,136.186" style="stroke:#181818;stroke-width:1;"/><line style="stroke:#181818;stroke-width:1;" x1="0" x2="431.1193" y1="136.186" y2="136.186"/><text fill="#000000" font-family="sans-serif" font-size="13" lengthAdjust="spacing" textLength="81.5491" x="7" y="130.377">GetInstance()</text><path d="M390.1195,151.186 L452.5785,151.186 L452.5785,160.892 L442.5785,170.892 L390.1195,170.892 L390.1195,151.186 " fill="#EEEEEE" style="stroke:#000000;stroke-width:1.5;"/><rect fill="transparent" height="94.412" style="stroke:#000000;stroke-width:1.5;" width="200.2791" x="390.1195" y="151.186"/><text fill="#000000" font-family="sans-serif" font-size="13" font-weight="bold" lengthAdjust="spacing" textLength="17.459" x="405.1195" y="166.083">alt</text><text fill="#000000" font-family="sans-serif" font-size="11" font-weight="bold" lengthAdjust="spacing" textLength="117.8201" x="467.5785" y="164.9449">[dbHandler_ == NULL]</text><line style="stroke:#181818;stroke-width:1;" x1="452.1193" x2="494.1193" y1="194.598" y2="194.598"/><line style="stroke:#181818;stroke-width:1;" x1="494.1193" x2="494.1193" y1="194.598" y2="207.598"/><line style="stroke:#181818;stroke-width:1;" x1="453.1193" x2="494.1193" y1="207.598" y2="207.598"/><polygon fill="#181818" points="463.1193,203.598,453.1193,207.598,463.1193,211.598,459.1193,207.598" style="stroke:#181818;stroke-width:1;"/><text fill="#000000" font-family="sans-serif" font-size="13" lengthAdjust="spacing" textLength="72.8001" x="459.1193" y="188.789">dbHandler()</text><polygon fill="#181818" points="11,272.304,1,276.304,11,280.304,7,276.304" style="stroke:#181818;stroke-width:1;"/><line style="stroke:#181818;stroke-width:1;stroke-dasharray:2.0,2.0;" x1="5" x2="441.1193" y1="276.304" y2="276.304"/><text fill="#000000" font-family="sans-serif" font-size="13" font-style="italic" lengthAdjust="spacing" textLength="71.8901" x="17" y="270.495">dbHandler *</text><polygon fill="#181818" points="425.1193,304.01,435.1193,308.01,425.1193,312.01,429.1193,308.01" style="stroke:#181818;stroke-width:1;"/><line style="stroke:#181818;stroke-width:1;" x1="0" x2="431.1193" y1="308.01" y2="308.01"/><text fill="#000000" font-family="sans-serif" font-size="13" lengthAdjust="spacing" textLength="283.1403" x="7" y="302.201">loginValidate(const QString &amp;,const QString &amp;)</text><polygon fill="#181818" points="11,335.716,1,339.716,11,343.716,7,339.716" style="stroke:#181818;stroke-width:1;"/><line style="stroke:#181818;stroke-width:1;stroke-dasharray:2.0,2.0;" x1="5" x2="441.1193" y1="339.716" y2="339.716"/><text fill="#000000" font-family="sans-serif" font-size="13" font-style="italic" lengthAdjust="spacing" textLength="25.519" x="17" y="333.907">bool</text><polygon fill="#181818" points="425.1193,367.4221,435.1193,371.4221,425.1193,375.4221,429.1193,371.4221" style="stroke:#181818;stroke-width:1;"/><line style="stroke:#181818;stroke-width:1;" x1="0" x2="431.1193" y1="371.4221" y2="371.4221"/><text fill="#000000" font-family="sans-serif" font-size="13" lengthAdjust="spacing" textLength="218.6472" x="7" y="365.6131">getFriendRequests(const QString &amp;)</text><polygon fill="#181818" points="11,399.1281,1,403.1281,11,407.1281,7,403.1281" style="stroke:#181818;stroke-width:1;"/><line style="stroke:#181818;stroke-width:1;stroke-dasharray:2.0,2.0;" x1="5" x2="441.1193" y1="403.1281" y2="403.1281"/><text fill="#000000" font-family="sans-serif" font-size="13" font-style="italic" lengthAdjust="spacing" textLength="63.3361" x="17" y="397.3191">QStringList</text><polygon fill="#181818" points="425.1193,430.8341,435.1193,434.8341,425.1193,438.8341,429.1193,434.8341" style="stroke:#181818;stroke-width:1;"/><line style="stroke:#181818;stroke-width:1;" x1="0" x2="431.1193" y1="434.8341" y2="434.8341"/><text fill="#000000" font-family="sans-serif" font-size="13" lengthAdjust="spacing" textLength="186.5762" x="7" y="429.0251">getFriendslist(const QString &amp;)</text><polygon fill="#181818" points="11,462.5401,1,466.5401,11,470.5401,7,466.5401" style="stroke:#181818;stroke-width:1;"/><line style="stroke:#181818;stroke-width:1;stroke-dasharray:2.0,2.0;" x1="5" x2="441.1193" y1="466.5401" y2="466.5401"/><text fill="#000000" font-family="sans-serif" font-size="13" font-style="italic" lengthAdjust="spacing" textLength="63.3361" x="17" y="460.7311">QStringList</text><polygon fill="#181818" points="425.1193,494.2461,435.1193,498.2461,425.1193,502.2461,429.1193,498.2461" style="stroke:#181818;stroke-width:1;"/><line style="stroke:#181818;stroke-width:1;" x1="0" x2="431.1193" y1="498.2461" y2="498.2461"/><text fill="#000000" font-family="sans-serif" font-size="13" lengthAdjust="spacing" textLength="195.0132" x="7" y="492.4371">availUsername(const QString &amp;)</text><polygon fill="#181818" points="11,525.9521,1,529.9521,11,533.9521,7,529.9521" style="stroke:#181818;stroke-width:1;"/><line style="stroke:#181818;stroke-width:1;stroke-dasharray:2.0,2.0;" x1="5" x2="441.1193" y1="529.9521" y2="529.9521"/><text fill="#000000" font-family="sans-serif" font-size="13" font-style="italic" lengthAdjust="spacing" textLength="25.519" x="17" y="524.1431">bool</text><polygon fill="#181818" points="425.1193,557.6582,435.1193,561.6582,425.1193,565.6582,429.1193,561.6582" style="stroke:#181818;stroke-width:1;"/><line style="stroke:#181818;stroke-width:1;" x1="0" x2="431.1193" y1="561.6582" y2="561.6582"/><text fill="#000000" font-family="sans-serif" font-size="13" lengthAdjust="spacing" textLength="418.1193" x="7" y="555.8492">newUser(const QString &amp;,const QString &amp;,const QString &amp;,bool,bool)</text><polygon fill="#181818" points="11,589.3642,1,593.3642,11,597.3642,7,593.3642" style="stroke:#181818;stroke-width:1;"/><line style="stroke:#181818;stroke-width:1;stroke-dasharray:2.0,2.0;" x1="5" x2="441.1193" y1="593.3642" y2="593.3642"/><text fill="#000000" font-family="sans-serif" font-size="13" font-style="italic" lengthAdjust="spacing" textLength="43.836" x="17" y="587.5552">QString</text><polygon fill="#181818" points="425.1193,621.0702,435.1193,625.0702,425.1193,629.0702,429.1193,625.0702" style="stroke:#181818;stroke-width:1;"/><line style="stroke:#181818;stroke-width:1;" x1="0" x2="431.1193" y1="625.0702" y2="625.0702"/><text fill="#000000" font-family="sans-serif" font-size="13" lengthAdjust="spacing" textLength="268.4763" x="7" y="619.2612">areFriends(const QString &amp;,const QString &amp;)</text><polygon fill="#181818" points="11,652.7762,1,656.7762,11,660.7762,7,656.7762" style="stroke:#181818;stroke-width:1;"/><line style="stroke:#181818;stroke-width:1;stroke-dasharray:2.0,2.0;" x1="5" x2="441.1193" y1="656.7762" y2="656.7762"/><text fill="#000000" font-family="sans-serif" font-size="13" font-style="italic" lengthAdjust="spacing" textLength="25.519" x="17" y="650.9672">bool</text><polygon fill="#181818" points="425.1193,684.4822,435.1193,688.4822,425.1193,692.4822,429.1193,688.4822" style="stroke:#181818;stroke-width:1;"/><line style="stroke:#181818;stroke-width:1;" x1="0" x2="431.1193" y1="688.4822" y2="688.4822"/><text fill="#000000" font-family="sans-serif" font-size="13" lengthAdjust="spacing" textLength="165.4382" x="7" y="682.6732">userExists(const QString &amp;)</text><polygon fill="#181818" points="11,716.1882,1,720.1882,11,724.1882,7,720.1882" style="stroke:#181818;stroke-width:1;"/><line style="stroke:#181818;stroke-width:1;stroke-dasharray:2.0,2.0;" x1="5" x2="441.1193" y1="720.1882" y2="720.1882"/><text fill="#000000" font-family="sans-serif" font-size="13" font-style="italic" lengthAdjust="spacing" textLength="25.519" x="17" y="714.3792">bool</text><polygon fill="#181818" points="425.1193,747.8943,435.1193,751.8943,425.1193,755.8943,429.1193,751.8943" style="stroke:#181818;stroke-width:1;"/><line style="stroke:#181818;stroke-width:1;" x1="0" x2="431.1193" y1="751.8943" y2="751.8943"/><text fill="#000000" font-family="sans-serif" font-size="13" lengthAdjust="spacing" textLength="265.5383" x="7" y="746.0853">addFriend(const QString &amp;,const QString &amp;)</text><path d="M390.1195,766.8943 L452.5785,766.8943 L452.5785,776.6003 L442.5785,786.6003 L390.1195,786.6003 L390.1195,766.8943 " fill="#EEEEEE" style="stroke:#000000;stroke-width:1.5;"/><rect fill="transparent" height="109.118" style="stroke:#000000;stroke-width:1.5;" width="438.2172" x="390.1195" y="766.8943"/><text fill="#000000" font-family="sans-serif" font-size="13" font-weight="bold" lengthAdjust="spacing" textLength="17.459" x="405.1195" y="781.7913">alt</text><text fill="#000000" font-family="sans-serif" font-size="11" font-weight="bold" lengthAdjust="spacing" textLength="172.5557" x="467.5785" y="780.6532">[!removeFriendRequest(u1, u2)]</text><line style="stroke:#181818;stroke-width:1;" x1="447.1193" x2="494.1193" y1="805.3063" y2="805.3063"/><line style="stroke:#181818;stroke-width:1;" x1="494.1193" x2="494.1193" y1="805.3063" y2="818.3063"/><line style="stroke:#181818;stroke-width:1;" x1="453.1193" x2="494.1193" y1="818.3063" y2="818.3063"/><polygon fill="#181818" points="463.1193,814.3063,453.1193,818.3063,463.1193,822.3063,459.1193,818.3063" style="stroke:#181818;stroke-width:1;"/><text fill="#000000" font-family="sans-serif" font-size="13" font-weight="bold" lengthAdjust="spacing" textLength="4.303" x="459.1193" y="799.4973">[</text><text fill="#000000" font-family="sans-serif" font-size="13" lengthAdjust="spacing" textLength="338.6113" x="463.4223" y="799.4973">removeFriendRequest(const QString &amp;,const QString &amp;)</text><text fill="#000000" font-family="sans-serif" font-size="13" font-weight="bold" lengthAdjust="spacing" textLength="4.303" x="802.0337" y="799.4973">]</text><line style="stroke:#181818;stroke-width:1;stroke-dasharray:2.0,2.0;" x1="452.1193" x2="494.1193" y1="860.0123" y2="860.0123"/><line style="stroke:#181818;stroke-width:1;stroke-dasharray:2.0,2.0;" x1="494.1193" x2="494.1193" y1="860.0123" y2="873.0123"/><line style="stroke:#181818;stroke-width:1;stroke-dasharray:2.0,2.0;" x1="447.1193" x2="494.1193" y1="873.0123" y2="873.0123"/><polygon fill="#181818" points="457.1193,869.0123,447.1193,873.0123,457.1193,877.0123,453.1193,873.0123" style="stroke:#181818;stroke-width:1;"/><text fill="#000000" font-family="sans-serif" font-size="13" font-style="italic" lengthAdjust="spacing" textLength="25.519" x="459.1193" y="854.2033">bool</text><path d="M390.1195,890.0123 L452.5785,890.0123 L452.5785,899.7183 L442.5785,909.7183 L390.1195,909.7183 L390.1195,890.0123 " fill="#EEEEEE" style="stroke:#000000;stroke-width:1.5;"/><rect fill="transparent" height="109.118" style="stroke:#000000;stroke-width:1.5;" width="438.2172" x="390.1195" y="890.0123"/><text fill="#000000" font-family="sans-serif" font-size="13" font-weight="bold" lengthAdjust="spacing" textLength="17.459" x="405.1195" y="904.9093">alt</text><text fill="#000000" font-family="sans-serif" font-size="11" font-weight="bold" lengthAdjust="spacing" textLength="172.5557" x="467.5785" y="903.7712">[!removeFriendRequest(u2, u1)]</text><line style="stroke:#181818;stroke-width:1;" x1="447.1193" x2="494.1193" y1="928.4243" y2="928.4243"/><line style="stroke:#181818;stroke-width:1;" x1="494.1193" x2="494.1193" y1="928.4243" y2="941.4243"/><line style="stroke:#181818;stroke-width:1;" x1="453.1193" x2="494.1193" y1="941.4243" y2="941.4243"/><polygon fill="#181818" points="463.1193,937.4243,453.1193,941.4243,463.1193,945.4243,459.1193,941.4243" style="stroke:#181818;stroke-width:1;"/><text fill="#000000" font-family="sans-serif" font-size="13" font-weight="bold" lengthAdjust="spacing" textLength="4.303" x="459.1193" y="922.6153">[</text><text fill="#000000" font-family="sans-serif" font-size="13" lengthAdjust="spacing" textLength="338.6113" x="463.4223" y="922.6153">removeFriendRequest(const QString &amp;,const QString &amp;)</text><text fill="#000000" font-family="sans-serif" font-size="13" font-weight="bold" lengthAdjust="spacing" textLength="4.303" x="802.0337" y="922.6153">]</text><line style="stroke:#181818;stroke-width:1;stroke-dasharray:2.0,2.0;" x1="452.1193" x2="494.1193" y1="983.1304" y2="983.1304"/><line style="stroke:#181818;stroke-width:1;stroke-dasharray:2.0,2.0;" x1="494.1193" x2="494.1193" y1="983.1304" y2="996.1304"/><line style="stroke:#181818;stroke-width:1;stroke-dasharray:2.0,2.0;" x1="447.1193" x2="494.1193" y1="996.1304" y2="996.1304"/><polygon fill="#181818" points="457.1193,992.1304,447.1193,996.1304,457.1193,1000.1304,453.1193,996.1304" style="stroke:#181818;stroke-width:1;"/><text fill="#000000" font-family="sans-serif" font-size="13" font-style="italic" lengthAdjust="spacing" textLength="25.519" x="459.1193" y="977.3214">bool</text><polygon fill="#181818" points="11,1025.8364,1,1029.8364,11,1033.8364,7,1029.8364" style="stroke:#181818;stroke-width:1;"/><line style="stroke:#181818;stroke-width:1;stroke-dasharray:2.0,2.0;" x1="5" x2="441.1193" y1="1029.8364" y2="1029.8364"/><text fill="#000000" font-family="sans-serif" font-size="13" font-style="italic" lengthAdjust="spacing" textLength="25.519" x="17" y="1024.0274">bool</text><polygon fill="#181818" points="425.1193,1057.5424,435.1193,1061.5424,425.1193,1065.5424,429.1193,1061.5424" style="stroke:#181818;stroke-width:1;"/><line style="stroke:#181818;stroke-width:1;" x1="0" x2="431.1193" y1="1061.5424" y2="1061.5424"/><text fill="#000000" font-family="sans-serif" font-size="13" lengthAdjust="spacing" textLength="286.0263" x="7" y="1055.7334">emailValidate(const QString &amp;,const QString &amp;)</text><line style="stroke:#181818;stroke-width:1;" x1="447.1193" x2="494.1193" y1="1088.2484" y2="1088.2484"/><line style="stroke:#181818;stroke-width:1;" x1="494.1193" x2="494.1193" y1="1088.2484" y2="1101.2484"/><line style="stroke:#181818;stroke-width:1;" x1="453.1193" x2="494.1193" y1="1101.2484" y2="1101.2484"/><polygon fill="#181818" points="463.1193,1097.2484,453.1193,1101.2484,463.1193,1105.2484,459.1193,1101.2484" style="stroke:#181818;stroke-width:1;"/><text fill="#000000" font-family="sans-serif" font-size="13" lengthAdjust="spacing" textLength="173.9402" x="459.1193" y="1082.4394">removeReg(const QString &amp;)</text><line style="stroke:#181818;stroke-width:1;stroke-dasharray:2.0,2.0;" x1="452.1193" x2="494.1193" y1="1142.9544" y2="1142.9544"/><line style="stroke:#181818;stroke-width:1;stroke-dasharray:2.0,2.0;" x1="494.1193" x2="494.1193" y1="1142.9544" y2="1155.9544"/><line style="stroke:#181818;stroke-width:1;stroke-dasharray:2.0,2.0;" x1="447.1193" x2="494.1193" y1="1155.9544" y2="1155.9544"/><polygon fill="#181818" points="457.1193,1151.9544,447.1193,1155.9544,457.1193,1159.9544,453.1193,1155.9544" style="stroke:#181818;stroke-width:1;"/><text fill="#000000" font-family="sans-serif" font-size="13" font-style="italic" lengthAdjust="spacing" textLength="25.519" x="459.1193" y="1137.1454">bool</text><line style="stroke:#181818;stroke-width:1;" x1="447.1193" x2="494.1193" y1="1177.6604" y2="1177.6604"/><line style="stroke:#181818;stroke-width:1;" x1="494.1193" x2="494.1193" y1="1177.6604" y2="1190.6604"/><line style="stroke:#181818;stroke-width:1;" x1="453.1193" x2="494.1193" y1="1190.6604" y2="1190.6604"/><polygon fill="#181818" points="463.1193,1186.6604,453.1193,1190.6604,463.1193,1194.6604,459.1193,1190.6604" style="stroke:#181818;stroke-width:1;"/><text fill="#000000" font-family="sans-serif" font-size="13" lengthAdjust="spacing" textLength="418.1193" x="459.1193" y="1171.8514">newUser(const QString &amp;,const QString &amp;,const QString &amp;,bool,bool)</text><line style="stroke:#181818;stroke-width:1;stroke-dasharray:2.0,2.0;" x1="452.1193" x2="494.1193" y1="1232.3665" y2="1232.3665"/><line style="stroke:#181818;stroke-width:1;stroke-dasharray:2.0,2.0;" x1="494.1193" x2="494.1193" y1="1232.3665" y2="1245.3665"/><line style="stroke:#181818;stroke-width:1;stroke-dasharray:2.0,2.0;" x1="447.1193" x2="494.1193" y1="1245.3665" y2="1245.3665"/><polygon fill="#181818" points="457.1193,1241.3665,447.1193,1245.3665,457.1193,1249.3665,453.1193,1245.3665" style="stroke:#181818;stroke-width:1;"/><text fill="#000000" font-family="sans-serif" font-size="13" font-style="italic" lengthAdjust="spacing" textLength="43.836" x="459.1193" y="1226.5575">QString</text><polygon fill="#181818" points="11,1268.0725,1,1272.0725,11,1276.0725,7,1272.0725" style="stroke:#181818;stroke-width:1;"/><line style="stroke:#181818;stroke-width:1;stroke-dasharray:2.0,2.0;" x1="5" x2="441.1193" y1="1272.0725" y2="1272.0725"/><text fill="#000000" font-family="sans-serif" font-size="13" font-style="italic" lengthAdjust="spacing" textLength="25.519" x="17" y="1266.2635">bool</text><polygon fill="#181818" points="425.1193,1299.7785,435.1193,1303.7785,425.1193,1307.7785,429.1193,1303.7785" style="stroke:#181818;stroke-width:1;"/><line style="stroke:#181818;stroke-width:1;" x1="0" x2="431.1193" y1="1303.7785" y2="1303.7785"/><text fill="#000000" font-family="sans-serif" font-size="13" lengthAdjust="spacing" textLength="63.4661" x="7" y="1297.9695">cleanReg()</text><polygon fill="#181818" points="425.1193,1361.4845,435.1193,1365.4845,425.1193,1369.4845,429.1193,1365.4845" style="stroke:#181818;stroke-width:1;"/><line style="stroke:#181818;stroke-width:1;" x1="0" x2="431.1193" y1="1365.4845" y2="1365.4845"/><text fill="#000000" font-family="sans-serif" font-size="13" lengthAdjust="spacing" textLength="315.2374" x="7" y="1359.6755">addFriendRequest(const QString &amp;,const QString &amp;)</text><polygon fill="#181818" points="11,1393.1905,1,1397.1905,11,1401.1905,7,1397.1905" style="stroke:#181818;stroke-width:1;"/><line style="stroke:#181818;stroke-width:1;stroke-dasharray:2.0,2.0;" x1="5" x2="441.1193" y1="1397.1905" y2="1397.1905"/><text fill="#000000" font-family="sans-serif" font-size="13" font-style="italic" lengthAdjust="spacing" textLength="25.519" x="17" y="1391.3815">bool</text><polygon fill="#181818" points="425.1193,1424.8965,435.1193,1428.8965,425.1193,1432.8965,429.1193,1428.8965" style="stroke:#181818;stroke-width:1;"/><line style="stroke:#181818;stroke-width:1;" x1="0" x2="431.1193" y1="1428.8965" y2="1428.8965"/><text fill="#000000" font-family="sans-serif" font-size="13" lengthAdjust="spacing" textLength="288.9123" x="7" y="1423.0875">removeFriend(const QString &amp;,const QString &amp;)</text><polygon fill="#181818" points="11,1456.6026,1,1460.6026,11,1464.6026,7,1460.6026" style="stroke:#181818;stroke-width:1;"/><line style="stroke:#181818;stroke-width:1;stroke-dasharray:2.0,2.0;" x1="5" x2="441.1193" y1="1460.6026" y2="1460.6026"/><text fill="#000000" font-family="sans-serif" font-size="13" font-style="italic" lengthAdjust="spacing" textLength="25.519" x="17" y="1454.7936">bool</text><polygon fill="#181818" points="425.1193,1488.3086,435.1193,1492.3086,425.1193,1496.3086,429.1193,1492.3086" style="stroke:#181818;stroke-width:1;"/><line style="stroke:#181818;stroke-width:1;" x1="0" x2="431.1193" y1="1492.3086" y2="1492.3086"/><text fill="#000000" font-family="sans-serif" font-size="13" lengthAdjust="spacing" textLength="218.4132" x="7" y="1486.4996">storeMessage(const QJsonObject &amp;)</text><polygon fill="#181818" points="11,1520.0146,1,1524.0146,11,1528.0146,7,1524.0146" style="stroke:#181818;stroke-width:1;"/><line style="stroke:#181818;stroke-width:1;stroke-dasharray:2.0,2.0;" x1="5" x2="441.1193" y1="1524.0146" y2="1524.0146"/><text fill="#000000" font-family="sans-serif" font-size="13" font-style="italic" lengthAdjust="spacing" textLength="25.519" x="17" y="1518.2056">bool</text><polygon fill="#181818" points="425.1193,1551.7206,435.1193,1555.7206,425.1193,1559.7206,429.1193,1555.7206" style="stroke:#181818;stroke-width:1;"/><line style="stroke:#181818;stroke-width:1;" x1="0" x2="431.1193" y1="1555.7206" y2="1555.7206"/><text fill="#000000" font-family="sans-serif" font-size="13" lengthAdjust="spacing" textLength="72.8001" x="7" y="1549.9116">dbHandler()</text><polygon fill="#181818" points="425.1193,1613.4266,435.1193,1617.4266,425.1193,1621.4266,429.1193,1617.4266" style="stroke:#181818;stroke-width:1;"/><line style="stroke:#181818;stroke-width:1;" x1="0" x2="431.1193" y1="1617.4266" y2="1617.4266"/><text fill="#000000" font-family="sans-serif" font-size="13" lengthAdjust="spacing" textLength="106.1711" x="7" y="1611.6176">destroyInstance()</text><polygon fill="#181818" points="425.1193,1675.1326,435.1193,1679.1326,425.1193,1683.1326,429.1193,1679.1326" style="stroke:#181818;stroke-width:1;"/><line style="stroke:#181818;stroke-width:1;" x1="0" x2="431.1193" y1="1679.1326" y2="1679.1326"/><text fill="#000000" font-family="sans-serif" font-size="13" lengthAdjust="spacing" textLength="338.6113" x="7" y="1673.3236">removeFriendRequest(const QString &amp;,const QString &amp;)</text><polygon fill="#181818" points="11,1706.8387,1,1710.8387,11,1714.8387,7,1710.8387" style="stroke:#181818;stroke-width:1;"/><line style="stroke:#181818;stroke-width:1;stroke-dasharray:2.0,2.0;" x1="5" x2="441.1193" y1="1710.8387" y2="1710.8387"/><text fill="#000000" font-family="sans-serif" font-size="13" font-style="italic" lengthAdjust="spacing" textLength="25.519" x="17" y="1705.0297">bool</text><polygon fill="#181818" points="425.1193,1738.5447,435.1193,1742.5447,425.1193,1746.5447,429.1193,1742.5447" style="stroke:#181818;stroke-width:1;"/><line style="stroke:#181818;stroke-width:1;" x1="0" x2="431.1193" y1="1742.5447" y2="1742.5447"/><text fill="#000000" font-family="sans-serif" font-size="13" lengthAdjust="spacing" textLength="322.9983" x="7" y="1736.7357">getMessages(const QString &amp;,const QString &amp;,int,int)</text><polygon fill="#181818" points="11,1770.2507,1,1774.2507,11,1778.2507,7,1774.2507" style="stroke:#181818;stroke-width:1;"/><line style="stroke:#181818;stroke-width:1;stroke-dasharray:2.0,2.0;" x1="5" x2="441.1193" y1="1774.2507" y2="1774.2507"/><text fill="#000000" font-family="sans-serif" font-size="13" font-style="italic" lengthAdjust="spacing" textLength="43.836" x="17" y="1768.4417">QString</text><!--SRC=[xLTTJzim57tFh_1uWDPgKgUi94Ambsamfi0q4BmWXDpuadboRMOxPVltSw2AzjKqBQPhfJqaaXFhtkDpZ-_7FTMMv_oUIekssEWzbKo0taBKeBUtX90aJaaoI7T9EaoIP4Z8C0wkmpSpVw9zf66i9d0EHITNqbZqwS9gBWkqtGreRlc4McYmVH26JSRx_P5IejyF6BGmrWpq6Eo90qXb3fqssAYmgARe5XqUehFBB0jcUcZsNbjgvRlDSK6o5lpLVX7sGwDG1PTNL73chFmUyzwQQw00UwIvO-uSlfPWh7aPqKxDPTnOpxYDS3Ot13ITK2uk3MX9nx3ksK72GmLrdg3_M5S87bzUW-0f01gcgjcqUrgwKBpxnb_iWlf3IXbxujW7nLN9UVLKK7z9Kvqoxg5oq5ss-61yZV7VxCx3ZF4DnYs0pyRL36oXI5G5RpP30yTG_9-XbOeVnYx3- -m5bepUithGbKHcoOEjf2ejJy22rMg5oim5K5a9mbUttROCjCqRQrR6VavzcuRTMANX58oXHPs4FXWbFuw-G6xN3w__KN2UGoT8hRulDFrwrjI6NWitTqs5DRU5xd5fg-TVp071pZ58q6uFGm_SVdRfZyeYBCUYXoQW3LSIaMWl8i5EbbsTrjyUjzMhE8tYA4MT8s1Aq-aoZAEx_3Nf_W00]--></g></svg>