<svg xmlns="http://www.w3.org/2000/svg" xmlns:xlink="http://www.w3.org/1999/xlink" contentStyleType="text/css" data-diagram-type="SEQUENCE" height="1334px" preserveAspectRatio="none" style="width:843px;height:1334px;background:#FFFFFF;" version="1.1" viewBox="0 0 843 1334" width="843px" zoomAndPan="magnify"><defs/><g><g><title>Client</title><rect fill="#FFFFFF" height="31.706" style="stroke:#181818;stroke-width:1;" width="10" x="111.6901" y="72.7739"/></g><g><title>Client</title><rect fill="#FFFFFF" height="30" style="stroke:#181818;stroke-width:1;" width="10" x="111.6901" y="781.3461"/></g><g><title>Register</title><rect fill="#FFFFFF" height="30" style="stroke:#181818;stroke-width:1;" width="10" x="313.9283" y="136.186"/></g><g><title>Register</title><rect fill="#FFFFFF" height="30" style="stroke:#181818;stroke-width:1;" width="10" x="313.9283" y="197.892"/></g><g><title>Register</title><rect fill="#FFFFFF" height="505.0421" style="stroke:#181818;stroke-width:1;" width="10" x="313.9283" y="321.304"/></g><g><title>Register</title><rect fill="#FFFFFF" height="28" style="stroke:#181818;stroke-width:1;" width="10" x="318.9283" y="361.01"/></g><g><title>Register</title><rect fill="#FFFFFF" height="42.706" style="stroke:#181818;stroke-width:1;" width="10" x="318.9283" y="462.4221"/></g><g><title>Register</title><rect fill="#FFFFFF" height="42.706" style="stroke:#181818;stroke-width:1;" width="10" x="318.9283" y="602.522"/></g><g><title>Register</title><rect fill="#FFFFFF" height="142.412" style="stroke:#181818;stroke-width:1;" width="10" x="313.9283" y="911.7581"/></g><g><title>Register</title><rect fill="#FFFFFF" height="28" style="stroke:#181818;stroke-width:1;" width="10" x="318.9283" y="951.4641"/></g><g><title>Register</title><rect fill="#FFFFFF" height="28" style="stroke:#181818;stroke-width:1;" width="10" x="318.9283" y="1026.1701"/></g><g><title>Register</title><rect fill="#FFFFFF" height="30" style="stroke:#181818;stroke-width:1;" width="10" x="313.9283" y="1092.8762"/></g><g><title>Register</title><rect fill="#FFFFFF" height="30" style="stroke:#181818;stroke-width:1;" width="10" x="313.9283" y="1154.5822"/></g><g><title>Register</title><rect fill="#FFFFFF" height="61.706" style="stroke:#181818;stroke-width:1;" width="10" x="313.9283" y="1216.2882"/></g><g><title>C_0016429213831703395188</title><rect fill="#FFFFFF" height="30" style="stroke:#181818;stroke-width:1;" width="10" x="558.8405" y="259.598"/></g><g><title>User</title><rect fill="#FFFFFF" height="30" style="stroke:#181818;stroke-width:1;" width="10" x="704.9006" y="719.6401"/></g><g><title>OOMWidget</title><rect fill="#FFFFFF" height="30" style="stroke:#181818;stroke-width:1;" width="10" x="784.8934" y="850.0521"/></g><g><title>OOMWidget</title><rect fill="#FFFFFF" height="30" style="stroke:#181818;stroke-width:1;" width="10" x="784.8934" y="1247.9942"/></g><rect fill="transparent" height="109.118" style="stroke:#000000;stroke-width:1.5;" width="268.3691" x="274.7964" y="411.01"/><rect fill="transparent" height="126.0999" style="stroke:#000000;stroke-width:1.5;" width="294.0441" x="274.7964" y="534.1281"/><rect fill="transparent" height="145.118" style="stroke:#000000;stroke-width:1.5;" width="661.3564" x="80.8532" y="674.228"/><g><title>Client</title><rect fill="transparent" height="1256.9263" width="8" x="112.6901" y="39.0679"/><line style="stroke:#181818;stroke-width:0.5;stroke-dasharray:5.0,5.0;" x1="115.8532" x2="115.8532" y1="39.0679" y2="1295.9942"/></g><g><title>Register</title><rect fill="transparent" height="1256.9263" width="8" x="314.9283" y="39.0679"/><line style="stroke:#181818;stroke-width:0.5;stroke-dasharray:5.0,5.0;" x1="318.7964" x2="318.7964" y1="39.0679" y2="1295.9942"/></g><g><title>C_0016429213831703395188</title><rect fill="transparent" height="1256.9263" width="8" x="559.8405" y="39.0679"/><line style="stroke:#181818;stroke-width:0.5;stroke-dasharray:5.0,5.0;" x1="563.2209" x2="563.2209" y1="39.0679" y2="1295.9942"/></g><g><title>User</title><rect fill="transparent" height="1256.9263" width="8" x="705.9006" y="39.0679"/><line style="stroke:#181818;stroke-width:0.5;stroke-dasharray:5.0,5.0;" x1="709.5917" x2="709.5917" y1="39.0679" y2="1295.9942"/></g><g><title>OOMWidget</title><rect fill="transparent" height="1256.9263" width="8" x="785.8934" y="39.0679"/><line style="stroke:#181818;stroke-width:0.5;stroke-dasharray:5.0,5.0;" x1="789.2095" x2="789.2095" y1="39.0679" y2="1295.9942"/></g><rect fill="#E2E2F0" height="33.0679" rx="2.5" ry="2.5" style="stroke:#181818;stroke-width:0.5;" width="51.6738" x="90.8532" y="5"/><text fill="#000000" font-family="sans-serif" font-size="14" lengthAdjust="spacing" textLength="37.6738" x="97.8532" y="26.9659">Client</text><rect fill="#E2E2F0" height="33.0679" rx="2.5" ry="2.5" style="stroke:#181818;stroke-width:0.5;" width="51.6738" x="90.8532" y="1294.9942"/><text fill="#000000" font-family="sans-serif" font-size="14" lengthAdjust="spacing" textLength="37.6738" x="97.8532" y="1316.9601">Client</text><rect fill="#E2E2F0" height="33.0679" rx="2.5" ry="2.5" style="stroke:#181818;stroke-width:0.5;" width="68.2638" x="284.7964" y="5"/><text fill="#000000" font-family="sans-serif" font-size="14" lengthAdjust="spacing" textLength="54.2638" x="291.7964" y="26.9659">Register</text><rect fill="#E2E2F0" height="33.0679" rx="2.5" ry="2.5" style="stroke:#181818;stroke-width:0.5;" width="68.2638" x="284.7964" y="1294.9942"/><text fill="#000000" font-family="sans-serif" font-size="14" lengthAdjust="spacing" textLength="54.2638" x="291.7964" y="1316.9601">Register</text><rect fill="#E2E2F0" height="33.0679" rx="2.5" ry="2.5" style="stroke:#181818;stroke-width:0.5;" width="205.2392" x="461.2209" y="5"/><text fill="#000000" font-family="sans-serif" font-size="14" lengthAdjust="spacing" textLength="191.2392" x="468.2209" y="26.9659">C_0016429213831703395188</text><rect fill="#E2E2F0" height="33.0679" rx="2.5" ry="2.5" style="stroke:#181818;stroke-width:0.5;" width="205.2392" x="461.2209" y="1294.9942"/><text fill="#000000" font-family="sans-serif" font-size="14" lengthAdjust="spacing" textLength="191.2392" x="468.2209" y="1316.9601">C_0016429213831703395188</text><rect fill="#E2E2F0" height="33.0679" rx="2.5" ry="2.5" style="stroke:#181818;stroke-width:0.5;" width="44.6179" x="687.5917" y="5"/><text fill="#000000" font-family="sans-serif" font-size="14" lengthAdjust="spacing" textLength="30.6179" x="694.5917" y="26.9659">User</text><rect fill="#E2E2F0" height="33.0679" rx="2.5" ry="2.5" style="stroke:#181818;stroke-width:0.5;" width="44.6179" x="687.5917" y="1294.9942"/><text fill="#000000" font-family="sans-serif" font-size="14" lengthAdjust="spacing" textLength="30.6179" x="694.5917" y="1316.9601">User</text><rect fill="#E2E2F0" height="33.0679" rx="2.5" ry="2.5" style="stroke:#181818;stroke-width:0.5;" width="95.3677" x="742.2095" y="5"/><text fill="#000000" font-family="sans-serif" font-size="14" lengthAdjust="spacing" textLength="81.3677" x="749.2095" y="26.9659">OOMWidget</text><rect fill="#E2E2F0" height="33.0679" rx="2.5" ry="2.5" style="stroke:#181818;stroke-width:0.5;" width="95.3677" x="742.2095" y="1294.9942"/><text fill="#000000" font-family="sans-serif" font-size="14" lengthAdjust="spacing" textLength="81.3677" x="749.2095" y="1316.9601">OOMWidget</text><g><title>Client</title><rect fill="#FFFFFF" height="31.706" style="stroke:#181818;stroke-width:1;" width="10" x="111.6901" y="72.7739"/></g><g><title>Client</title><rect fill="#FFFFFF" height="30" style="stroke:#181818;stroke-width:1;" width="10" x="111.6901" y="781.3461"/></g><g><title>Register</title><rect fill="#FFFFFF" height="30" style="stroke:#181818;stroke-width:1;" width="10" x="313.9283" y="136.186"/></g><g><title>Register</title><rect fill="#FFFFFF" height="30" style="stroke:#181818;stroke-width:1;" width="10" x="313.9283" y="197.892"/></g><g><title>Register</title><rect fill="#FFFFFF" height="505.0421" style="stroke:#181818;stroke-width:1;" width="10" x="313.9283" y="321.304"/></g><g><title>Register</title><rect fill="#FFFFFF" height="28" style="stroke:#181818;stroke-width:1;" width="10" x="318.9283" y="361.01"/></g><g><title>Register</title><rect fill="#FFFFFF" height="42.706" style="stroke:#181818;stroke-width:1;" width="10" x="318.9283" y="462.4221"/></g><g><title>Register</title><rect fill="#FFFFFF" height="42.706" style="stroke:#181818;stroke-width:1;" width="10" x="318.9283" y="602.522"/></g><g><title>Register</title><rect fill="#FFFFFF" height="142.412" style="stroke:#181818;stroke-width:1;" width="10" x="313.9283" y="911.7581"/></g><g><title>Register</title><rect fill="#FFFFFF" height="28" style="stroke:#181818;stroke-width:1;" width="10" x="318.9283" y="951.4641"/></g><g><title>Register</title><rect fill="#FFFFFF" height="28" style="stroke:#181818;stroke-width:1;" width="10" x="318.9283" y="1026.1701"/></g><g><title>Register</title><rect fill="#FFFFFF" height="30" style="stroke:#181818;stroke-width:1;" width="10" x="313.9283" y="1092.8762"/></g><g><title>Register</title><rect fill="#FFFFFF" height="30" style="stroke:#181818;stroke-width:1;" width="10" x="313.9283" y="1154.5822"/></g><g><title>Register</title><rect fill="#FFFFFF" height="61.706" style="stroke:#181818;stroke-width:1;" width="10" x="313.9283" y="1216.2882"/></g><g><title>C_0016429213831703395188</title><rect fill="#FFFFFF" height="30" style="stroke:#181818;stroke-width:1;" width="10" x="558.8405" y="259.598"/></g><g><title>User</title><rect fill="#FFFFFF" height="30" style="stroke:#181818;stroke-width:1;" width="10" x="704.9006" y="719.6401"/></g><g><title>OOMWidget</title><rect fill="#FFFFFF" height="30" style="stroke:#181818;stroke-width:1;" width="10" x="784.8934" y="850.0521"/></g><g><title>OOMWidget</title><rect fill="#FFFFFF" height="30" style="stroke:#181818;stroke-width:1;" width="10" x="784.8934" y="1247.9942"/></g><polygon fill="#181818" points="99.6901,68.7739,109.6901,72.7739,99.6901,76.7739,103.6901,72.7739" style="stroke:#181818;stroke-width:1;"/><line style="stroke:#181818;stroke-width:1;" x1="0" x2="105.6901" y1="72.7739" y2="72.7739"/><text fill="#000000" font-family="sans-serif" font-size="13" lengthAdjust="spacing" textLength="92.6901" x="7" y="66.9649">getUser() const</text><polygon fill="#181818" points="11,100.4799,1,104.4799,11,108.4799,7,104.4799" style="stroke:#181818;stroke-width:1;"/><line style="stroke:#181818;stroke-width:1;stroke-dasharray:2.0,2.0;" x1="5" x2="115.6901" y1="104.4799" y2="104.4799"/><text fill="#000000" font-family="sans-serif" font-size="13" font-style="italic" lengthAdjust="spacing" textLength="26.078" x="17" y="98.6709">User</text><polygon fill="#181818" points="301.9283,132.186,311.9283,136.186,301.9283,140.186,305.9283,136.186" style="stroke:#181818;stroke-width:1;"/><line style="stroke:#181818;stroke-width:1;" x1="0" x2="307.9283" y1="136.186" y2="136.186"/><text fill="#000000" font-family="sans-serif" font-size="13" lengthAdjust="spacing" textLength="97.9681" x="7" y="130.377">resetForm(bool)</text><polygon fill="#181818" points="301.9283,193.892,311.9283,197.892,301.9283,201.892,305.9283,197.892" style="stroke:#181818;stroke-width:1;"/><line style="stroke:#181818;stroke-width:1;" x1="0" x2="307.9283" y1="197.892" y2="197.892"/><text fill="#000000" font-family="sans-serif" font-size="13" lengthAdjust="spacing" textLength="99.2031" x="7" y="192.083">showPassword()</text><polygon fill="#181818" points="546.8405,255.598,556.8405,259.598,546.8405,263.598,550.8405,259.598" style="stroke:#181818;stroke-width:1;"/><line style="stroke:#181818;stroke-width:1;" x1="0" x2="552.8405" y1="259.598" y2="259.598"/><text fill="#000000" font-family="sans-serif" font-size="13" lengthAdjust="spacing" textLength="269.5812" x="7" y="253.789">ProtocolManager(const ProtocolManager &amp;)</text><polygon fill="#181818" points="301.9283,317.304,311.9283,321.304,301.9283,325.304,305.9283,321.304" style="stroke:#181818;stroke-width:1;"/><line style="stroke:#181818;stroke-width:1;" x1="0" x2="307.9283" y1="321.304" y2="321.304"/><text fill="#000000" font-family="sans-serif" font-size="13" lengthAdjust="spacing" textLength="100.2301" x="7" y="315.495">handleRegister()</text><line style="stroke:#181818;stroke-width:1;" x1="328.9283" x2="370.9283" y1="353.01" y2="353.01"/><line style="stroke:#181818;stroke-width:1;" x1="370.9283" x2="370.9283" y1="353.01" y2="366.01"/><line style="stroke:#181818;stroke-width:1;" x1="329.9283" x2="370.9283" y1="366.01" y2="366.01"/><polygon fill="#181818" points="339.9283,362.01,329.9283,366.01,339.9283,370.01,335.9283,366.01" style="stroke:#181818;stroke-width:1;"/><text fill="#000000" font-family="sans-serif" font-size="13" lengthAdjust="spacing" textLength="97.9681" x="335.9283" y="347.201">resetForm(bool)</text><path d="M274.7964,411.01 L337.2554,411.01 L337.2554,420.716 L327.2554,430.716 L274.7964,430.716 L274.7964,411.01 " fill="#EEEEEE" style="stroke:#000000;stroke-width:1.5;"/><rect fill="transparent" height="109.118" style="stroke:#000000;stroke-width:1.5;" width="268.3691" x="274.7964" y="411.01"/><text fill="#000000" font-family="sans-serif" font-size="13" font-weight="bold" lengthAdjust="spacing" textLength="17.459" x="289.7964" y="425.907">alt</text><text fill="#000000" font-family="sans-serif" font-size="11" font-weight="bold" lengthAdjust="spacing" textLength="90.9914" x="352.2554" y="424.7689">[!isValidEmail(e)]</text><line style="stroke:#181818;stroke-width:1;" x1="323.9283" x2="370.9283" y1="449.4221" y2="449.4221"/><line style="stroke:#181818;stroke-width:1;" x1="370.9283" x2="370.9283" y1="449.4221" y2="462.4221"/><line style="stroke:#181818;stroke-width:1;" x1="329.9283" x2="370.9283" y1="462.4221" y2="462.4221"/><polygon fill="#181818" points="339.9283,458.4221,329.9283,462.4221,339.9283,466.4221,335.9283,462.4221" style="stroke:#181818;stroke-width:1;"/><text fill="#000000" font-family="sans-serif" font-size="13" font-weight="bold" lengthAdjust="spacing" textLength="4.303" x="335.9283" y="443.6131">[</text><text fill="#000000" font-family="sans-serif" font-size="13" lengthAdjust="spacing" textLength="176.6312" x="340.2313" y="443.6131">isValidEmail(const QString &amp;)</text><text fill="#000000" font-family="sans-serif" font-size="13" font-weight="bold" lengthAdjust="spacing" textLength="4.303" x="516.8625" y="443.6131">]</text><line style="stroke:#181818;stroke-width:1;stroke-dasharray:2.0,2.0;" x1="328.9283" x2="370.9283" y1="504.1281" y2="504.1281"/><line style="stroke:#181818;stroke-width:1;stroke-dasharray:2.0,2.0;" x1="370.9283" x2="370.9283" y1="504.1281" y2="517.1281"/><line style="stroke:#181818;stroke-width:1;stroke-dasharray:2.0,2.0;" x1="323.9283" x2="370.9283" y1="517.1281" y2="517.1281"/><polygon fill="#181818" points="333.9283,513.1281,323.9283,517.1281,333.9283,521.1281,329.9283,517.1281" style="stroke:#181818;stroke-width:1;"/><text fill="#000000" font-family="sans-serif" font-size="13" font-style="italic" lengthAdjust="spacing" textLength="25.519" x="335.9283" y="498.3191">bool</text><path d="M274.7964,534.1281 L337.2554,534.1281 L337.2554,543.8341 L327.2554,553.8341 L274.7964,553.8341 L274.7964,534.1281 " fill="#EEEEEE" style="stroke:#000000;stroke-width:1.5;"/><rect fill="transparent" height="126.0999" style="stroke:#000000;stroke-width:1.5;" width="294.0441" x="274.7964" y="534.1281"/><text fill="#000000" font-family="sans-serif" font-size="13" font-weight="bold" lengthAdjust="spacing" textLength="17.459" x="289.7964" y="549.0251">alt</text><text fill="#000000" font-family="sans-serif" font-size="11" font-weight="bold" lengthAdjust="spacing" textLength="42.6577" x="352.2554" y="547.887">[p != p2]</text><line style="stroke:#000000;stroke-width:1;stroke-dasharray:2.0,2.0;" x1="274.7964" x2="568.8405" y1="554.8341" y2="554.8341"/><text fill="#000000" font-family="sans-serif" font-size="11" font-weight="bold" lengthAdjust="spacing" textLength="113.8052" x="279.7964" y="566.593">[!isValidPassword(p)]</text><line style="stroke:#181818;stroke-width:1;" x1="323.9283" x2="370.9283" y1="589.522" y2="589.522"/><line style="stroke:#181818;stroke-width:1;" x1="370.9283" x2="370.9283" y1="589.522" y2="602.522"/><line style="stroke:#181818;stroke-width:1;" x1="329.9283" x2="370.9283" y1="602.522" y2="602.522"/><polygon fill="#181818" points="339.9283,598.522,329.9283,602.522,339.9283,606.522,335.9283,602.522" style="stroke:#181818;stroke-width:1;"/><text fill="#000000" font-family="sans-serif" font-size="13" font-weight="bold" lengthAdjust="spacing" textLength="4.303" x="335.9283" y="583.713">[</text><text fill="#000000" font-family="sans-serif" font-size="13" lengthAdjust="spacing" textLength="202.3062" x="340.2313" y="583.713">isValidPassword(const QString &amp;)</text><text fill="#000000" font-family="sans-serif" font-size="13" font-weight="bold" lengthAdjust="spacing" textLength="4.303" x="542.5375" y="583.713">]</text><line style="stroke:#181818;stroke-width:1;stroke-dasharray:2.0,2.0;" x1="328.9283" x2="370.9283" y1="644.228" y2="644.228"/><line style="stroke:#181818;stroke-width:1;stroke-dasharray:2.0,2.0;" x1="370.9283" x2="370.9283" y1="644.228" y2="657.228"/><line style="stroke:#181818;stroke-width:1;stroke-dasharray:2.0,2.0;" x1="323.9283" x2="370.9283" y1="657.228" y2="657.228"/><polygon fill="#181818" points="333.9283,653.228,323.9283,657.228,333.9283,661.228,329.9283,657.228" style="stroke:#181818;stroke-width:1;"/><text fill="#000000" font-family="sans-serif" font-size="13" font-style="italic" lengthAdjust="spacing" textLength="25.519" x="335.9283" y="638.419">bool</text><path d="M80.8532,674.228 L143.3122,674.228 L143.3122,683.934 L133.3122,693.934 L80.8532,693.934 L80.8532,674.228 " fill="#EEEEEE" style="stroke:#000000;stroke-width:1.5;"/><rect fill="transparent" height="145.118" style="stroke:#000000;stroke-width:1.5;" width="661.3564" x="80.8532" y="674.228"/><text fill="#000000" font-family="sans-serif" font-size="13" font-weight="bold" lengthAdjust="spacing" textLength="17.459" x="95.8532" y="689.125">alt</text><text fill="#000000" font-family="sans-serif" font-size="11" font-weight="bold" lengthAdjust="spacing" textLength="279.4421" x="158.3122" y="687.9869">[!emailError.isEmpty() || !passwordError.isEmpty()]</text><line style="stroke:#000000;stroke-width:1;stroke-dasharray:2.0,2.0;" x1="80.8532" x2="742.2095" y1="694.934" y2="694.934"/><polygon fill="#181818" points="692.9006,715.6401,702.9006,719.6401,692.9006,723.6401,696.9006,719.6401" style="stroke:#181818;stroke-width:1;"/><line style="stroke:#181818;stroke-width:1;" x1="323.9283" x2="698.9006" y1="719.6401" y2="719.6401"/><text fill="#000000" font-family="sans-serif" font-size="13" lengthAdjust="spacing" textLength="361.9724" x="330.9283" y="713.831">User(const QString &amp;,const QString &amp;,const QString &amp;,bool)</text><polygon fill="#181818" points="132.6901,777.3461,122.6901,781.3461,132.6901,785.3461,128.6901,781.3461" style="stroke:#181818;stroke-width:1;"/><line style="stroke:#181818;stroke-width:1;" x1="126.6901" x2="312.9283" y1="781.3461" y2="781.3461"/><text fill="#000000" font-family="sans-serif" font-size="13" lengthAdjust="spacing" textLength="173.2382" x="138.6901" y="775.5371">createAccount(const User &amp;)</text><polygon fill="#181818" points="772.8934,846.0521,782.8934,850.0521,772.8934,854.0521,776.8934,850.0521" style="stroke:#181818;stroke-width:1;"/><line style="stroke:#181818;stroke-width:1;" x1="0" x2="778.8934" y1="850.0521" y2="850.0521"/><text fill="#000000" font-family="sans-serif" font-size="13" lengthAdjust="spacing" textLength="147.5112" x="7" y="844.2431">OOMWidget(QWidget *)</text><polygon fill="#181818" points="301.9283,907.7581,311.9283,911.7581,301.9283,915.7581,305.9283,911.7581" style="stroke:#181818;stroke-width:1;"/><line style="stroke:#181818;stroke-width:1;" x1="0" x2="307.9283" y1="911.7581" y2="911.7581"/><text fill="#000000" font-family="sans-serif" font-size="13" lengthAdjust="spacing" textLength="78.7671" x="7" y="905.9491">handleBack()</text><line style="stroke:#181818;stroke-width:1;" x1="328.9283" x2="370.9283" y1="943.4641" y2="943.4641"/><line style="stroke:#181818;stroke-width:1;" x1="370.9283" x2="370.9283" y1="943.4641" y2="956.4641"/><line style="stroke:#181818;stroke-width:1;" x1="329.9283" x2="370.9283" y1="956.4641" y2="956.4641"/><polygon fill="#181818" points="339.9283,952.4641,329.9283,956.4641,339.9283,960.4641,335.9283,956.4641" style="stroke:#181818;stroke-width:1;"/><text fill="#000000" font-family="sans-serif" font-size="13" lengthAdjust="spacing" textLength="97.9681" x="335.9283" y="937.6551">resetForm(bool)</text><line style="stroke:#181818;stroke-width:1;" x1="328.9283" x2="370.9283" y1="1018.1701" y2="1018.1701"/><line style="stroke:#181818;stroke-width:1;" x1="370.9283" x2="370.9283" y1="1018.1701" y2="1031.1701"/><line style="stroke:#181818;stroke-width:1;" x1="329.9283" x2="370.9283" y1="1031.1701" y2="1031.1701"/><polygon fill="#181818" points="339.9283,1027.1701,329.9283,1031.1701,339.9283,1035.1701,335.9283,1031.1701" style="stroke:#181818;stroke-width:1;"/><text fill="#000000" font-family="sans-serif" font-size="13" lengthAdjust="spacing" textLength="85.4231" x="335.9283" y="1012.3611">backToLogin()</text><polygon fill="#181818" points="301.9283,1088.8762,311.9283,1092.8762,301.9283,1096.8762,305.9283,1092.8762" style="stroke:#181818;stroke-width:1;"/><line style="stroke:#181818;stroke-width:1;" x1="0" x2="307.9283" y1="1092.8762" y2="1092.8762"/><text fill="#000000" font-family="sans-serif" font-size="13" lengthAdjust="spacing" textLength="104.2081" x="7" y="1087.0671">setBackEnabled()</text><polygon fill="#181818" points="301.9283,1150.5822,311.9283,1154.5822,301.9283,1158.5822,305.9283,1154.5822" style="stroke:#181818;stroke-width:1;"/><line style="stroke:#181818;stroke-width:1;" x1="0" x2="307.9283" y1="1154.5822" y2="1154.5822"/><text fill="#000000" font-family="sans-serif" font-size="13" lengthAdjust="spacing" textLength="65.6241" x="7" y="1148.7732">~Register()</text><polygon fill="#181818" points="301.9283,1212.2882,311.9283,1216.2882,301.9283,1220.2882,305.9283,1216.2882" style="stroke:#181818;stroke-width:1;"/><line style="stroke:#181818;stroke-width:1;" x1="0" x2="307.9283" y1="1216.2882" y2="1216.2882"/><text fill="#000000" font-family="sans-serif" font-size="13" lengthAdjust="spacing" textLength="122.3431" x="7" y="1210.4792">Register(QWidget *)</text><polygon fill="#181818" points="772.8934,1243.9942,782.8934,1247.9942,772.8934,1251.9942,776.8934,1247.9942" style="stroke:#181818;stroke-width:1;"/><line style="stroke:#181818;stroke-width:1;" x1="323.9283" x2="778.8934" y1="1247.9942" y2="1247.9942"/><text fill="#000000" font-family="sans-serif" font-size="13" lengthAdjust="spacing" textLength="147.5112" x="330.9283" y="1242.1852">OOMWidget(QWidget *)</text><!--SRC=[rLPTRvim57tdLpXzM0bgm0P3ODecRLNQbqHjzz4zLDFaW4Uj4HiPjz6aQhzz9it8mfoFPMXJbGTax9nxppbmBYMHYgMi95o1ezE2KQwE0Ad0wMS8OGA3Q9ZuKHmYECH3Z12oRWQlDcw2vo2dwaD5fTq7gU2LiaYgs3rHT0lWYy5W6wBdrO2UPsLqDrZvAvstD6ULed95g3xk1puEumGdVXWbSRGYPDZKvIMjg3eJScPFXIZwBK8cm7QV1nIjRiNyabJLNCZCxhecYh2V-2Y80pI4GP24A8vrpKifb4X5CI6SvDh1XN_jk-1PgniJMBiRuvaT2jmIdXNqfuDxQR0HxNyOJ0e5Ugow9WNBHZF22fls3-tGSMuSPmthqPkhTqeodcjF7EUJu_oLHDixyBnQ6yCxQ2f2URQWNuBUIr3w5YqgscZHFDLb9t8qS4z2aHwjtHj9AQJBgj6iLDzqK3uyW5wvvD7QMsYt7cfr63Q1Xe849ZY260SHZCDX17syKrRJdpIZHMotP3pPjJQyCiQUsebmIDyRvaCggOPzdQRYZgibWPhBRr5b71Zx39NQldriNlFfucBoaMLw7AxCmh7-OHI6CFI3q0zndAn2sR2foJKezjNZ5JXjkKseRRctLTuQm6z8-lNfXU-1pKmrsVTYB7B6EnkwNNmCK5NRCE9aMj3kFmSsLFt-HxEtWu9DlKrF-a5M__ltQXyfhEDpogdKPp8mP-eMf0NX-U1kLfo0Uoeh9ZY0RkH2wtWylfuqznR7cXMANUJ6m3wZcP1akHmWzqkAOVy7]--></g></svg>