<svg xmlns="http://www.w3.org/2000/svg" xmlns:xlink="http://www.w3.org/1999/xlink" contentStyleType="text/css" data-diagram-type="SEQUENCE" height="1683px" preserveAspectRatio="none" style="width:960px;height:1683px;background:#FFFFFF;" version="1.1" viewBox="0 0 960 1683" width="960px" zoomAndPan="magnify"><defs/><g><g><title>Client</title><rect fill="#FFFFFF" height="31.706" style="stroke:#181818;stroke-width:1;" width="10" x="111.6901" y="134.4799"/></g><g><title>Client</title><rect fill="#FFFFFF" height="30" style="stroke:#181818;stroke-width:1;" width="10" x="111.6901" y="610.0702"/></g><g><title>Client</title><rect fill="#FFFFFF" height="31.706" style="stroke:#181818;stroke-width:1;" width="10" x="111.6901" y="849.6003"/></g><g><title>Client</title><rect fill="#FFFFFF" height="31.706" style="stroke:#181818;stroke-width:1;" width="10" x="111.6901" y="1119.8364"/></g><g><title>Client</title><rect fill="#FFFFFF" height="30" style="stroke:#181818;stroke-width:1;" width="10" x="111.6901" y="1416.4845"/></g><g><title>C_0001310024392510780053</title><rect fill="#FFFFFF" height="30" style="stroke:#181818;stroke-width:1;" width="10" x="550.9054" y="72.7739"/></g><g><title>C_0001310024392510780053</title><rect fill="#FFFFFF" height="509.8842" style="stroke:#181818;stroke-width:1;" width="10" x="550.9054" y="197.892"/></g><g><title>C_0001310024392510780053</title><rect fill="#FFFFFF" height="28" style="stroke:#181818;stroke-width:1;" width="10" x="555.9054" y="679.7762"/></g><g><title>C_0001310024392510780053</title><rect fill="#FFFFFF" height="248.2361" style="stroke:#181818;stroke-width:1;" width="10" x="550.9054" y="746.4822"/></g><g><title>C_0001310024392510780053</title><rect fill="#FFFFFF" height="136.118" style="stroke:#181818;stroke-width:1;" width="10" x="555.9054" y="812.8943"/></g><g><title>C_0001310024392510780053</title><rect fill="#FFFFFF" height="28" style="stroke:#181818;stroke-width:1;" width="10" x="560.9054" y="921.0123"/></g><g><title>C_0001310024392510780053</title><rect fill="#FFFFFF" height="131.118" style="stroke:#181818;stroke-width:1;" width="10" x="550.9054" y="1088.1304"/></g><g><title>C_0001310024392510780053</title><rect fill="#FFFFFF" height="28" style="stroke:#181818;stroke-width:1;" width="10" x="555.9054" y="1191.2484"/></g><g><title>C_0001310024392510780053</title><rect fill="#FFFFFF" height="256.2361" style="stroke:#181818;stroke-width:1;" width="10" x="550.9054" y="1257.9544"/></g><g><title>C_0001310024392510780053</title><rect fill="#FFFFFF" height="28" style="stroke:#181818;stroke-width:1;" width="10" x="555.9054" y="1486.1905"/></g><g><title>C_0001310024392510780053</title><rect fill="#FFFFFF" height="67.706" style="stroke:#181818;stroke-width:1;" width="10" x="550.9054" y="1552.8965"/></g><g><title>C_0001310024392510780053</title><rect fill="#FFFFFF" height="28" style="stroke:#181818;stroke-width:1;" width="10" x="555.9054" y="1592.6026"/></g><g><title>User</title><rect fill="#FFFFFF" height="31.706" style="stroke:#181818;stroke-width:1;" width="10" x="711.7125" y="229.598"/></g><g><title>User</title><rect fill="#FFFFFF" height="31.706" style="stroke:#181818;stroke-width:1;" width="10" x="711.7125" y="293.01"/></g><g><title>User</title><rect fill="#FFFFFF" height="31.706" style="stroke:#181818;stroke-width:1;" width="10" x="711.7125" y="356.4221"/></g><g><title>User</title><rect fill="#FFFFFF" height="31.706" style="stroke:#181818;stroke-width:1;" width="10" x="711.7125" y="419.8341"/></g><g><title>User</title><rect fill="#FFFFFF" height="31.706" style="stroke:#181818;stroke-width:1;" width="10" x="711.7125" y="483.2461"/></g><g><title>User</title><rect fill="#FFFFFF" height="31.706" style="stroke:#181818;stroke-width:1;" width="10" x="711.7125" y="546.6582"/></g><g><title>User</title><rect fill="#FFFFFF" height="31.706" style="stroke:#181818;stroke-width:1;" width="10" x="711.7125" y="1289.6604"/></g><g><title>User</title><rect fill="#FFFFFF" height="31.706" style="stroke:#181818;stroke-width:1;" width="10" x="711.7125" y="1353.0725"/></g><g><title>C_0016429213831703395188</title><rect fill="#FFFFFF" height="30" style="stroke:#181818;stroke-width:1;" width="10" x="846.641" y="1026.4243"/></g><rect fill="transparent" height="202.5301" style="stroke:#000000;stroke-width:1.5;" width="597.3433" x="80.8532" y="761.4822"/><g><title>Client</title><rect fill="transparent" height="1606.5346" width="8" x="112.6901" y="39.0679"/><line style="stroke:#181818;stroke-width:0.5;stroke-dasharray:5.0,5.0;" x1="115.8532" x2="115.8532" y1="39.0679" y2="1645.6026"/></g><g><title>C_0001310024392510780053</title><rect fill="transparent" height="1606.5346" width="8" x="551.9054" y="39.0679"/><line style="stroke:#181818;stroke-width:0.5;stroke-dasharray:5.0,5.0;" x1="555.2858" x2="555.2858" y1="39.0679" y2="1645.6026"/></g><g><title>User</title><rect fill="transparent" height="1606.5346" width="8" x="712.7125" y="39.0679"/><line style="stroke:#181818;stroke-width:0.5;stroke-dasharray:5.0,5.0;" x1="716.4035" x2="716.4035" y1="39.0679" y2="1645.6026"/></g><g><title>C_0016429213831703395188</title><rect fill="transparent" height="1606.5346" width="8" x="847.641" y="39.0679"/><line style="stroke:#181818;stroke-width:0.5;stroke-dasharray:5.0,5.0;" x1="851.0214" x2="851.0214" y1="39.0679" y2="1645.6026"/></g><rect fill="#E2E2F0" height="33.0679" rx="2.5" ry="2.5" style="stroke:#181818;stroke-width:0.5;" width="51.6738" x="90.8532" y="5"/><text fill="#000000" font-family="sans-serif" font-size="14" lengthAdjust="spacing" textLength="37.6738" x="97.8532" y="26.9659">Client</text><rect fill="#E2E2F0" height="33.0679" rx="2.5" ry="2.5" style="stroke:#181818;stroke-width:0.5;" width="51.6738" x="90.8532" y="1644.6026"/><text fill="#000000" font-family="sans-serif" font-size="14" lengthAdjust="spacing" textLength="37.6738" x="97.8532" y="1666.5685">Client</text><rect fill="#E2E2F0" height="33.0679" rx="2.5" ry="2.5" style="stroke:#181818;stroke-width:0.5;" width="205.2392" x="453.2858" y="5"/><text fill="#000000" font-family="sans-serif" font-size="14" lengthAdjust="spacing" textLength="191.2392" x="460.2858" y="26.9659">C_0001310024392510780053</text><rect fill="#E2E2F0" height="33.0679" rx="2.5" ry="2.5" style="stroke:#181818;stroke-width:0.5;" width="205.2392" x="453.2858" y="1644.6026"/><text fill="#000000" font-family="sans-serif" font-size="14" lengthAdjust="spacing" textLength="191.2392" x="460.2858" y="1666.5685">C_0001310024392510780053</text><rect fill="#E2E2F0" height="33.0679" rx="2.5" ry="2.5" style="stroke:#181818;stroke-width:0.5;" width="44.6179" x="694.4035" y="5"/><text fill="#000000" font-family="sans-serif" font-size="14" lengthAdjust="spacing" textLength="30.6179" x="701.4035" y="26.9659">User</text><rect fill="#E2E2F0" height="33.0679" rx="2.5" ry="2.5" style="stroke:#181818;stroke-width:0.5;" width="44.6179" x="694.4035" y="1644.6026"/><text fill="#000000" font-family="sans-serif" font-size="14" lengthAdjust="spacing" textLength="30.6179" x="701.4035" y="1666.5685">User</text><rect fill="#E2E2F0" height="33.0679" rx="2.5" ry="2.5" style="stroke:#181818;stroke-width:0.5;" width="205.2392" x="749.0214" y="5"/><text fill="#000000" font-family="sans-serif" font-size="14" lengthAdjust="spacing" textLength="191.2392" x="756.0214" y="26.9659">C_0016429213831703395188</text><rect fill="#E2E2F0" height="33.0679" rx="2.5" ry="2.5" style="stroke:#181818;stroke-width:0.5;" width="205.2392" x="749.0214" y="1644.6026"/><text fill="#000000" font-family="sans-serif" font-size="14" lengthAdjust="spacing" textLength="191.2392" x="756.0214" y="1666.5685">C_0016429213831703395188</text><g><title>Client</title><rect fill="#FFFFFF" height="31.706" style="stroke:#181818;stroke-width:1;" width="10" x="111.6901" y="134.4799"/></g><g><title>Client</title><rect fill="#FFFFFF" height="30" style="stroke:#181818;stroke-width:1;" width="10" x="111.6901" y="610.0702"/></g><g><title>Client</title><rect fill="#FFFFFF" height="31.706" style="stroke:#181818;stroke-width:1;" width="10" x="111.6901" y="849.6003"/></g><g><title>Client</title><rect fill="#FFFFFF" height="31.706" style="stroke:#181818;stroke-width:1;" width="10" x="111.6901" y="1119.8364"/></g><g><title>Client</title><rect fill="#FFFFFF" height="30" style="stroke:#181818;stroke-width:1;" width="10" x="111.6901" y="1416.4845"/></g><g><title>C_0001310024392510780053</title><rect fill="#FFFFFF" height="30" style="stroke:#181818;stroke-width:1;" width="10" x="550.9054" y="72.7739"/></g><g><title>C_0001310024392510780053</title><rect fill="#FFFFFF" height="509.8842" style="stroke:#181818;stroke-width:1;" width="10" x="550.9054" y="197.892"/></g><g><title>C_0001310024392510780053</title><rect fill="#FFFFFF" height="28" style="stroke:#181818;stroke-width:1;" width="10" x="555.9054" y="679.7762"/></g><g><title>C_0001310024392510780053</title><rect fill="#FFFFFF" height="248.2361" style="stroke:#181818;stroke-width:1;" width="10" x="550.9054" y="746.4822"/></g><g><title>C_0001310024392510780053</title><rect fill="#FFFFFF" height="136.118" style="stroke:#181818;stroke-width:1;" width="10" x="555.9054" y="812.8943"/></g><g><title>C_0001310024392510780053</title><rect fill="#FFFFFF" height="28" style="stroke:#181818;stroke-width:1;" width="10" x="560.9054" y="921.0123"/></g><g><title>C_0001310024392510780053</title><rect fill="#FFFFFF" height="131.118" style="stroke:#181818;stroke-width:1;" width="10" x="550.9054" y="1088.1304"/></g><g><title>C_0001310024392510780053</title><rect fill="#FFFFFF" height="28" style="stroke:#181818;stroke-width:1;" width="10" x="555.9054" y="1191.2484"/></g><g><title>C_0001310024392510780053</title><rect fill="#FFFFFF" height="256.2361" style="stroke:#181818;stroke-width:1;" width="10" x="550.9054" y="1257.9544"/></g><g><title>C_0001310024392510780053</title><rect fill="#FFFFFF" height="28" style="stroke:#181818;stroke-width:1;" width="10" x="555.9054" y="1486.1905"/></g><g><title>C_0001310024392510780053</title><rect fill="#FFFFFF" height="67.706" style="stroke:#181818;stroke-width:1;" width="10" x="550.9054" y="1552.8965"/></g><g><title>C_0001310024392510780053</title><rect fill="#FFFFFF" height="28" style="stroke:#181818;stroke-width:1;" width="10" x="555.9054" y="1592.6026"/></g><g><title>User</title><rect fill="#FFFFFF" height="31.706" style="stroke:#181818;stroke-width:1;" width="10" x="711.7125" y="229.598"/></g><g><title>User</title><rect fill="#FFFFFF" height="31.706" style="stroke:#181818;stroke-width:1;" width="10" x="711.7125" y="293.01"/></g><g><title>User</title><rect fill="#FFFFFF" height="31.706" style="stroke:#181818;stroke-width:1;" width="10" x="711.7125" y="356.4221"/></g><g><title>User</title><rect fill="#FFFFFF" height="31.706" style="stroke:#181818;stroke-width:1;" width="10" x="711.7125" y="419.8341"/></g><g><title>User</title><rect fill="#FFFFFF" height="31.706" style="stroke:#181818;stroke-width:1;" width="10" x="711.7125" y="483.2461"/></g><g><title>User</title><rect fill="#FFFFFF" height="31.706" style="stroke:#181818;stroke-width:1;" width="10" x="711.7125" y="546.6582"/></g><g><title>User</title><rect fill="#FFFFFF" height="31.706" style="stroke:#181818;stroke-width:1;" width="10" x="711.7125" y="1289.6604"/></g><g><title>User</title><rect fill="#FFFFFF" height="31.706" style="stroke:#181818;stroke-width:1;" width="10" x="711.7125" y="1353.0725"/></g><g><title>C_0016429213831703395188</title><rect fill="#FFFFFF" height="30" style="stroke:#181818;stroke-width:1;" width="10" x="846.641" y="1026.4243"/></g><polygon fill="#181818" points="538.9054,68.7739,548.9054,72.7739,538.9054,76.7739,542.9054,72.7739" style="stroke:#181818;stroke-width:1;"/><line style="stroke:#181818;stroke-width:1;" x1="0" x2="544.9054" y1="72.7739" y2="72.7739"/><text fill="#000000" font-family="sans-serif" font-size="13" lengthAdjust="spacing" textLength="106.1711" x="7" y="66.9649">destroyInstance()</text><polygon fill="#181818" points="99.6901,130.4799,109.6901,134.4799,99.6901,138.4799,103.6901,134.4799" style="stroke:#181818;stroke-width:1;"/><line style="stroke:#181818;stroke-width:1;" x1="0" x2="105.6901" y1="134.4799" y2="134.4799"/><text fill="#000000" font-family="sans-serif" font-size="13" lengthAdjust="spacing" textLength="92.6901" x="7" y="128.6709">getUser() const</text><polygon fill="#181818" points="11,162.186,1,166.186,11,170.186,7,166.186" style="stroke:#181818;stroke-width:1;"/><line style="stroke:#181818;stroke-width:1;stroke-dasharray:2.0,2.0;" x1="5" x2="115.6901" y1="166.186" y2="166.186"/><text fill="#000000" font-family="sans-serif" font-size="13" font-style="italic" lengthAdjust="spacing" textLength="26.078" x="17" y="160.377">User</text><polygon fill="#181818" points="538.9054,193.892,548.9054,197.892,538.9054,201.892,542.9054,197.892" style="stroke:#181818;stroke-width:1;"/><line style="stroke:#181818;stroke-width:1;" x1="0" x2="544.9054" y1="197.892" y2="197.892"/><text fill="#000000" font-family="sans-serif" font-size="13" lengthAdjust="spacing" textLength="144.6121" x="7" y="192.083">createAcc(const User &amp;)</text><polygon fill="#181818" points="699.7125,225.598,709.7125,229.598,699.7125,233.598,703.7125,229.598" style="stroke:#181818;stroke-width:1;"/><line style="stroke:#181818;stroke-width:1;" x1="560.9054" x2="705.7125" y1="229.598" y2="229.598"/><text fill="#000000" font-family="sans-serif" font-size="13" lengthAdjust="spacing" textLength="131.8071" x="567.9054" y="223.789">get_username() const</text><polygon fill="#181818" points="571.9054,257.304,561.9054,261.304,571.9054,265.304,567.9054,261.304" style="stroke:#181818;stroke-width:1;"/><line style="stroke:#181818;stroke-width:1;stroke-dasharray:2.0,2.0;" x1="565.9054" x2="715.7125" y1="261.304" y2="261.304"/><text fill="#000000" font-family="sans-serif" font-size="13" font-style="italic" lengthAdjust="spacing" textLength="43.836" x="577.9054" y="255.495">QString</text><polygon fill="#181818" points="699.7125,289.01,709.7125,293.01,699.7125,297.01,703.7125,293.01" style="stroke:#181818;stroke-width:1;"/><line style="stroke:#181818;stroke-width:1;" x1="560.9054" x2="705.7125" y1="293.01" y2="293.01"/><text fill="#000000" font-family="sans-serif" font-size="13" lengthAdjust="spacing" textLength="129.2201" x="567.9054" y="287.201">get_password() const</text><polygon fill="#181818" points="571.9054,320.716,561.9054,324.716,571.9054,328.716,567.9054,324.716" style="stroke:#181818;stroke-width:1;"/><line style="stroke:#181818;stroke-width:1;stroke-dasharray:2.0,2.0;" x1="565.9054" x2="715.7125" y1="324.716" y2="324.716"/><text fill="#000000" font-family="sans-serif" font-size="13" font-style="italic" lengthAdjust="spacing" textLength="43.836" x="577.9054" y="318.907">QString</text><polygon fill="#181818" points="699.7125,352.4221,709.7125,356.4221,699.7125,360.4221,703.7125,356.4221" style="stroke:#181818;stroke-width:1;"/><line style="stroke:#181818;stroke-width:1;" x1="560.9054" x2="705.7125" y1="356.4221" y2="356.4221"/><text fill="#000000" font-family="sans-serif" font-size="13" lengthAdjust="spacing" textLength="103.5191" x="567.9054" y="350.6131">get_email() const</text><polygon fill="#181818" points="571.9054,384.1281,561.9054,388.1281,571.9054,392.1281,567.9054,388.1281" style="stroke:#181818;stroke-width:1;"/><line style="stroke:#181818;stroke-width:1;stroke-dasharray:2.0,2.0;" x1="565.9054" x2="715.7125" y1="388.1281" y2="388.1281"/><text fill="#000000" font-family="sans-serif" font-size="13" font-style="italic" lengthAdjust="spacing" textLength="43.836" x="577.9054" y="382.3191">QString</text><polygon fill="#181818" points="699.7125,415.8341,709.7125,419.8341,699.7125,423.8341,703.7125,419.8341" style="stroke:#181818;stroke-width:1;"/><line style="stroke:#181818;stroke-width:1;" x1="560.9054" x2="705.7125" y1="419.8341" y2="419.8341"/><text fill="#000000" font-family="sans-serif" font-size="13" lengthAdjust="spacing" textLength="131.8071" x="567.9054" y="414.0251">get_username() const</text><polygon fill="#181818" points="571.9054,447.5401,561.9054,451.5401,571.9054,455.5401,567.9054,451.5401" style="stroke:#181818;stroke-width:1;"/><line style="stroke:#181818;stroke-width:1;stroke-dasharray:2.0,2.0;" x1="565.9054" x2="715.7125" y1="451.5401" y2="451.5401"/><text fill="#000000" font-family="sans-serif" font-size="13" font-style="italic" lengthAdjust="spacing" textLength="43.836" x="577.9054" y="445.7311">QString</text><polygon fill="#181818" points="699.7125,479.2461,709.7125,483.2461,699.7125,487.2461,703.7125,483.2461" style="stroke:#181818;stroke-width:1;"/><line style="stroke:#181818;stroke-width:1;" x1="560.9054" x2="705.7125" y1="483.2461" y2="483.2461"/><text fill="#000000" font-family="sans-serif" font-size="13" lengthAdjust="spacing" textLength="129.2201" x="567.9054" y="477.4371">get_password() const</text><polygon fill="#181818" points="571.9054,510.9521,561.9054,514.9521,571.9054,518.9521,567.9054,514.9521" style="stroke:#181818;stroke-width:1;"/><line style="stroke:#181818;stroke-width:1;stroke-dasharray:2.0,2.0;" x1="565.9054" x2="715.7125" y1="514.9521" y2="514.9521"/><text fill="#000000" font-family="sans-serif" font-size="13" font-style="italic" lengthAdjust="spacing" textLength="43.836" x="577.9054" y="509.1431">QString</text><polygon fill="#181818" points="699.7125,542.6582,709.7125,546.6582,699.7125,550.6582,703.7125,546.6582" style="stroke:#181818;stroke-width:1;"/><line style="stroke:#181818;stroke-width:1;" x1="560.9054" x2="705.7125" y1="546.6582" y2="546.6582"/><text fill="#000000" font-family="sans-serif" font-size="13" lengthAdjust="spacing" textLength="103.5191" x="567.9054" y="540.8492">get_email() const</text><polygon fill="#181818" points="571.9054,574.3642,561.9054,578.3642,571.9054,582.3642,567.9054,578.3642" style="stroke:#181818;stroke-width:1;"/><line style="stroke:#181818;stroke-width:1;stroke-dasharray:2.0,2.0;" x1="565.9054" x2="715.7125" y1="578.3642" y2="578.3642"/><text fill="#000000" font-family="sans-serif" font-size="13" font-style="italic" lengthAdjust="spacing" textLength="43.836" x="577.9054" y="572.5552">QString</text><polygon fill="#181818" points="132.6901,606.0702,122.6901,610.0702,132.6901,614.0702,128.6901,610.0702" style="stroke:#181818;stroke-width:1;"/><line style="stroke:#181818;stroke-width:1;" x1="126.6901" x2="549.9054" y1="610.0702" y2="610.0702"/><text fill="#000000" font-family="sans-serif" font-size="13" lengthAdjust="spacing" textLength="410.2153" x="138.6901" y="604.2612">writeToServer(ProtocolManager::MessageType,const QStringList &amp;)</text><line style="stroke:#181818;stroke-width:1;" x1="565.9054" x2="607.9054" y1="671.7762" y2="671.7762"/><line style="stroke:#181818;stroke-width:1;" x1="607.9054" x2="607.9054" y1="671.7762" y2="684.7762"/><line style="stroke:#181818;stroke-width:1;" x1="566.9054" x2="607.9054" y1="684.7762" y2="684.7762"/><polygon fill="#181818" points="576.9054,680.7762,566.9054,684.7762,576.9054,688.7762,572.9054,684.7762" style="stroke:#181818;stroke-width:1;"/><text fill="#000000" font-family="sans-serif" font-size="13" lengthAdjust="spacing" textLength="104.3901" x="572.9054" y="665.9672">calledCreateAcc()</text><polygon fill="#181818" points="538.9054,742.4822,548.9054,746.4822,538.9054,750.4822,542.9054,746.4822" style="stroke:#181818;stroke-width:1;"/><line style="stroke:#181818;stroke-width:1;" x1="0" x2="544.9054" y1="746.4822" y2="746.4822"/><text fill="#000000" font-family="sans-serif" font-size="13" lengthAdjust="spacing" textLength="80.0801" x="7" y="740.6732">getInstance()</text><path d="M80.8532,761.4822 L143.3122,761.4822 L143.3122,771.1882 L133.3122,781.1882 L80.8532,781.1882 L80.8532,761.4822 " fill="#EEEEEE" style="stroke:#000000;stroke-width:1.5;"/><rect fill="transparent" height="202.5301" style="stroke:#000000;stroke-width:1.5;" width="597.3433" x="80.8532" y="761.4822"/><text fill="#000000" font-family="sans-serif" font-size="13" font-weight="bold" lengthAdjust="spacing" textLength="17.459" x="95.8532" y="776.3792">alt</text><text fill="#000000" font-family="sans-serif" font-size="11" font-weight="bold" lengthAdjust="spacing" textLength="102.1232" x="158.3122" y="775.2411">[instance == NULL]</text><line style="stroke:#181818;stroke-width:1;" x1="560.9054" x2="607.9054" y1="799.8943" y2="799.8943"/><line style="stroke:#181818;stroke-width:1;" x1="607.9054" x2="607.9054" y1="799.8943" y2="812.8943"/><line style="stroke:#181818;stroke-width:1;" x1="566.9054" x2="607.9054" y1="812.8943" y2="812.8943"/><polygon fill="#181818" points="576.9054,808.8943,566.9054,812.8943,576.9054,816.8943,572.9054,812.8943" style="stroke:#181818;stroke-width:1;"/><text fill="#000000" font-family="sans-serif" font-size="13" lengthAdjust="spacing" textLength="83.2911" x="572.9054" y="794.0853">RegMachine()</text><polygon fill="#181818" points="132.6901,845.6003,122.6901,849.6003,132.6901,853.6003,128.6901,849.6003" style="stroke:#181818;stroke-width:1;"/><line style="stroke:#181818;stroke-width:1;" x1="126.6901" x2="554.9054" y1="849.6003" y2="849.6003"/><text fill="#000000" font-family="sans-serif" font-size="13" lengthAdjust="spacing" text-decoration="underline" textLength="80.0801" x="138.6901" y="843.7913">getInstance()</text><polygon fill="#181818" points="543.9054,877.3063,553.9054,881.3063,543.9054,885.3063,547.9054,881.3063" style="stroke:#181818;stroke-width:1;"/><line style="stroke:#181818;stroke-width:1;stroke-dasharray:2.0,2.0;" x1="116.6901" x2="549.9054" y1="881.3063" y2="881.3063"/><text fill="#000000" font-family="sans-serif" font-size="13" font-style="italic" lengthAdjust="spacing" textLength="43.2121" x="123.6901" y="875.4973">Client *</text><line style="stroke:#181818;stroke-width:1;" x1="570.9054" x2="612.9054" y1="913.0123" y2="913.0123"/><line style="stroke:#181818;stroke-width:1;" x1="612.9054" x2="612.9054" y1="913.0123" y2="926.0123"/><line style="stroke:#181818;stroke-width:1;" x1="571.9054" x2="612.9054" y1="926.0123" y2="926.0123"/><polygon fill="#181818" points="581.9054,922.0123,571.9054,926.0123,581.9054,930.0123,577.9054,926.0123" style="stroke:#181818;stroke-width:1;"/><text fill="#000000" font-family="sans-serif" font-size="13" lengthAdjust="spacing" textLength="56.6021" x="577.9054" y="907.2033">finished()</text><polygon fill="#181818" points="11,990.7183,1,994.7183,11,998.7183,7,994.7183" style="stroke:#181818;stroke-width:1;"/><line style="stroke:#181818;stroke-width:1;stroke-dasharray:2.0,2.0;" x1="5" x2="554.9054" y1="994.7183" y2="994.7183"/><text fill="#000000" font-family="sans-serif" font-size="13" font-style="italic" lengthAdjust="spacing" textLength="81.1071" x="17" y="988.9093">RegMachine *</text><polygon fill="#181818" points="834.641,1022.4243,844.641,1026.4243,834.641,1030.4243,838.641,1026.4243" style="stroke:#181818;stroke-width:1;"/><line style="stroke:#181818;stroke-width:1;" x1="0" x2="840.641" y1="1026.4243" y2="1026.4243"/><text fill="#000000" font-family="sans-serif" font-size="13" lengthAdjust="spacing" textLength="269.5812" x="7" y="1020.6153">ProtocolManager(const ProtocolManager &amp;)</text><polygon fill="#181818" points="538.9054,1084.1304,548.9054,1088.1304,538.9054,1092.1304,542.9054,1088.1304" style="stroke:#181818;stroke-width:1;"/><line style="stroke:#181818;stroke-width:1;" x1="0" x2="544.9054" y1="1088.1304" y2="1088.1304"/><text fill="#000000" font-family="sans-serif" font-size="13" lengthAdjust="spacing" textLength="83.2911" x="7" y="1082.3214">RegMachine()</text><polygon fill="#181818" points="132.6901,1115.8364,122.6901,1119.8364,132.6901,1123.8364,128.6901,1119.8364" style="stroke:#181818;stroke-width:1;"/><line style="stroke:#181818;stroke-width:1;" x1="126.6901" x2="549.9054" y1="1119.8364" y2="1119.8364"/><text fill="#000000" font-family="sans-serif" font-size="13" lengthAdjust="spacing" text-decoration="underline" textLength="80.0801" x="138.6901" y="1114.0274">getInstance()</text><polygon fill="#181818" points="538.9054,1147.5424,548.9054,1151.5424,538.9054,1155.5424,542.9054,1151.5424" style="stroke:#181818;stroke-width:1;"/><line style="stroke:#181818;stroke-width:1;stroke-dasharray:2.0,2.0;" x1="116.6901" x2="544.9054" y1="1151.5424" y2="1151.5424"/><text fill="#000000" font-family="sans-serif" font-size="13" font-style="italic" lengthAdjust="spacing" textLength="43.2121" x="123.6901" y="1145.7334">Client *</text><line style="stroke:#181818;stroke-width:1;" x1="565.9054" x2="607.9054" y1="1183.2484" y2="1183.2484"/><line style="stroke:#181818;stroke-width:1;" x1="607.9054" x2="607.9054" y1="1183.2484" y2="1196.2484"/><line style="stroke:#181818;stroke-width:1;" x1="566.9054" x2="607.9054" y1="1196.2484" y2="1196.2484"/><polygon fill="#181818" points="576.9054,1192.2484,566.9054,1196.2484,576.9054,1200.2484,572.9054,1196.2484" style="stroke:#181818;stroke-width:1;"/><text fill="#000000" font-family="sans-serif" font-size="13" lengthAdjust="spacing" textLength="56.6021" x="572.9054" y="1177.4394">finished()</text><polygon fill="#181818" points="538.9054,1253.9544,548.9054,1257.9544,538.9054,1261.9544,542.9054,1257.9544" style="stroke:#181818;stroke-width:1;"/><line style="stroke:#181818;stroke-width:1;" x1="0" x2="544.9054" y1="1257.9544" y2="1257.9544"/><text fill="#000000" font-family="sans-serif" font-size="13" lengthAdjust="spacing" textLength="233.9613" x="7" y="1252.1454">authAcc(const User &amp;,const QString &amp;)</text><polygon fill="#181818" points="699.7125,1285.6604,709.7125,1289.6604,699.7125,1293.6604,703.7125,1289.6604" style="stroke:#181818;stroke-width:1;"/><line style="stroke:#181818;stroke-width:1;" x1="560.9054" x2="705.7125" y1="1289.6604" y2="1289.6604"/><text fill="#000000" font-family="sans-serif" font-size="13" lengthAdjust="spacing" textLength="131.8071" x="567.9054" y="1283.8514">get_username() const</text><polygon fill="#181818" points="571.9054,1317.3665,561.9054,1321.3665,571.9054,1325.3665,567.9054,1321.3665" style="stroke:#181818;stroke-width:1;"/><line style="stroke:#181818;stroke-width:1;stroke-dasharray:2.0,2.0;" x1="565.9054" x2="715.7125" y1="1321.3665" y2="1321.3665"/><text fill="#000000" font-family="sans-serif" font-size="13" font-style="italic" lengthAdjust="spacing" textLength="43.836" x="577.9054" y="1315.5575">QString</text><polygon fill="#181818" points="699.7125,1349.0725,709.7125,1353.0725,699.7125,1357.0725,703.7125,1353.0725" style="stroke:#181818;stroke-width:1;"/><line style="stroke:#181818;stroke-width:1;" x1="560.9054" x2="705.7125" y1="1353.0725" y2="1353.0725"/><text fill="#000000" font-family="sans-serif" font-size="13" lengthAdjust="spacing" textLength="129.2201" x="567.9054" y="1347.2635">get_password() const</text><polygon fill="#181818" points="571.9054,1380.7785,561.9054,1384.7785,571.9054,1388.7785,567.9054,1384.7785" style="stroke:#181818;stroke-width:1;"/><line style="stroke:#181818;stroke-width:1;stroke-dasharray:2.0,2.0;" x1="565.9054" x2="715.7125" y1="1384.7785" y2="1384.7785"/><text fill="#000000" font-family="sans-serif" font-size="13" font-style="italic" lengthAdjust="spacing" textLength="43.836" x="577.9054" y="1378.9695">QString</text><polygon fill="#181818" points="132.6901,1412.4845,122.6901,1416.4845,132.6901,1420.4845,128.6901,1416.4845" style="stroke:#181818;stroke-width:1;"/><line style="stroke:#181818;stroke-width:1;" x1="126.6901" x2="549.9054" y1="1416.4845" y2="1416.4845"/><text fill="#000000" font-family="sans-serif" font-size="13" lengthAdjust="spacing" textLength="410.2153" x="138.6901" y="1410.6755">writeToServer(ProtocolManager::MessageType,const QStringList &amp;)</text><line style="stroke:#181818;stroke-width:1;" x1="565.9054" x2="607.9054" y1="1478.1905" y2="1478.1905"/><line style="stroke:#181818;stroke-width:1;" x1="607.9054" x2="607.9054" y1="1478.1905" y2="1491.1905"/><line style="stroke:#181818;stroke-width:1;" x1="566.9054" x2="607.9054" y1="1491.1905" y2="1491.1905"/><polygon fill="#181818" points="576.9054,1487.1905,566.9054,1491.1905,576.9054,1495.1905,572.9054,1491.1905" style="stroke:#181818;stroke-width:1;"/><text fill="#000000" font-family="sans-serif" font-size="13" lengthAdjust="spacing" textLength="93.2231" x="572.9054" y="1472.3815">calledAuthAcc()</text><polygon fill="#181818" points="538.9054,1548.8965,548.9054,1552.8965,538.9054,1556.8965,542.9054,1552.8965" style="stroke:#181818;stroke-width:1;"/><line style="stroke:#181818;stroke-width:1;" x1="0" x2="544.9054" y1="1552.8965" y2="1552.8965"/><text fill="#000000" font-family="sans-serif" font-size="13" lengthAdjust="spacing" textLength="109.7331" x="7" y="1547.0875">onAuthenticated()</text><line style="stroke:#181818;stroke-width:1;" x1="565.9054" x2="607.9054" y1="1584.6026" y2="1584.6026"/><line style="stroke:#181818;stroke-width:1;" x1="607.9054" x2="607.9054" y1="1584.6026" y2="1597.6026"/><line style="stroke:#181818;stroke-width:1;" x1="566.9054" x2="607.9054" y1="1597.6026" y2="1597.6026"/><polygon fill="#181818" points="576.9054,1593.6026,566.9054,1597.6026,576.9054,1601.6026,572.9054,1597.6026" style="stroke:#181818;stroke-width:1;"/><text fill="#000000" font-family="sans-serif" font-size="13" lengthAdjust="spacing" textLength="56.6021" x="572.9054" y="1578.7936">finished()</text><!--SRC=[xLVVRzem47xFNs7rOOMf8JO9-O7MIHNIfaamRMkx5nuYoxc2fU0WnnJrlvzJCXZWa0ongKAy9U7k_7rtv_kEiVqH3MACCN49nbtFZRezWeCGuvwB-YY1NCdivOl85HKCMcsBCiMVgO9ABok1UfivbOepFgT2eQj1oa6eAqJpbKE4NJ-8kdvOs7k1HmYnnhzn6dxKE2UW7dEGhJPYcSQwWz8Oy8Dj7uheE4L0nzcZOmgsHUS7J4QKJRc03ILJ3iQ7Kyyaw3Fl66kzKa857FIkIG6sq1HkQnp4ZN3a-TZpN1-7lS3NhbObXXAVoMcLydYXWmiw0tFUAqypHhGFfyDnljyhoSLaloIdPZMdURxCP79Uh616UNfUb2xjTsc_VqsfGXwMaYjuoEv1FclP-IOpbR4i7L519o3x_H7akNvwU9d3pMfybwY6N3_lJN6JfZJHdLhm5T92qnIImLfWJgNgJMngL4-tobyj6pHLY9SEwFOMVNqS3ezDoqQu6nrzPEV4yHR7EBOQrjaKhlOoh7OhzBxX8dDavfwuuFaKal_QII2IFxQugWHiYcfCmg4M9RxNZRh43LqIODUDUYGCTSoTorwkPpjVz-wuATZUW3BPZ2zDUqPDMrDDkb3JtPL_Mq2Q_GMuB5NdirITxmPoLtRx6xg0cIX0wUd3cGwJd6Qclg7vOrr_1W6ou8QMN4qHIwcOs8jPUeDq7-Ky4mXt_0wsheV3dwFrjrUpzHi9EwGJejOdI399orURT9wOXzk_0000]--></g></svg>