<svg xmlns="http://www.w3.org/2000/svg" xmlns:xlink="http://www.w3.org/1999/xlink" contentStyleType="text/css" data-diagram-type="CLASS" height="1071px" preserveAspectRatio="none" style="width:939px;height:1071px;background:#FFFFFF;" version="1.1" viewBox="0 0 939 1071" width="939px" zoomAndPan="magnify"><defs/><g><!--class C_0007180728308577750051--><g id="elem_C_0007180728308577750051"><rect codeLine="2" fill="#F1F1F1" height="494.5621" id="C_0007180728308577750051" rx="2.5" ry="2.5" style="stroke:#181818;stroke-width:0.5;" width="795.9553" x="7" y="569.5"/><ellipse cx="365.7278" cy="585.5" fill="#ADD1B2" rx="11" ry="11" style="stroke:#181818;stroke-width:1;"/><path d="M365.8371,580.7813 Q364.009,580.7813 362.9621,582.0156 Q361.9153,583.2344 361.9153,585.4219 Q361.9153,587.5781 362.884,588.8125 Q363.8684,590.0469 365.8215,590.0469 Q366.6028,590.0469 367.2903,589.9219 Q367.9934,589.7813 368.9934,589.4688 L368.9934,591.3438 Q368.134,591.6719 367.3684,591.7969 Q366.6184,591.9219 365.6028,591.9219 Q363.6809,591.9219 362.3684,591.125 Q361.0715,590.3125 360.4153,588.8438 Q359.759,587.3594 359.759,585.3906 Q359.759,583.5 360.4621,582.0313 Q361.1653,580.5625 362.5403,579.7344 Q363.9153,578.9063 365.8684,578.9063 Q367.8371,578.9063 369.5559,579.7656 L368.7278,581.5469 Q367.9465,581.1719 367.2903,580.9844 Q366.634,580.7813 365.8371,580.7813 Z " fill="#000000"/><text fill="#000000" font-family="sans-serif" font-size="14" lengthAdjust="spacing" textLength="69.9997" x="386.2278" y="590.932">dbHandler</text><line style="stroke:#181818;stroke-width:0.5;" x1="8" x2="801.9553" y1="601.5" y2="601.5"/><rect fill="#F24D5C" height="6" style="stroke:#C82930;stroke-width:1;" width="6" x="15" y="613.534"/><text fill="#000000" font-family="sans-serif" font-size="14" lengthAdjust="spacing" textLength="117.2355" x="27" y="620.4659">dbHandler() : void</text><rect fill="#F24D5C" height="6" style="stroke:#C82930;stroke-width:1;" width="6" x="15" y="632.6019"/><text fill="#000000" font-family="sans-serif" font-size="14" lengthAdjust="spacing" textLength="125.2435" x="27" y="639.5339">~dbHandler() : void</text><line style="stroke:#181818;stroke-width:1;stroke-dasharray:1.0,2.0;" x1="8" x2="801.9553" y1="647.6358" y2="647.6358"/><ellipse cx="18" cy="662.6698" fill="#84BE84" rx="3" ry="3" style="stroke:#038048;stroke-width:1;"/><text fill="#000000" font-family="sans-serif" font-size="14" lengthAdjust="spacing" text-decoration="underline" textLength="180.2073" x="27" y="666.6018">GetInstance() : dbHandler *</text><ellipse cx="18" cy="681.7377" fill="#84BE84" rx="3" ry="3" style="stroke:#038048;stroke-width:1;"/><text fill="#000000" font-family="sans-serif" font-size="14" lengthAdjust="spacing" textLength="370.3966" x="27" y="685.6697">addFriend(const QString &amp; u1, const QString &amp; u2) : bool</text><ellipse cx="18" cy="700.8056" fill="#84BE84" rx="3" ry="3" style="stroke:#038048;stroke-width:1;"/><text fill="#000000" font-family="sans-serif" font-size="14" lengthAdjust="spacing" textLength="436.2804" x="27" y="704.7376">addFriendRequest(const QString &amp; from, const QString &amp; to) : bool</text><ellipse cx="18" cy="719.8735" fill="#84BE84" rx="3" ry="3" style="stroke:#038048;stroke-width:1;"/><text fill="#000000" font-family="sans-serif" font-size="14" lengthAdjust="spacing" textLength="373.5605" x="27" y="723.8055">areFriends(const QString &amp; u1, const QString &amp; u2) : bool</text><ellipse cx="18" cy="738.9415" fill="#84BE84" rx="3" ry="3" style="stroke:#038048;stroke-width:1;"/><text fill="#000000" font-family="sans-serif" font-size="14" lengthAdjust="spacing" textLength="250.207" x="27" y="742.8734">availUsername(const QString &amp;) : bool</text><ellipse cx="18" cy="758.0094" fill="#84BE84" rx="3" ry="3" style="stroke:#038048;stroke-width:1;"/><text fill="#000000" font-family="sans-serif" font-size="14" lengthAdjust="spacing" textLength="107.1836" x="27" y="761.9414">cleanReg() : void</text><ellipse cx="18" cy="777.0773" fill="#84BE84" rx="3" ry="3" style="stroke:#038048;stroke-width:1;"/><text fill="#000000" font-family="sans-serif" font-size="14" lengthAdjust="spacing" text-decoration="underline" textLength="153.1734" x="27" y="781.0093">destroyInstance() : void</text><ellipse cx="18" cy="796.1452" fill="#84BE84" rx="3" ry="3" style="stroke:#038048;stroke-width:1;"/><text fill="#000000" font-family="sans-serif" font-size="14" lengthAdjust="spacing" textLength="419.8724" x="27" y="800.0772">emailValidate(const QString &amp; user, const QString &amp; code) : bool</text><ellipse cx="18" cy="815.2131" fill="#84BE84" rx="3" ry="3" style="stroke:#038048;stroke-width:1;"/><text fill="#000000" font-family="sans-serif" font-size="14" lengthAdjust="spacing" textLength="331.8268" x="27" y="819.1451">getFriendRequests(const QString &amp; u) : QStringList</text><ellipse cx="18" cy="834.281" fill="#84BE84" rx="3" ry="3" style="stroke:#038048;stroke-width:1;"/><text fill="#000000" font-family="sans-serif" font-size="14" lengthAdjust="spacing" textLength="317.6728" x="27" y="838.213">getFriendslist(const QString &amp; user) : QStringList</text><ellipse cx="18" cy="853.349" fill="#84BE84" rx="3" ry="3" style="stroke:#038048;stroke-width:1;"/><text fill="#000000" font-family="sans-serif" font-size="14" lengthAdjust="spacing" textLength="595.5297" x="27" y="857.2809">getMessages(const QString &amp; u1, const QString &amp; u2, int start = 0, int length = 50) : QString</text><ellipse cx="18" cy="872.4169" fill="#84BE84" rx="3" ry="3" style="stroke:#038048;stroke-width:1;"/><text fill="#000000" font-family="sans-serif" font-size="14" lengthAdjust="spacing" textLength="414.9445" x="27" y="876.3489">loginValidate(const QString &amp; user, const QString &amp; pass) : bool</text><ellipse cx="18" cy="891.4848" fill="#84BE84" rx="3" ry="3" style="stroke:#038048;stroke-width:1;"/><text fill="#000000" font-family="sans-serif" font-size="14" lengthAdjust="spacing" textLength="769.9553" x="27" y="895.4168">newUser(const QString &amp; user, const QString &amp; pass, const QString &amp; email, bool perm = 0, bool autoval = 0) : QString</text><ellipse cx="18" cy="910.5527" fill="#84BE84" rx="3" ry="3" style="stroke:#038048;stroke-width:1;"/><text fill="#000000" font-family="sans-serif" font-size="14" lengthAdjust="spacing" textLength="395.5685" x="27" y="914.4847">removeFriend(const QString &amp; u1, const QString &amp; u2) : bool</text><ellipse cx="18" cy="929.6206" fill="#84BE84" rx="3" ry="3" style="stroke:#038048;stroke-width:1;"/><text fill="#000000" font-family="sans-serif" font-size="14" lengthAdjust="spacing" textLength="461.4523" x="27" y="933.5526">removeFriendRequest(const QString &amp; from, const QString &amp; to) : bool</text><ellipse cx="18" cy="948.6885" fill="#84BE84" rx="3" ry="3" style="stroke:#038048;stroke-width:1;"/><text fill="#000000" font-family="sans-serif" font-size="14" lengthAdjust="spacing" textLength="260.189" x="27" y="952.6205">removeReg(const QString &amp; user) : bool</text><ellipse cx="18" cy="967.7565" fill="#84BE84" rx="3" ry="3" style="stroke:#038048;stroke-width:1;"/><text fill="#000000" font-family="sans-serif" font-size="14" lengthAdjust="spacing" textLength="275.407" x="27" y="971.6884">storeMessage(const QJsonObject &amp;) : bool</text><ellipse cx="18" cy="986.8244" fill="#84BE84" rx="3" ry="3" style="stroke:#038048;stroke-width:1;"/><text fill="#000000" font-family="sans-serif" font-size="14" lengthAdjust="spacing" textLength="218.3572" x="27" y="990.7564">userExists(const QString &amp;) : bool</text><line style="stroke:#181818;stroke-width:0.5;" x1="8" x2="801.9553" y1="998.8583" y2="998.8583"/><rect fill="transparent" height="6" style="stroke:#C82930;stroke-width:1;" width="6" x="15" y="1010.8923"/><text fill="#000000" font-family="sans-serif" font-size="14" lengthAdjust="spacing" textLength="141.8614" x="27" y="1017.8243">connection : MYSQL *</text><rect fill="transparent" height="6" style="stroke:#C82930;stroke-width:1;" width="6" x="15" y="1029.9602"/><text fill="#000000" font-family="sans-serif" font-size="14" lengthAdjust="spacing" text-decoration="underline" textLength="168.6014" x="27" y="1036.8922">dbHandler_ : dbHandler *</text><rect fill="transparent" height="6" style="stroke:#C82930;stroke-width:1;" width="6" x="15" y="1049.0281"/><text fill="#000000" font-family="sans-serif" font-size="14" lengthAdjust="spacing" textLength="96.7676" x="27" y="1055.9601">mysql : MYSQL</text></g><!--class C_0007168929316485241399--><g id="elem_C_0007168929316485241399"><rect codeLine="30" fill="#F1F1F1" height="483.4942" id="C_0007168929316485241399" rx="2.5" ry="2.5" style="stroke:#181818;stroke-width:0.5;" width="554.498" x="127.73" y="7"/><ellipse cx="379.6521" cy="23" fill="#ADD1B2" rx="11" ry="11" style="stroke:#181818;stroke-width:1;"/><path d="M379.7615,18.2813 Q377.9334,18.2813 376.8865,19.5156 Q375.8396,20.7344 375.8396,22.9219 Q375.8396,25.0781 376.8084,26.3125 Q377.7927,27.5469 379.7459,27.5469 Q380.5271,27.5469 381.2146,27.4219 Q381.9177,27.2813 382.9177,26.9688 L382.9177,28.8438 Q382.0584,29.1719 381.2927,29.2969 Q380.5427,29.4219 379.5271,29.4219 Q377.6052,29.4219 376.2927,28.625 Q374.9959,27.8125 374.3396,26.3438 Q373.6834,24.8594 373.6834,22.8906 Q373.6834,21 374.3865,19.5313 Q375.0896,18.0625 376.4646,17.2344 Q377.8396,16.4063 379.7927,16.4063 Q381.7615,16.4063 383.4802,17.2656 L382.6521,19.0469 Q381.8709,18.6719 381.2146,18.4844 Q380.5584,18.2813 379.7615,18.2813 Z " fill="#000000"/><text fill="#000000" font-family="sans-serif" font-size="14" lengthAdjust="spacing" textLength="42.1538" x="400.1521" y="28.432">Server</text><line style="stroke:#181818;stroke-width:0.5;" x1="128.73" x2="681.228" y1="39" y2="39"/><rect fill="#F24D5C" height="6" style="stroke:#C82930;stroke-width:1;" width="6" x="135.73" y="51.034"/><text fill="#000000" font-family="sans-serif" font-size="14" lengthAdjust="spacing" textLength="254.239" x="147.73" y="57.9659">Server(QObject * parent = __null) : void</text><rect fill="#F24D5C" height="6" style="stroke:#C82930;stroke-width:1;" width="6" x="135.73" y="70.1019"/><text fill="#000000" font-family="sans-serif" font-size="14" lengthAdjust="spacing" textLength="249.535" x="147.73" y="77.0339">Server(const Server &amp;) = deleted : void</text><rect fill="#F24D5C" height="6" style="stroke:#C82930;stroke-width:1;" width="6" x="135.73" y="89.1698"/><text fill="#000000" font-family="sans-serif" font-size="14" lengthAdjust="spacing" textLength="97.3976" x="147.73" y="96.1018">~Server() : void</text><line style="stroke:#181818;stroke-width:1;stroke-dasharray:1.0,2.0;" x1="128.73" x2="681.228" y1="104.2038" y2="104.2038"/><rect fill="#F24D5C" height="6" style="stroke:#C82930;stroke-width:1;" width="6" x="135.73" y="116.2377"/><text fill="#000000" font-family="sans-serif" font-size="14" lengthAdjust="spacing" textLength="301.5448" x="147.73" y="123.1697">operator=(const Server &amp;) = deleted : Server &amp;</text><line style="stroke:#181818;stroke-width:1;stroke-dasharray:1.0,2.0;" x1="128.73" x2="681.228" y1="131.2717" y2="131.2717"/><ellipse cx="138.73" cy="146.3056" fill="#84BE84" rx="3" ry="3" style="stroke:#038048;stroke-width:1;"/><text fill="#000000" font-family="sans-serif" font-size="14" lengthAdjust="spacing" text-decoration="underline" textLength="153.1734" x="147.73" y="150.2376">destroyInstance() : void</text><ellipse cx="138.73" cy="165.3735" fill="#84BE84" rx="3" ry="3" style="stroke:#038048;stroke-width:1;"/><text fill="#000000" font-family="sans-serif" font-size="14" lengthAdjust="spacing" text-decoration="underline" textLength="150.7794" x="147.73" y="169.3055">getInstance() : Server *</text><ellipse cx="138.73" cy="184.4415" fill="#84BE84" rx="3" ry="3" style="stroke:#038048;stroke-width:1;"/><text fill="#000000" font-family="sans-serif" font-size="14" lengthAdjust="spacing" textLength="273.251" x="147.73" y="188.3734">metaObject() const : const QMetaObject *</text><rect fill="#F24D5C" height="6" style="stroke:#C82930;stroke-width:1;" width="6" x="135.73" y="200.5094"/><text fill="#000000" font-family="sans-serif" font-size="14" lengthAdjust="spacing" textLength="168.9233" x="147.73" y="207.4414">onNewConnection() : void</text><ellipse cx="138.73" cy="222.5773" fill="#84BE84" rx="3" ry="3" style="stroke:#038048;stroke-width:1;"/><text fill="#000000" font-family="sans-serif" font-size="14" lengthAdjust="spacing" textLength="309.9868" x="147.73" y="226.5093">qt_metacall(QMetaObject::Call, int, void **) : int</text><ellipse cx="138.73" cy="241.6452" fill="#84BE84" rx="3" ry="3" style="stroke:#038048;stroke-width:1;"/><text fill="#000000" font-family="sans-serif" font-size="14" lengthAdjust="spacing" textLength="218.3012" x="147.73" y="245.5772">qt_metacast(const char *) : void *</text><rect fill="#F24D5C" height="6" style="stroke:#C82930;stroke-width:1;" width="6" x="135.73" y="257.7131"/><text fill="#000000" font-family="sans-serif" font-size="14" lengthAdjust="spacing" text-decoration="underline" textLength="434.1944" x="147.73" y="264.6451">qt_static_metacall(QObject *, QMetaObject::Call, int, void **) : void</text><ellipse cx="138.73" cy="279.781" fill="#84BE84" rx="3" ry="3" style="stroke:#038048;stroke-width:1;"/><text fill="#000000" font-family="sans-serif" font-size="14" lengthAdjust="spacing" text-decoration="underline" textLength="391.9705" x="147.73" y="283.713">tr(const char * s, const char * c = nullptr, int n = -1) : QString</text><ellipse cx="138.73" cy="298.849" fill="#84BE84" rx="3" ry="3" style="stroke:#038048;stroke-width:1;"/><text fill="#000000" font-family="sans-serif" font-size="14" lengthAdjust="spacing" text-decoration="underline" textLength="420.0825" x="147.73" y="302.7809">trUtf8(const char * s, const char * c = nullptr, int n = -1) : QString</text><rect fill="#F24D5C" height="6" style="stroke:#C82930;stroke-width:1;" width="6" x="135.73" y="314.9169"/><text fill="#000000" font-family="sans-serif" font-size="14" lengthAdjust="spacing" textLength="93.9116" x="147.73" y="321.8489">update() : void</text><rect fill="#F24D5C" height="6" style="stroke:#C82930;stroke-width:1;" width="6" x="135.73" y="333.9848"/><text fill="#000000" font-family="sans-serif" font-size="14" lengthAdjust="spacing" textLength="528.498" x="147.73" y="340.9168">writeToSocket(QTcpSocket * s, Protocol t, const QList&lt;QJsonValue&gt; &amp; argv) : void</text><rect fill="#F24D5C" height="6" style="stroke:#C82930;stroke-width:1;" width="6" x="135.73" y="353.0527"/><text fill="#000000" font-family="sans-serif" font-size="14" lengthAdjust="spacing" textLength="468.7743" x="147.73" y="359.9847">writeToUserRaw(const QString &amp; name, const QByteArray &amp; data) : void</text><line style="stroke:#181818;stroke-width:0.5;" x1="128.73" x2="681.228" y1="368.0867" y2="368.0867"/><rect fill="transparent" height="6" style="stroke:#C82930;stroke-width:1;" width="6" x="135.73" y="380.1206"/><text fill="#000000" font-family="sans-serif" font-size="14" lengthAdjust="spacing" textLength="109.6056" x="147.73" y="387.0526">db : dbHandler *</text><rect fill="transparent" height="6" style="stroke:#C82930;stroke-width:1;" width="6" x="135.73" y="399.1885"/><text fill="#000000" font-family="sans-serif" font-size="14" lengthAdjust="spacing" text-decoration="underline" textLength="119.6855" x="147.73" y="406.1205">instance : Server *</text><rect fill="transparent" height="6" style="stroke:#C82930;stroke-width:1;" width="6" x="135.73" y="418.2565"/><text fill="#000000" font-family="sans-serif" font-size="14" lengthAdjust="spacing" textLength="147.7974" x="147.73" y="425.1884">listener : QTcpServer *</text><rect fill="transparent" height="6" style="stroke:#C82930;stroke-width:1;" width="6" x="135.73" y="437.3244"/><text fill="#000000" font-family="sans-serif" font-size="14" lengthAdjust="spacing" textLength="404.5005" x="147.73" y="444.2564">onlineUserMap : std::unordered_map&lt;QString,QTcpSocket *&gt;</text><ellipse cx="138.73" cy="459.3923" fill="transparent" rx="3" ry="3" style="stroke:#038048;stroke-width:1;"/><text fill="#000000" font-family="sans-serif" font-size="14" lengthAdjust="spacing" text-decoration="underline" textLength="248.8631" x="147.73" y="463.3243">staticMetaObject : const QMetaObject</text><rect fill="transparent" height="6" style="stroke:#C82930;stroke-width:1;" width="6" x="135.73" y="475.4602"/><text fill="#000000" font-family="sans-serif" font-size="14" lengthAdjust="spacing" textLength="106.9176" x="147.73" y="482.3922">timer : QTimer *</text></g><!--link C_0007180728308577750051 to C_0007180728308577750051--><g id="link_C_0007180728308577750051_C_0007180728308577750051"><path codeLine="57" d="M803.19,780.86 C824.99,789.61 837.96,801.59 837.96,816.78 C837.96,831.97 830.5582,841.7151 808.7582,850.4651 " fill="transparent" id="C_0007180728308577750051-to-C_0007180728308577750051" style="stroke:#181818;stroke-width:1;"/><polygon fill="#181818" points="803.19,852.7,813.0323,853.0597,807.8302,850.8375,810.0524,845.6354,803.19,852.7" style="stroke:#181818;stroke-width:1;"/><rect fill="transparent" height="6" style="stroke:#C82930;stroke-width:1;" width="6" x="845.96" y="814.633"/><text fill="#000000" font-family="sans-serif" font-size="13" lengthAdjust="spacing" textLength="70.7721" x="855.96" y="822.177">dbHandler_</text></g><!--link C_0007168929316485241399 to C_0007180728308577750051--><g id="link_C_0007168929316485241399_C_0007180728308577750051"><path codeLine="58" d="M404.98,490.62 C404.98,516.65 404.98,537.16 404.98,563.25 " fill="transparent" id="C_0007168929316485241399-to-C_0007180728308577750051" style="stroke:#181818;stroke-width:1;"/><polygon fill="#181818" points="404.98,569.25,408.98,560.25,404.98,564.25,400.98,560.25,404.98,569.25" style="stroke:#181818;stroke-width:1;"/><rect fill="transparent" height="6" style="stroke:#C82930;stroke-width:1;" width="6" x="407.98" y="527.853"/><text fill="#000000" font-family="sans-serif" font-size="13" lengthAdjust="spacing" textLength="15.99" x="417.98" y="535.397">db</text></g><!--link C_0007168929316485241399 to C_0007168929316485241399--><g id="link_C_0007168929316485241399_C_0007168929316485241399"><path codeLine="59" d="M682.58,209 C704.01,217.78 717.23,231.04 717.23,248.75 C717.23,266.47 709.5612,277.4431 688.1312,286.2331 " fill="transparent" id="C_0007168929316485241399-to-C_0007168929316485241399" style="stroke:#181818;stroke-width:1;"/><polygon fill="#181818" points="682.58,288.51,692.4247,288.7954,687.206,286.6125,689.3888,281.3938,682.58,288.51" style="stroke:#181818;stroke-width:1;"/><rect fill="transparent" height="6" style="stroke:#C82930;stroke-width:1;" width="6" x="725.23" y="246.603"/><text fill="#000000" font-family="sans-serif" font-size="13" lengthAdjust="spacing" textLength="51.207" x="735.23" y="254.147">instance</text></g><!--SRC=[fLPjJzim4FwUNs7nONHjKoL0QQa0QKE3RMgtyIhjKsMI8tXpxE8uxIh4VllEIPguJRi1- -RptJrtlfSd2JXD4h8Ltdwa8kIWjWXDoCdOyxoUt_TwE_rThz_jzNfTp-lwJf1PRrAJHySjWHfloO1C9GiTz_UQoqx7UKmqrInu8gqpq9y4IYA0pAAq9qsdHSFmL34GOIEGQ4JEBxLY8Y9lIEgtIUrknm3SIiajpmjuI27HDO0x9UCwX9OMX88S8dbvz2bb_3e19MWCgzwLMS21YWk8gj9KTGanQINdIxN9J5eG8_WDvIoa6kgfOTHwSe4CeOeRWLugpfe76kD27B94Mpu9PslAQSAkynb1aj08dbl2Dc524tooqkI8UBd8GKJw7kMkPuLmMbn6JBom41CSugeG0cQcIo_mhTzcxMXdW6G2AixppaIQQZcbtDmi9QuWbbDuvMJRpgyVxXp5pDwcJkPsYPOAYYOkJ3ydKdoz_G61jeVP-7tunTPCKsap7ZikwWHwCYdmTlJzydo8YrwEVSKXunKkSEDvyi0NFivJmKTRbw2cozIrtp_OETZrz_VwtPqzV_VWO9cwQcf3NJbAuxnuLXDxhK2O6HoFHSfvHMY5PVx4N30lF28XSD0GLinNMDgqvqgS48ebFVehmE9scIatCa9b4gsGQG64J1g3fldZK9777Ym6P5JgJ9sb-0Apax9B5l4ywB612IZd3SjfC3Z1csnLsvabQJQD4ygMJpcbmJt5Z1QeIyr7u_ninLaarYRF2BbI3gsMOf9oUmivmAgRxawqofb6u8NhsxjgWrthk_v_0xhf9AEhQg9cYccuafSo-0cwSNuLJF9ZZlzDIIq391DTBhGXryDi2v7yKZZ6fQKgcjOG3RLTq5bjmyr7gGHxFzVmJYawHmKcHaiKiwpXxSeMLhrYnPpPK-QQJmC8FEDxpJjAXHIS2J09ZUW4jOaE1uDKI1M2Wd0SqybXaL_RBi2nLV_yOCtgclbrNCtY8dnsQ29HRFnbSTtZpVyp0vkBd8tSyM-CP_dMbOEgn8wpVMQgIWqxp1X-2f7GHEIcCQu05ZWnPEfrzZkUipqStepAkyoibFn-n-_qIUCKGgbe8Rf-voxOyzx-0G00]--></g></svg>