<svg xmlns="http://www.w3.org/2000/svg" xmlns:xlink="http://www.w3.org/1999/xlink" contentStyleType="text/css" data-diagram-type="CLASS" height="1332px" preserveAspectRatio="none" style="width:1366px;height:1332px;background:#FFFFFF;" version="1.1" viewBox="0 0 1366 1332" width="1366px" zoomAndPan="magnify"><defs/><g><!--class C_0013909460443608576024--><g id="elem_C_0013909460443608576024"><rect codeLine="2" fill="#F1F1F1" height="227.6113" id="C_0013909460443608576024" rx="2.5" ry="2.5" style="stroke:#181818;stroke-width:0.5;" width="649.8375" x="7" y="1097.99"/><ellipse cx="312.3598" cy="1113.99" fill="#ADD1B2" rx="11" ry="11" style="stroke:#181818;stroke-width:1;"/><path d="M312.4692,1109.2712 Q310.6411,1109.2712 309.5942,1110.5056 Q308.5473,1111.7244 308.5473,1113.9119 Q308.5473,1116.0681 309.5161,1117.3025 Q310.5004,1118.5369 312.4536,1118.5369 Q313.2348,1118.5369 313.9223,1118.4119 Q314.6254,1118.2712 315.6254,1117.9587 L315.6254,1119.8337 Q314.7661,1120.1619 314.0004,1120.2869 Q313.2504,1120.4119 312.2348,1120.4119 Q310.3129,1120.4119 309.0004,1119.615 Q307.7036,1118.8025 307.0473,1117.3337 Q306.3911,1115.8494 306.3911,1113.8806 Q306.3911,1111.99 307.0942,1110.5212 Q307.7973,1109.0525 309.1723,1108.2244 Q310.5473,1107.3962 312.5004,1107.3962 Q314.4692,1107.3962 316.1879,1108.2556 L315.3598,1110.0369 Q314.5786,1109.6619 313.9223,1109.4744 Q313.2661,1109.2712 312.4692,1109.2712 Z " fill="#000000"/><text fill="#000000" font-family="sans-serif" font-size="14" lengthAdjust="spacing" textLength="30.6179" x="332.8598" y="1119.422">User</text><line style="stroke:#181818;stroke-width:0.5;" x1="8" x2="655.8375" y1="1129.99" y2="1129.99"/><ellipse cx="18" cy="1145.024" fill="#84BE84" rx="3" ry="3" style="stroke:#038048;stroke-width:1;"/><text fill="#000000" font-family="sans-serif" font-size="14" lengthAdjust="spacing" textLength="306.5848" x="27" y="1148.9559">User(const QString &amp; u, const QString &amp; pass =</text><text fill="#000000" font-family="monospace" font-size="14" lengthAdjust="spacing" textLength="176.3992" x="337.2248" y="1148.9559">,&#160;const&#160;QString&#160;&amp;&#160;e&#160;=</text><text fill="#000000" font-family="sans-serif" font-size="14" lengthAdjust="spacing" textLength="128.8135" x="522.024" y="1148.9559">, bool per = 0) : void</text><line style="stroke:#181818;stroke-width:1;stroke-dasharray:1.0,2.0;" x1="8" x2="655.8375" y1="1157.0579" y2="1157.0579"/><ellipse cx="18" cy="1172.0919" fill="#84BE84" rx="3" ry="3" style="stroke:#038048;stroke-width:1;"/><text fill="#000000" font-family="sans-serif" font-size="14" lengthAdjust="spacing" textLength="172.8433" x="27" y="1176.0239">get_email() const : QString</text><ellipse cx="18" cy="1191.1598" fill="#84BE84" rx="3" ry="3" style="stroke:#038048;stroke-width:1;"/><text fill="#000000" font-family="sans-serif" font-size="14" lengthAdjust="spacing" textLength="200.5213" x="27" y="1195.0918">get_password() const : QString</text><ellipse cx="18" cy="1210.2277" fill="#84BE84" rx="3" ry="3" style="stroke:#038048;stroke-width:1;"/><text fill="#000000" font-family="sans-serif" font-size="14" lengthAdjust="spacing" textLength="195.4533" x="27" y="1214.1597">get_permissions() const : bool</text><ellipse cx="18" cy="1229.2956" fill="#84BE84" rx="3" ry="3" style="stroke:#038048;stroke-width:1;"/><text fill="#000000" font-family="sans-serif" font-size="14" lengthAdjust="spacing" textLength="203.3072" x="27" y="1233.2276">get_username() const : QString</text><line style="stroke:#181818;stroke-width:0.5;" x1="8" x2="655.8375" y1="1241.3296" y2="1241.3296"/><rect fill="transparent" height="6" style="stroke:#C82930;stroke-width:1;" width="6" x="15" y="1253.3635"/><text fill="#000000" font-family="sans-serif" font-size="14" lengthAdjust="spacing" textLength="103.6416" x="27" y="1260.2955">email_ : QString</text><rect fill="transparent" height="6" style="stroke:#C82930;stroke-width:1;" width="6" x="15" y="1272.4315"/><text fill="#000000" font-family="sans-serif" font-size="14" lengthAdjust="spacing" textLength="97.4536" x="27" y="1279.3634">pass_ : QString</text><rect fill="transparent" height="6" style="stroke:#C82930;stroke-width:1;" width="6" x="15" y="1291.4994"/><text fill="#000000" font-family="sans-serif" font-size="14" lengthAdjust="spacing" textLength="68.6977" x="27" y="1298.4314">per_ : bool</text><rect fill="transparent" height="6" style="stroke:#C82930;stroke-width:1;" width="6" x="15" y="1310.5673"/><text fill="#000000" font-family="sans-serif" font-size="14" lengthAdjust="spacing" textLength="76.2297" x="27" y="1317.4993">u_ : QString</text></g><!--class C_0007180728308577750051--><g id="elem_C_0007180728308577750051"><rect codeLine="16" fill="#F1F1F1" height="380.1546" id="C_0007180728308577750051" rx="2.5" ry="2.5" style="stroke:#181818;stroke-width:0.5;" width="621.5297" x="21.15" y="613.16"/><ellipse cx="292.665" cy="629.16" fill="#ADD1B2" rx="11" ry="11" style="stroke:#181818;stroke-width:1;"/><path d="M292.7744,624.4412 Q290.9462,624.4412 289.8994,625.6756 Q288.8525,626.8944 288.8525,629.0819 Q288.8525,631.2381 289.8212,632.4725 Q290.8056,633.7069 292.7587,633.7069 Q293.54,633.7069 294.2275,633.5819 Q294.9306,633.4412 295.9306,633.1287 L295.9306,635.0037 Q295.0712,635.3319 294.3056,635.4569 Q293.5556,635.5819 292.54,635.5819 Q290.6181,635.5819 289.3056,634.785 Q288.0087,633.9725 287.3525,632.5037 Q286.6962,631.0194 286.6962,629.0506 Q286.6962,627.16 287.3994,625.6912 Q288.1025,624.2225 289.4775,623.3944 Q290.8525,622.5662 292.8056,622.5662 Q294.7744,622.5662 296.4931,623.4256 L295.665,625.2069 Q294.8837,624.8319 294.2275,624.6444 Q293.5712,624.4412 292.7744,624.4412 Z " fill="#000000"/><text fill="#000000" font-family="sans-serif" font-size="14" lengthAdjust="spacing" textLength="69.9997" x="313.165" y="634.592">dbHandler</text><line style="stroke:#181818;stroke-width:0.5;" x1="22.15" x2="641.6797" y1="645.16" y2="645.16"/><rect fill="#F24D5C" height="6" style="stroke:#C82930;stroke-width:1;" width="6" x="29.15" y="657.194"/><text fill="#000000" font-family="sans-serif" font-size="14" lengthAdjust="spacing" textLength="117.2355" x="41.15" y="664.1259">dbHandler() : void</text><rect fill="#F24D5C" height="6" style="stroke:#C82930;stroke-width:1;" width="6" x="29.15" y="676.2619"/><text fill="#000000" font-family="sans-serif" font-size="14" lengthAdjust="spacing" textLength="125.2435" x="41.15" y="683.1939">~dbHandler() : void</text><line style="stroke:#181818;stroke-width:1;stroke-dasharray:1.0,2.0;" x1="22.15" x2="641.6797" y1="691.2958" y2="691.2958"/><ellipse cx="32.15" cy="706.3298" fill="#84BE84" rx="3" ry="3" style="stroke:#038048;stroke-width:1;"/><text fill="#000000" font-family="sans-serif" font-size="14" lengthAdjust="spacing" text-decoration="underline" textLength="180.2073" x="41.15" y="710.2618">GetInstance() : dbHandler *</text><ellipse cx="32.15" cy="725.3977" fill="#84BE84" rx="3" ry="3" style="stroke:#038048;stroke-width:1;"/><text fill="#000000" font-family="sans-serif" font-size="14" lengthAdjust="spacing" textLength="290.3729" x="41.15" y="729.3297">addFriend(const User &amp;, const User &amp;) : bool</text><ellipse cx="32.15" cy="744.4656" fill="#84BE84" rx="3" ry="3" style="stroke:#038048;stroke-width:1;"/><text fill="#000000" font-family="sans-serif" font-size="14" lengthAdjust="spacing" textLength="230.4951" x="41.15" y="748.3976">availUsername(const User &amp;) : bool</text><ellipse cx="32.15" cy="763.5335" fill="#84BE84" rx="3" ry="3" style="stroke:#038048;stroke-width:1;"/><text fill="#000000" font-family="sans-serif" font-size="14" lengthAdjust="spacing" textLength="107.1836" x="41.15" y="767.4655">cleanReg() : void</text><ellipse cx="32.15" cy="782.6015" fill="#84BE84" rx="3" ry="3" style="stroke:#038048;stroke-width:1;"/><text fill="#000000" font-family="sans-serif" font-size="14" lengthAdjust="spacing" text-decoration="underline" textLength="153.1734" x="41.15" y="786.5334">destroyInstance() : void</text><ellipse cx="32.15" cy="801.6694" fill="#84BE84" rx="3" ry="3" style="stroke:#038048;stroke-width:1;"/><text fill="#000000" font-family="sans-serif" font-size="14" lengthAdjust="spacing" textLength="367.4846" x="41.15" y="805.6014">emailValidate(const User &amp;, const QString &amp; code) : bool</text><ellipse cx="32.15" cy="820.7373" fill="#84BE84" rx="3" ry="3" style="stroke:#038048;stroke-width:1;"/><text fill="#000000" font-family="sans-serif" font-size="14" lengthAdjust="spacing" textLength="305.4509" x="41.15" y="824.6693">getFriendslist(const User &amp;) : std::list&lt;QString&gt;</text><ellipse cx="32.15" cy="839.8052" fill="#84BE84" rx="3" ry="3" style="stroke:#038048;stroke-width:1;"/><text fill="#000000" font-family="sans-serif" font-size="14" lengthAdjust="spacing" textLength="595.5297" x="41.15" y="843.7372">getMessages(const QString &amp; u1, const QString &amp; u2, int start = 0, int length = 10) : QString</text><ellipse cx="32.15" cy="858.8731" fill="#84BE84" rx="3" ry="3" style="stroke:#038048;stroke-width:1;"/><text fill="#000000" font-family="sans-serif" font-size="14" lengthAdjust="spacing" textLength="218.1892" x="41.15" y="862.8051">loginValidate(const User &amp;) : bool</text><ellipse cx="32.15" cy="877.941" fill="#84BE84" rx="3" ry="3" style="stroke:#038048;stroke-width:1;"/><text fill="#000000" font-family="sans-serif" font-size="14" lengthAdjust="spacing" textLength="323.7768" x="41.15" y="881.873">newUser(const User &amp;, bool autoval = 0) : QString</text><ellipse cx="32.15" cy="897.009" fill="#84BE84" rx="3" ry="3" style="stroke:#038048;stroke-width:1;"/><text fill="#000000" font-family="sans-serif" font-size="14" lengthAdjust="spacing" textLength="207.8012" x="41.15" y="900.9409">removeReg(const User &amp;) : bool</text><ellipse cx="32.15" cy="916.0769" fill="#84BE84" rx="3" ry="3" style="stroke:#038048;stroke-width:1;"/><text fill="#000000" font-family="sans-serif" font-size="14" lengthAdjust="spacing" textLength="275.407" x="41.15" y="920.0089">storeMessage(const QJsonObject &amp;) : bool</text><line style="stroke:#181818;stroke-width:0.5;" x1="22.15" x2="641.6797" y1="928.1108" y2="928.1108"/><rect fill="transparent" height="6" style="stroke:#C82930;stroke-width:1;" width="6" x="29.15" y="940.1448"/><text fill="#000000" font-family="sans-serif" font-size="14" lengthAdjust="spacing" textLength="141.8614" x="41.15" y="947.0768">connection : MYSQL *</text><rect fill="transparent" height="6" style="stroke:#C82930;stroke-width:1;" width="6" x="29.15" y="959.2127"/><text fill="#000000" font-family="sans-serif" font-size="14" lengthAdjust="spacing" text-decoration="underline" textLength="168.6014" x="41.15" y="966.1447">dbHandler_ : dbHandler *</text><rect fill="transparent" height="6" style="stroke:#C82930;stroke-width:1;" width="6" x="29.15" y="978.2806"/><text fill="#000000" font-family="sans-serif" font-size="14" lengthAdjust="spacing" textLength="96.7676" x="41.15" y="985.2126">mysql : MYSQL</text></g><!--class C_0012766499065510760009--><g id="elem_C_0012766499065510760009"><rect codeLine="38" fill="#F1F1F1" height="48" id="C_0012766499065510760009" rx="2.5" ry="2.5" style="stroke:#181818;stroke-width:0.5;" width="120.6477" x="719.59" y="224.75"/><ellipse cx="734.59" cy="240.75" fill="#ADD1B2" rx="11" ry="11" style="stroke:#181818;stroke-width:1;"/><path d="M734.6994,236.0313 Q732.8713,236.0313 731.8244,237.2656 Q730.7775,238.4844 730.7775,240.6719 Q730.7775,242.8281 731.7463,244.0625 Q732.7306,245.2969 734.6838,245.2969 Q735.465,245.2969 736.1525,245.1719 Q736.8556,245.0313 737.8556,244.7188 L737.8556,246.5938 Q736.9963,246.9219 736.2306,247.0469 Q735.4806,247.1719 734.465,247.1719 Q732.5431,247.1719 731.2306,246.375 Q729.9338,245.5625 729.2775,244.0938 Q728.6213,242.6094 728.6213,240.6406 Q728.6213,238.75 729.3244,237.2813 Q730.0275,235.8125 731.4025,234.9844 Q732.7775,234.1563 734.7306,234.1563 Q736.6994,234.1563 738.4181,235.0156 L737.59,236.7969 Q736.8088,236.4219 736.1525,236.2344 Q735.4963,236.0313 734.6994,236.0313 Z " fill="#000000"/><text fill="#000000" font-family="sans-serif" font-size="14" lengthAdjust="spacing" textLength="88.6477" x="748.59" y="246.182">ProtocolError</text><line style="stroke:#181818;stroke-width:0.5;" x1="720.59" x2="839.2377" y1="256.75" y2="256.75"/><line style="stroke:#181818;stroke-width:0.5;" x1="720.59" x2="839.2377" y1="264.75" y2="264.75"/></g><!--class C_0016429213831703395188--><g id="elem_C_0016429213831703395188"><rect codeLine="42" fill="#F1F1F1" height="159.3396" id="C_0016429213831703395188" rx="2.5" ry="2.5" style="stroke:#181818;stroke-width:0.5;" width="484.2742" x="874.78" y="169.08"/><ellipse cx="1055.4703" cy="185.08" fill="#ADD1B2" rx="11" ry="11" style="stroke:#181818;stroke-width:1;"/><path d="M1055.5797,180.3612 Q1053.7516,180.3612 1052.7047,181.5956 Q1051.6578,182.8144 1051.6578,185.0019 Q1051.6578,187.1581 1052.6266,188.3925 Q1053.6109,189.6269 1055.5641,189.6269 Q1056.3453,189.6269 1057.0328,189.5019 Q1057.7359,189.3612 1058.7359,189.0487 L1058.7359,190.9237 Q1057.8766,191.2519 1057.1109,191.3769 Q1056.3609,191.5019 1055.3453,191.5019 Q1053.4234,191.5019 1052.1109,190.705 Q1050.8141,189.8925 1050.1578,188.4237 Q1049.5016,186.9394 1049.5016,184.9706 Q1049.5016,183.08 1050.2047,181.6112 Q1050.9078,180.1425 1052.2828,179.3144 Q1053.6578,178.4862 1055.6109,178.4862 Q1057.5797,178.4862 1059.2984,179.3456 L1058.4703,181.1269 Q1057.6891,180.7519 1057.0328,180.5644 Q1056.3766,180.3612 1055.5797,180.3612 Z " fill="#000000"/><text fill="#000000" font-family="sans-serif" font-size="14" lengthAdjust="spacing" textLength="114.3936" x="1075.9703" y="190.512">ProtocolManager</text><line style="stroke:#181818;stroke-width:0.5;" x1="875.78" x2="1358.0542" y1="201.08" y2="201.08"/><rect fill="#F24D5C" height="6" style="stroke:#C82930;stroke-width:1;" width="6" x="882.78" y="213.114"/><text fill="#000000" font-family="sans-serif" font-size="14" lengthAdjust="spacing" textLength="161.6294" x="894.78" y="220.0459">ProtocolManager() : void</text><rect fill="#F24D5C" height="6" style="stroke:#C82930;stroke-width:1;" width="6" x="882.78" y="232.1819"/><text fill="#000000" font-family="sans-serif" font-size="14" lengthAdjust="spacing" textLength="406.2645" x="894.78" y="239.1139">ProtocolManager(const ProtocolManager &amp; p) = deleted : void</text><line style="stroke:#181818;stroke-width:1;stroke-dasharray:1.0,2.0;" x1="875.78" x2="1358.0542" y1="247.2158" y2="247.2158"/><rect fill="#F24D5C" height="6" style="stroke:#C82930;stroke-width:1;" width="6" x="882.78" y="259.2498"/><text fill="#000000" font-family="sans-serif" font-size="14" lengthAdjust="spacing" textLength="458.2742" x="894.78" y="266.1818">operator=(const ProtocolManager &amp; p) = deleted : ProtocolManager &amp;</text><line style="stroke:#181818;stroke-width:1;stroke-dasharray:1.0,2.0;" x1="875.78" x2="1358.0542" y1="274.2838" y2="274.2838"/><ellipse cx="885.78" cy="289.3177" fill="#84BE84" rx="3" ry="3" style="stroke:#038048;stroke-width:1;"/><text fill="#000000" font-family="sans-serif" font-size="14" lengthAdjust="spacing" text-decoration="underline" textLength="332.6667" x="894.78" y="293.2497">deserialize(const QByteArray &amp; data) : QJsonObject</text><ellipse cx="885.78" cy="308.3856" fill="#84BE84" rx="3" ry="3" style="stroke:#038048;stroke-width:1;"/><text fill="#000000" font-family="sans-serif" font-size="14" lengthAdjust="spacing" text-decoration="underline" textLength="413.6564" x="894.78" y="312.3176">serialize(MessageType t, const QStringList &amp; argv) : QByteArray</text><line style="stroke:#181818;stroke-width:0.5;" x1="875.78" x2="1358.0542" y1="320.4196" y2="320.4196"/></g><!--class C_0008849749518693832582--><g id="elem_C_0008849749518693832582"><rect codeLine="53" fill="#F1F1F1" height="467.4942" id="C_0008849749518693832582" rx="2.5" ry="2.5" style="stroke:#181818;stroke-width:0.5;" width="243.6932" x="995.07" y="569.49"/><ellipse cx="1010.07" cy="585.49" fill="#EB937F" rx="11" ry="11" style="stroke:#181818;stroke-width:1;"/><path d="M1013.5388,591.99 L1006.2263,591.99 L1006.2263,579.3181 L1013.5388,579.3181 L1013.5388,581.1931 L1008.2731,581.1931 L1008.2731,584.4587 L1013.2263,584.4587 L1013.2263,586.3181 L1008.2731,586.3181 L1008.2731,590.115 L1013.5388,590.115 L1013.5388,591.99 Z " fill="#000000"/><text fill="#000000" font-family="sans-serif" font-size="14" lengthAdjust="spacing" textLength="211.6932" x="1024.07" y="590.922">ProtocolManager::MessageType</text><line style="stroke:#181818;stroke-width:0.5;" x1="996.07" x2="1237.7632" y1="601.49" y2="601.49"/><text fill="#000000" font-family="sans-serif" font-size="14" lengthAdjust="spacing" textLength="40.9078" x="1001.07" y="620.4559">START</text><text fill="#000000" font-family="sans-serif" font-size="14" lengthAdjust="spacing" textLength="90.2016" x="1001.07" y="639.5239">LoginRequest</text><text fill="#000000" font-family="sans-serif" font-size="14" lengthAdjust="spacing" textLength="80.6257" x="1001.07" y="658.5918">LoginAccept</text><text fill="#000000" font-family="sans-serif" font-size="14" lengthAdjust="spacing" textLength="83.5657" x="1001.07" y="677.6597">LoginDenied</text><text fill="#000000" font-family="sans-serif" font-size="14" lengthAdjust="spacing" textLength="150.0654" x="1001.07" y="696.7276">CreateAccountRequest</text><text fill="#000000" font-family="sans-serif" font-size="14" lengthAdjust="spacing" textLength="140.4895" x="1001.07" y="715.7955">CreateAccountAccept</text><text fill="#000000" font-family="sans-serif" font-size="14" lengthAdjust="spacing" textLength="143.4294" x="1001.07" y="734.8634">CreateAccountDenied</text><text fill="#000000" font-family="sans-serif" font-size="14" lengthAdjust="spacing" textLength="208.3752" x="1001.07" y="753.9314">CreateAccountAuthCodeSubmit</text><text fill="#000000" font-family="sans-serif" font-size="14" lengthAdjust="spacing" textLength="145.8654" x="1001.07" y="772.9993">AccountAuthenticated</text><text fill="#000000" font-family="sans-serif" font-size="14" lengthAdjust="spacing" textLength="170.0293" x="1001.07" y="792.0672">AccountNotAuthenticated</text><text fill="#000000" font-family="sans-serif" font-size="14" lengthAdjust="spacing" textLength="107.7716" x="1001.07" y="811.1351">AnnounceIpPort</text><text fill="#000000" font-family="sans-serif" font-size="14" lengthAdjust="spacing" textLength="110.9775" x="1001.07" y="830.203">AnnounceOffline</text><text fill="#000000" font-family="sans-serif" font-size="14" lengthAdjust="spacing" textLength="157.6674" x="1001.07" y="849.2709">PrivateMessageRequest</text><text fill="#000000" font-family="sans-serif" font-size="14" lengthAdjust="spacing" textLength="148.0914" x="1001.07" y="868.3389">PrivateMessageAccept</text><text fill="#000000" font-family="sans-serif" font-size="14" lengthAdjust="spacing" textLength="192.4293" x="1001.07" y="887.4068">PrivateMessageAcceptOffline</text><text fill="#000000" font-family="sans-serif" font-size="14" lengthAdjust="spacing" textLength="151.0314" x="1001.07" y="906.4747">PrivateMessageDenied</text><text fill="#000000" font-family="sans-serif" font-size="14" lengthAdjust="spacing" textLength="158.9134" x="1001.07" y="925.5426">PrivateMessageForward</text><text fill="#000000" font-family="sans-serif" font-size="14" lengthAdjust="spacing" textLength="104.1456" x="1001.07" y="944.6105">PrivateMessage</text><text fill="#000000" font-family="sans-serif" font-size="14" lengthAdjust="spacing" textLength="117.1795" x="1001.07" y="963.6784">DiscoveryRequest</text><text fill="#000000" font-family="sans-serif" font-size="14" lengthAdjust="spacing" textLength="86.0017" x="1001.07" y="982.7464">DiscoveryFail</text><text fill="#000000" font-family="sans-serif" font-size="14" lengthAdjust="spacing" textLength="107.6036" x="1001.07" y="1001.8143">DiscoveryAccept</text><text fill="#000000" font-family="sans-serif" font-size="14" lengthAdjust="spacing" textLength="28.2239" x="1001.07" y="1020.8822">SIZE</text><line style="stroke:#181818;stroke-width:0.5;" x1="996.07" x2="1237.7632" y1="1028.9842" y2="1028.9842"/></g><!--class C_0007168929316485241399--><g id="elem_C_0007168929316485241399"><rect codeLine="78" fill="#F1F1F1" height="483.4942" id="C_0007168929316485241399" rx="2.5" ry="2.5" style="stroke:#181818;stroke-width:0.5;" width="518.6021" x="72.62" y="7"/><ellipse cx="306.5942" cy="23" fill="#ADD1B2" rx="11" ry="11" style="stroke:#181818;stroke-width:1;"/><path d="M306.7035,18.2813 Q304.8754,18.2813 303.8285,19.5156 Q302.7817,20.7344 302.7817,22.9219 Q302.7817,25.0781 303.7504,26.3125 Q304.7348,27.5469 306.6879,27.5469 Q307.4692,27.5469 308.1567,27.4219 Q308.8598,27.2813 309.8598,26.9688 L309.8598,28.8438 Q309.0004,29.1719 308.2348,29.2969 Q307.4848,29.4219 306.4692,29.4219 Q304.5473,29.4219 303.2348,28.625 Q301.9379,27.8125 301.2817,26.3438 Q300.6254,24.8594 300.6254,22.8906 Q300.6254,21 301.3285,19.5313 Q302.0317,18.0625 303.4067,17.2344 Q304.7817,16.4063 306.7348,16.4063 Q308.7035,16.4063 310.4223,17.2656 L309.5942,19.0469 Q308.8129,18.6719 308.1567,18.4844 Q307.5004,18.2813 306.7035,18.2813 Z " fill="#000000"/><text fill="#000000" font-family="sans-serif" font-size="14" lengthAdjust="spacing" textLength="42.1538" x="327.0942" y="28.432">Server</text><line style="stroke:#181818;stroke-width:0.5;" x1="73.62" x2="590.2221" y1="39" y2="39"/><rect fill="#F24D5C" height="6" style="stroke:#C82930;stroke-width:1;" width="6" x="80.62" y="51.034"/><text fill="#000000" font-family="sans-serif" font-size="14" lengthAdjust="spacing" textLength="310.5048" x="92.62" y="57.9659">Server(int port, QObject * parent = __null) : void</text><rect fill="#F24D5C" height="6" style="stroke:#C82930;stroke-width:1;" width="6" x="80.62" y="70.1019"/><text fill="#000000" font-family="sans-serif" font-size="14" lengthAdjust="spacing" textLength="249.535" x="92.62" y="77.0339">Server(const Server &amp;) = deleted : void</text><rect fill="#F24D5C" height="6" style="stroke:#C82930;stroke-width:1;" width="6" x="80.62" y="89.1698"/><text fill="#000000" font-family="sans-serif" font-size="14" lengthAdjust="spacing" textLength="97.3976" x="92.62" y="96.1018">~Server() : void</text><line style="stroke:#181818;stroke-width:1;stroke-dasharray:1.0,2.0;" x1="73.62" x2="590.2221" y1="104.2038" y2="104.2038"/><rect fill="#F24D5C" height="6" style="stroke:#C82930;stroke-width:1;" width="6" x="80.62" y="116.2377"/><text fill="#000000" font-family="sans-serif" font-size="14" lengthAdjust="spacing" textLength="301.5448" x="92.62" y="123.1697">operator=(const Server &amp;) = deleted : Server &amp;</text><line style="stroke:#181818;stroke-width:1;stroke-dasharray:1.0,2.0;" x1="73.62" x2="590.2221" y1="131.2717" y2="131.2717"/><ellipse cx="83.62" cy="146.3056" fill="#84BE84" rx="3" ry="3" style="stroke:#038048;stroke-width:1;"/><text fill="#000000" font-family="sans-serif" font-size="14" lengthAdjust="spacing" text-decoration="underline" textLength="153.1734" x="92.62" y="150.2376">destroyInstance() : void</text><ellipse cx="83.62" cy="165.3735" fill="#84BE84" rx="3" ry="3" style="stroke:#038048;stroke-width:1;"/><text fill="#000000" font-family="sans-serif" font-size="14" lengthAdjust="spacing" text-decoration="underline" textLength="150.7794" x="92.62" y="169.3055">getInstance() : Server *</text><ellipse cx="83.62" cy="184.4415" fill="#84BE84" rx="3" ry="3" style="stroke:#038048;stroke-width:1;"/><text fill="#000000" font-family="sans-serif" font-size="14" lengthAdjust="spacing" textLength="273.251" x="92.62" y="188.3734">metaObject() const : const QMetaObject *</text><rect fill="#F24D5C" height="6" style="stroke:#C82930;stroke-width:1;" width="6" x="80.62" y="200.5094"/><text fill="#000000" font-family="sans-serif" font-size="14" lengthAdjust="spacing" textLength="245.6991" x="92.62" y="207.4414">numeric(const QString &amp;) const : bool</text><rect fill="#F24D5C" height="6" style="stroke:#C82930;stroke-width:1;" width="6" x="80.62" y="219.5773"/><text fill="#000000" font-family="sans-serif" font-size="14" lengthAdjust="spacing" textLength="168.9233" x="92.62" y="226.5093">onNewConnection() : void</text><ellipse cx="83.62" cy="241.6452" fill="#84BE84" rx="3" ry="3" style="stroke:#038048;stroke-width:1;"/><text fill="#000000" font-family="sans-serif" font-size="14" lengthAdjust="spacing" textLength="309.9868" x="92.62" y="245.5772">qt_metacall(QMetaObject::Call, int, void **) : int</text><ellipse cx="83.62" cy="260.7131" fill="#84BE84" rx="3" ry="3" style="stroke:#038048;stroke-width:1;"/><text fill="#000000" font-family="sans-serif" font-size="14" lengthAdjust="spacing" textLength="218.3012" x="92.62" y="264.6451">qt_metacast(const char *) : void *</text><rect fill="#F24D5C" height="6" style="stroke:#C82930;stroke-width:1;" width="6" x="80.62" y="276.781"/><text fill="#000000" font-family="sans-serif" font-size="14" lengthAdjust="spacing" text-decoration="underline" textLength="434.1944" x="92.62" y="283.713">qt_static_metacall(QObject *, QMetaObject::Call, int, void **) : void</text><ellipse cx="83.62" cy="298.849" fill="#84BE84" rx="3" ry="3" style="stroke:#038048;stroke-width:1;"/><text fill="#000000" font-family="sans-serif" font-size="14" lengthAdjust="spacing" text-decoration="underline" textLength="391.9705" x="92.62" y="302.7809">tr(const char * s, const char * c = nullptr, int n = -1) : QString</text><ellipse cx="83.62" cy="317.9169" fill="#84BE84" rx="3" ry="3" style="stroke:#038048;stroke-width:1;"/><text fill="#000000" font-family="sans-serif" font-size="14" lengthAdjust="spacing" text-decoration="underline" textLength="420.0825" x="92.62" y="321.8489">trUtf8(const char * s, const char * c = nullptr, int n = -1) : QString</text><rect fill="#F24D5C" height="6" style="stroke:#C82930;stroke-width:1;" width="6" x="80.62" y="333.9848"/><text fill="#000000" font-family="sans-serif" font-size="14" lengthAdjust="spacing" textLength="93.9116" x="92.62" y="340.9168">update() : void</text><line style="stroke:#181818;stroke-width:0.5;" x1="73.62" x2="590.2221" y1="349.0188" y2="349.0188"/><rect fill="transparent" height="6" style="stroke:#C82930;stroke-width:1;" width="6" x="80.62" y="361.0527"/><text fill="#000000" font-family="sans-serif" font-size="14" lengthAdjust="spacing" textLength="109.6056" x="92.62" y="367.9847">db : dbHandler *</text><rect fill="transparent" height="6" style="stroke:#C82930;stroke-width:1;" width="6" x="80.62" y="380.1206"/><text fill="#000000" font-family="sans-serif" font-size="14" lengthAdjust="spacing" text-decoration="underline" textLength="119.6855" x="92.62" y="387.0526">instance : Server *</text><rect fill="transparent" height="6" style="stroke:#C82930;stroke-width:1;" width="6" x="80.62" y="399.1885"/><text fill="#000000" font-family="sans-serif" font-size="14" lengthAdjust="spacing" textLength="154.0134" x="92.62" y="406.1205">listener_ : QTcpServer *</text><rect fill="transparent" height="6" style="stroke:#C82930;stroke-width:1;" width="6" x="80.62" y="418.2565"/><text fill="#000000" font-family="sans-serif" font-size="14" lengthAdjust="spacing" textLength="62.4818" x="92.62" y="425.1884">port_ : int</text><ellipse cx="83.62" cy="440.3244" fill="transparent" rx="3" ry="3" style="stroke:#038048;stroke-width:1;"/><text fill="#000000" font-family="sans-serif" font-size="14" lengthAdjust="spacing" text-decoration="underline" textLength="248.8631" x="92.62" y="444.2564">staticMetaObject : const QMetaObject</text><rect fill="transparent" height="6" style="stroke:#C82930;stroke-width:1;" width="6" x="80.62" y="456.3923"/><text fill="#000000" font-family="sans-serif" font-size="14" lengthAdjust="spacing" textLength="106.9176" x="92.62" y="463.3243">timer : QTimer *</text><rect fill="transparent" height="6" style="stroke:#C82930;stroke-width:1;" width="6" x="80.62" y="475.4602"/><text fill="#000000" font-family="sans-serif" font-size="14" lengthAdjust="spacing" textLength="492.6021" x="92.62" y="482.3922">usermap : std::unordered_map&lt;QString,std::pair&lt;QHostAddress,quint16&gt;&gt;</text></g><!--link C_0007180728308577750051 to C_0013909460443608576024--><g id="link_C_0007180728308577750051_C_0013909460443608576024"><path codeLine="105" d="M331.92,993.53 C331.92,1029.17 331.92,1059.38 331.92,1091.76 " fill="transparent" id="C_0007180728308577750051-to-C_0013909460443608576024" style="stroke:#181818;stroke-width:1;stroke-dasharray:7.0,7.0;"/><polygon fill="#181818" points="331.92,1097.76,335.92,1088.76,331.92,1092.76,327.92,1088.76,331.92,1097.76" style="stroke:#181818;stroke-width:1;"/></g><!--link C_0007180728308577750051 to C_0007180728308577750051--><g id="link_C_0007180728308577750051_C_0007180728308577750051"><path codeLine="106" d="M643.1,767.27 C664.6,775.51 677.68,787.5 677.68,803.24 C677.68,818.98 670.2026,828.8228 648.7026,837.0628 " fill="transparent" id="C_0007180728308577750051-to-C_0007180728308577750051" style="stroke:#181818;stroke-width:1;"/><polygon fill="#181818" points="643.1,839.21,652.9354,839.7242,647.7689,837.4206,650.0724,832.2541,643.1,839.21" style="stroke:#181818;stroke-width:1;"/><rect fill="transparent" height="6" style="stroke:#C82930;stroke-width:1;" width="6" x="685.68" y="801.093"/><text fill="#000000" font-family="sans-serif" font-size="13" lengthAdjust="spacing" textLength="70.7721" x="695.68" y="808.637">dbHandler_</text></g><!--link C_0016429213831703395188 to C_0008849749518693832582--><g id="link_C_0016429213831703395188_C_0008849749518693832582"><path codeLine="107" d="M1107.66,328.91 C1104.87,391.86 1103.7108,477.3201 1104.2708,563.0901 " fill="transparent" id="C_0016429213831703395188-to-C_0008849749518693832582" style="stroke:#181818;stroke-width:1;stroke-dasharray:7.0,7.0;"/><polygon fill="#181818" points="1104.31,569.09,1108.2512,560.0641,1104.2774,564.0901,1100.2513,560.1163,1104.31,569.09" style="stroke:#181818;stroke-width:1;"/></g><!--link C_0008849749518693832582 to C_0016429213831703395188--><g id="link_C_0008849749518693832582_C_0016429213831703395188"><path codeLine="108" d="M1130.27,569.09 C1130.86,483.32 1130.4315,407.8423 1127.4715,344.8923 " fill="transparent" id="C_0008849749518693832582-to-C_0016429213831703395188" style="stroke:#181818;stroke-width:1;"/><ellipse cx="1127.0958" cy="336.9012" fill="#FFFFFF" rx="8" ry="8" style="stroke:#181818;stroke-width:1;"/><line style="stroke:#181818;stroke-width:1;" x1="1127.4715" x2="1126.72" y1="344.8923" y2="328.91"/><line style="stroke:#181818;stroke-width:1;" x1="1119.1046" x2="1135.0869" y1="337.2769" y2="336.5254"/></g><!--link C_0007168929316485241399 to C_0007180728308577750051--><g id="link_C_0007168929316485241399_C_0007180728308577750051"><path codeLine="109" d="M331.92,490.87 C331.92,531.7 331.92,567.57 331.92,606.83 " fill="transparent" id="C_0007168929316485241399-to-C_0007180728308577750051" style="stroke:#181818;stroke-width:1;"/><polygon fill="#181818" points="331.92,612.83,335.92,603.83,331.92,607.83,327.92,603.83,331.92,612.83" style="stroke:#181818;stroke-width:1;"/><rect fill="transparent" height="6" style="stroke:#C82930;stroke-width:1;" width="6" x="334.92" y="527.843"/><text fill="#000000" font-family="sans-serif" font-size="13" lengthAdjust="spacing" textLength="15.99" x="344.92" y="535.387">db</text></g><!--link C_0007168929316485241399 to C_0007168929316485241399--><g id="link_C_0007168929316485241399_C_0007168929316485241399"><path codeLine="110" d="M591.66,208.19 C612.98,216.96 626.22,230.48 626.22,248.75 C626.22,267.01 618.528,278.2452 597.208,287.0252 " fill="transparent" id="C_0007168929316485241399-to-C_0007168929316485241399" style="stroke:#181818;stroke-width:1;"/><polygon fill="#181818" points="591.66,289.31,601.5051,289.5815,596.2833,287.406,598.4588,282.1842,591.66,289.31" style="stroke:#181818;stroke-width:1;"/><rect fill="transparent" height="6" style="stroke:#C82930;stroke-width:1;" width="6" x="634.22" y="246.603"/><text fill="#000000" font-family="sans-serif" font-size="13" lengthAdjust="spacing" textLength="51.207" x="644.22" y="254.147">instance</text></g><!--SRC=[fLTPRziu47xNho3oqDgnPKW-PCbe0sJJfiqYQPCuAR3x8Z3InD529XMASk0jsj- -GvsqB6y3z4sSu-DmRWKnJLDoT9-2E28q9MU-PTaJp_AcZZMTJXpBdSqTQpmrWbpm49jyDmOAenTmbafoivGYOYloXcH3qYOb2kWzEJhQPq59V-0y9Wa8F5fziY0R7eN6Q6GCLY1zMDCexlLBvKMbNZ0L-0iNuK4-Y7MKfX7oD15rNy7Fy16Chg53t_SDCx_RruYckd2N0CAl8CrCP_qedNWKFdocB8mrbrjpsxNcOtUY73gVponhPcikxsAZoyqQg5TxoVpPGKJNVKybbL7mWmm-WRp0br4MG2vHovDZOq33y5n4mC8oaYgev4qLgUBKhpr6D-YE-yfbtJ9139JTmggnfZ4bX5GAljqn9nSPv8x-HkCef18wRMco9k0XzFKe5Yz8uoYLUqQbCbmi5ETT2N2Igrn1cj8LfFi9REzVc8s7968IiQYGAaUBOmni9P_mRET9M-TTp5SHwtnBOpM35wr-gfVcTK0poJSqhcgXXXMmvXjGdks6J2KNKBwhUjQVAMTV7_w1G6gIAh6Hpv2ATO7Kgx-MDvUO3NMWcaJpMmbZhhVfSrpfD2b-BRZa0Oy_2i6rpZAUEyxKyondDhCjx1oMvUcTfOEDQOxsxU5UKORFqf2TwTWRsnDtOi-joSIRsQwh8tUmLG6ruBGoQdCA1xQegflrCJ0Xn20XrChDvDW7A4RW_MirzmHsgnPB1KI4IVHl7Sm_jX9EXQ1R1CFKedbsD17Mb1lLCX_kjWaGsShiIwmAXA9YjScXQlmY0i2ozLu05WiDiMbdhZlrvbFbPiT3fuzdxhZGFyJ5O2plJc_lZ4jLBBVmd65hA0wdGG19-Vq1M0IXSIO0ImaPF6Eo4juXbaexj2xbqqm-dM7_M6OFwqWQ6XKO-Wu5muhuXRVfZ24zW8lacWjP7xy-FiOH0-DQH1kKA_rJMRbBBSti8dR3b6_O9PvpyK95csfyYD80EuJOLdVNX7DihisfD69vyVV7fj2M83Qx0yfnlR4tmKfoP-CfBW7Uxe3QOwlwAb1wgZicwACXkIcxpp6k0G9TYINW-ooBuwRoIfqYDOk3QbPxLMR-B2Nx_rTttG0LTQ_6kiTH8x9g3SyI22Vd6YGj7gVj3cLzNTKyrJAn3h0UW_QeQQqZ9cTVuEMixilQS7oMlheje77Sqx0NYpEavBDec4kIusEbX6TDfvw9mHD5molKdNQFmiMtTazb_v2yuigMrwJOkPEaLUSfpm46HoL18aKnIXaIJ5iVTphOlNnqVnlGp99y7jVcgZ4OFhJcM-EJg0ox7dHJBHB0Yh5uSnSa3KUbkrywNsl4-OUM3XqfOfWomWJ94VCFH5DhwPecrVwICLnnGK3e8x5QP8OvAw6HU7VpcQVoD0m5TeBXSuOssCx92HRtmMLoD3evlFiVr3BDayFxwK9V6uo3KxYwkNDc71mNfZauFFSFTgHVs_igtNtceiaFmtZxIQM46X7a9SA54DiaMvdP6ki4aqFzUn1hv8miu-tbvRUhcfQBrIVR7TaZb_JE8UI2baVJ7Zq6Kwl_7m00]--></g></svg>